<?xml version="1.0" encoding="UTF-8"?>
<svg width="42px" height="42px" viewBox="0 0 42 42" version="1.1" xmlns="http://www.w3.org/2000/svg" xmlns:xlink="http://www.w3.org/1999/xlink">
    <defs></defs>
    <g id="Desktop" stroke="none" stroke-width="1" fill="none" fill-rule="evenodd">
        <g id="01-index-m" transform="translate(-246.000000, -1234.000000)">
            <g id="watch" transform="translate(-1.000000, 490.000000)">
                <g id="arrow-right-circle" transform="translate(247.000000, 744.000000)">
                    <g id="Page-1">
                        <g>
                            <g id="Icon-Set">
                                <path d="M21,42 C9.402,42 0,32.595 0,21 C0,9.405 9.402,0 21,0 C32.598,0 42,9.405 42,21 C42,32.595 32.598,42 21,42 L21,42 Z" id="arrow-right-circle" fill="#01573E" fill-rule="nonzero"></path>
                                <path d="M27.5682307,20.3394573 L21.6502567,14.417298 C21.2411464,14.009234 20.5788271,14.009234 20.1707632,14.417298 C19.7616529,14.8358251 19.7616529,15.4950054 20.1707632,15.9030694 L24.4826392,20.2138992 L13.4063179,20.2138992 C12.8277041,20.2138992 12.36,20.6847422 12.36,21.2602171 C12.36,21.8356919 12.8277041,22.306535 13.4063179,22.306535 L24.4826392,22.306535 L20.1707632,26.6173647 C19.7616529,27.0254287 19.7616529,27.6950722 20.1707632,28.1031362 C20.5788271,28.5112002 21.2411464,28.5112002 21.6502567,28.1031362 L27.5682307,22.1809768 C27.819347,21.9298605 27.8978209,21.5845756 27.8402734,21.2602171 C27.8978209,20.9358585 27.819347,20.5905736 27.5682307,20.3394573 L27.5682307,20.3394573 Z" id="arrow-right-circle-path" fill="#F7F8F3"></path>
                            </g>
                        </g>
                    </g>
                </g>
            </g>
        </g>
    </g>
</svg>