<?xml version="1.0" encoding="UTF-8"?>
<svg width="42px" height="42px" viewBox="0 0 42 42" version="1.1" xmlns="http://www.w3.org/2000/svg" xmlns:xlink="http://www.w3.org/1999/xlink">
    <defs></defs>
    <g id="Desktop" stroke="none" stroke-width="1" fill="none" fill-rule="evenodd">
        <g id="01-index-m" transform="translate(-31.000000, -1234.000000)">
            <g id="watch" transform="translate(-1.000000, 490.000000)">
                <g id="arrow-left-circle" transform="translate(32.000000, 744.000000)">
                    <g id="Page-1">
                        <g>
                            <g id="Icon-Set">
                                <path d="M21,42 C9.402,42 0,32.595 0,21 C0,9.405 9.402,0 21,0 C32.598,0 42,9.405 42,21 C42,32.595 32.598,42 21,42 L21,42 Z" id="arrow-left-circle" fill="#01573E" fill-rule="nonzero"></path>
                                <path d="M26.9136818,19.3739007 L15.8373577,19.3739007 L20.1502812,15.0630699 C20.5583453,14.6550058 20.5583453,13.9958253 20.1502812,13.5772981 C19.7411708,13.169234 19.0788514,13.169234 18.669741,13.5772981 L12.7507191,19.4994589 C12.500649,19.7505753 12.4221752,20.0958603 12.4797227,20.4202189 C12.4221752,20.7445775 12.500649,21.0898625 12.7507191,21.3409789 L18.669741,27.2631397 C19.0788514,27.6712038 19.7411708,27.6712038 20.1502812,27.2631397 C20.5583453,26.8550757 20.5583453,26.185432 20.1502812,25.7773679 L15.8373577,21.4665371 L26.9136818,21.4665371 C27.4912495,21.4665371 27.96,20.9956939 27.96,20.4202189 C27.96,19.8447439 27.4912495,19.3739007 26.9136818,19.3739007 L26.9136818,19.3739007 Z" id="arrow-left-circle-path" fill="#F7F8F3"></path>
                            </g>
                        </g>
                    </g>
                </g>
            </g>
        </g>
    </g>
</svg>