<?xml version="1.0" encoding="UTF-8"?>
<svg width="17px" height="17px" viewBox="0 0 17 17" version="1.1" xmlns="http://www.w3.org/2000/svg" xmlns:xlink="http://www.w3.org/1999/xlink">
    <defs></defs>
    <g id="Desktop" stroke="none" stroke-width="1" fill="none" fill-rule="evenodd">
        <g id="01-index" transform="translate(-1402.000000, -51.000000)" fill-rule="nonzero" fill="#01573E">
            <path d="M1417.11111,51 L1403.88889,51 C1402.85,51 1402,51.85 1402,52.8888889 L1402,66.1111111 C1402,67.1509444 1402.85,68 1403.88889,68 L1410.5,68 L1410.5,61.3888889 L1408.61111,61.3888889 L1408.61111,59.0513889 L1410.5,59.0513889 L1410.5,57.1152778 C1410.5,55.0715 1411.64467,53.6359444 1414.05678,53.6359444 L1415.75961,53.6378333 L1415.75961,56.0981111 L1414.62911,56.0981111 C1413.69033,56.0981111 1413.33333,56.8026667 1413.33333,57.4562222 L1413.33333,59.0523333 L1415.75867,59.0523333 L1415.22222,61.3888889 L1413.33333,61.3888889 L1413.33333,68 L1417.11111,68 C1418.15,68 1419,67.1509444 1419,66.1111111 L1419,52.8888889 C1419,51.85 1418.15,51 1417.11111,51 Z" id="facebook"></path>
        </g>
    </g>
</svg>