<?xml version="1.0" encoding="UTF-8"?>
<svg width="26px" height="18px" viewBox="0 0 26 18" version="1.1" xmlns="http://www.w3.org/2000/svg" xmlns:xlink="http://www.w3.org/1999/xlink">
    <defs></defs>
    <g id="Desktop" stroke="none" stroke-width="1" fill="none" fill-rule="evenodd">
        <g id="01-index-m" transform="translate(-270.000000, -24.000000)" fill-rule="nonzero" fill="#01573E">
            <g id="menu" transform="translate(270.000000, 24.000000)">
                <g id="Layer_1">
                    <path d="M1.27058824,2.54117647 L24.1411765,2.54117647 C24.8428588,2.54117647 25.4117647,1.97227059 25.4117647,1.27058824 C25.4117647,0.568905882 24.8428588,0 24.1411765,0 L1.27058824,0 C0.568905882,0 0,0.568905882 0,1.27058824 C0,1.97227059 0.568905882,2.54117647 1.27058824,2.54117647 Z M24.1411765,7.62352941 L1.27058824,7.62352941 C0.568905882,7.62352941 0,8.19243529 0,8.89411765 C0,9.5958 0.568905882,10.1647059 1.27058824,10.1647059 L24.1411765,10.1647059 C24.8428588,10.1647059 25.4117647,9.5958 25.4117647,8.89411765 C25.4117647,8.19243529 24.8428588,7.62352941 24.1411765,7.62352941 Z M24.1411765,15.2470588 L1.27058824,15.2470588 C0.568905882,15.2470588 0,15.8159647 0,16.5176471 C0,17.2193294 0.568905882,17.7882353 1.27058824,17.7882353 L24.1411765,17.7882353 C24.8428588,17.7882353 25.4117647,17.2193294 25.4117647,16.5176471 C25.4117647,15.8159647 24.8428588,15.2470588 24.1411765,15.2470588 Z" id="Shape"></path>
                </g>
            </g>
        </g>
    </g>
</svg>