<?xml version="1.0" encoding="UTF-8"?>
<svg width="66px" height="77px" viewBox="0 0 66 77" version="1.1" xmlns="http://www.w3.org/2000/svg" xmlns:xlink="http://www.w3.org/1999/xlink">
    <defs></defs>
    <g id="Desktop" stroke="none" stroke-width="1" fill="none" fill-rule="evenodd">
        <g id="01-index" transform="translate(-834.000000, -2747.000000)">
            <g id="tips" transform="translate(150.000000, 2355.000000)">
                <g id="Group-2" transform="translate(684.000000, 387.000000)">
                    <g id="money-piglet" transform="translate(0.000000, 5.000000)">
                        <path d="M62.4394737,40.1210526 L60.1815789,40.1210526 L60.1815789,40.1210526 C58.7052632,35.6052632 55.8394737,31.5236842 51.9315789,28.3973684 C51.9315789,28.2236842 51.9315789,28.1368421 51.8447368,27.9631579 C51.0631579,25.0973684 52.0184211,22.4921053 53.2342105,20.6684211 C54.0157895,19.3657895 52.9736842,17.7157895 51.4973684,17.8894737 C48.1105263,18.3236842 45.6789474,19.5394737 44.1157895,21.0157895 C42.9868421,21.9710526 42.2052632,23.2736842 41.8578947,24.75 C39.4263158,34.9105263 30.2210526,42.4657895 19.3657895,42.4657895 C14.0684211,42.4657895 9.20526316,40.7289474 5.29736842,37.6894737 C3.90789474,40.6421053 3.21315789,43.8552632 3.21315789,47.1552632 C3.21315789,48.9789474 3.47368421,50.7157895 3.82105263,52.4526316 L3.82105263,52.4526316 C3.82105263,52.4526316 3.82105263,52.4526316 3.82105263,52.5394737 C4.25526316,54.2763158 4.86315789,56.0131579 5.73157895,57.6631579 C6.86052632,60.0078947 8.42368421,62.7868421 10.5947368,65.0447368 C13.8078947,68.3447368 14.3289474,72.3394737 14.4157895,74.0763158 L14.4157895,74.8578947 L14.4157895,74.9447368 L14.4157895,74.9447368 L14.4157895,74.9447368 C14.5026316,75.8131579 15.1973684,76.5078947 16.0657895,76.5078947 L26.1394737,76.5078947 C27.0947368,76.5078947 27.7894737,75.7263158 27.7894737,74.8578947 L27.7894737,72.3394737 C29.2657895,72.5131579 30.7421053,72.6 32.3052632,72.6 C33.5210526,72.6 34.65,72.5131579 35.7789474,72.4263158 L35.7789474,74.7710526 C35.7789474,75.7263158 36.5605263,76.4210526 37.4289474,76.4210526 L47.5026316,76.4210526 C48.4578947,76.4210526 49.1526316,75.6394737 49.1526316,74.7710526 L49.1526316,72.2526316 C49.1526316,71.3842105 49.4131579,68.0842105 52.5394737,65.3052632 C52.6263158,65.2184211 52.8,65.1315789 52.8868421,65.0447368 L52.9736842,64.9578947 L52.9736842,64.9578947 C56.4473684,61.8315789 59.0526316,58.0105263 60.3552632,53.7552632 L62.4394737,53.7552632 C64.0894737,53.7552632 65.4789474,52.3657895 65.4789474,50.7157895 L65.4789474,43.1605263 C65.4789474,41.4236842 64.0894737,40.1210526 62.4394737,40.1210526 Z M49.8473684,40.6421053 C48.4578947,40.6421053 47.3289474,39.5131579 47.3289474,38.1236842 C47.3289474,36.7342105 48.4578947,35.6052632 49.8473684,35.6052632 C51.2368421,35.6052632 52.3657895,36.7342105 52.3657895,38.1236842 C52.2789474,39.5131579 51.15,40.6421053 49.8473684,40.6421053 Z" id="Shape" fill="#00593E" fill-rule="nonzero"></path>
                        <path d="M19.2789474,0 C8.68421053,0 0,8.59736842 0,19.2789474 C0,29.9605263 8.59736842,38.5578947 19.2789474,38.5578947 C29.8736842,38.5578947 38.5578947,29.9605263 38.5578947,19.2789474 C38.5578947,8.59736842 29.8736842,0 19.2789474,0 Z" id="Path" fill="#00593E"></path>
                        <path d="M19.2908468,27.2252295 C18.2568593,27.2252295 17.3065175,27.0617707 16.4397927,26.7348482 C15.5730679,26.4079257 14.8279999,25.9517616 14.2045663,25.3663422 C13.5811327,24.7809228 13.0907563,24.0928753 12.7334224,23.302179 C12.3760885,22.5114828 12.1822187,21.6523737 12.1518073,20.7248261 L10.7833014,20.7248261 C10.6160387,20.7248261 10.4715867,20.6640043 10.3499411,20.5423587 C10.2282956,20.4207131 10.1674737,20.2762611 10.1674737,20.1089985 L10.1674737,17.9193889 C10.1674737,17.7521262 10.2282956,17.6076743 10.3499411,17.4860287 C10.4715867,17.3643831 10.6160387,17.3035612 10.7833014,17.3035612 L12.1518073,17.3035612 C12.1822187,16.3760137 12.3760885,15.5169046 12.7334224,14.7262083 C13.0907563,13.935512 13.5811327,13.2512659 14.2045663,12.6734494 C14.8279999,12.0956329 15.5730679,11.6394688 16.4397927,11.3049434 C17.3065175,10.9704181 18.2568593,10.8031579 19.2908468,10.8031579 C20.2336001,10.8031579 21.1421269,10.9438085 22.0164545,11.2251139 C22.8907821,11.5064193 23.6624597,11.8903574 24.3315104,12.3769398 C25.0005611,12.8635221 25.5365539,13.4451313 25.9395049,14.1217849 C26.3424559,14.7984384 26.5515311,15.5244996 26.5667368,16.2999902 C26.5667368,16.4368415 26.5173191,16.5546839 26.418482,16.6535209 C26.319645,16.7523579 26.2018026,16.8017757 26.0649513,16.8017757 L23.0770466,16.8017757 C22.8185498,16.8017757 22.655091,16.7523579 22.5866653,16.6535209 C22.5182397,16.5546839 22.4232055,16.3836223 22.3015599,16.1403312 C22.1799143,15.9122457 22.0506678,15.6955677 21.9138166,15.4902908 C21.7769653,15.2850139 21.5944996,15.1063496 21.3664142,14.9542927 C21.1383287,14.8022357 20.8608289,14.6805919 20.5339064,14.5893577 C20.2069839,14.4981235 19.7926348,14.4525071 19.2908468,14.4525071 C18.3328878,14.4525071 17.6144294,14.7224042 17.1354499,15.2622065 C16.6564704,15.8020088 16.4017788,16.4824535 16.3713674,17.3035612 L19.7013986,17.3035612 C19.8686613,17.3035612 20.0131132,17.3643831 20.1347588,17.4860287 C20.2564044,17.6076743 20.3172263,17.7521262 20.3172263,17.9193889 L20.3172263,20.1089985 C20.3172263,20.2762611 20.2564044,20.4207131 20.1347588,20.5423587 C20.0131132,20.6640043 19.8686613,20.7248261 19.7013986,20.7248261 L16.3713674,20.7248261 C16.4017788,21.5459338 16.6564704,22.2263786 17.1354499,22.7661809 C17.6144294,23.3059832 18.3328878,23.5758802 19.2908468,23.5758802 C19.7926348,23.5758802 20.2069839,23.5302638 20.5339064,23.4390296 C20.8608289,23.3477955 21.1383287,23.2261517 21.3664142,23.0740947 C21.5944996,22.9220377 21.7769653,22.7433735 21.9138166,22.5380966 C22.0506678,22.3328196 22.1799143,22.1161417 22.3015599,21.8880562 C22.4232055,21.6447651 22.5182397,21.4737035 22.5866653,21.3748665 C22.655091,21.2760294 22.8185498,21.2266117 23.0770466,21.2266117 L26.0649513,21.2266117 C26.2018026,21.2266117 26.319645,21.2760294 26.418482,21.3748665 C26.5173191,21.4737035 26.5667368,21.5915459 26.5667368,21.7283972 C26.5515311,22.5038878 26.3424559,23.229949 25.9395049,23.9066025 C25.5365539,24.5832561 25.0005611,25.1648653 24.3315104,25.6514476 C23.6624597,26.13803 22.8907821,26.5219681 22.0164545,26.8032735 C21.1421269,27.0845789 20.2336001,27.2252295 19.2908468,27.2252295 Z" id="€" fill="#A5F921"></path>
                    </g>
                </g>
            </g>
        </g>
    </g>
</svg>