<?xml version="1.0" encoding="UTF-8"?>
<svg width="55px" height="28px" viewBox="0 0 55 28" version="1.1" xmlns="http://www.w3.org/2000/svg" xmlns:xlink="http://www.w3.org/1999/xlink">
    <defs></defs>
    <g id="Desktop" stroke="none" stroke-width="1" fill="none" fill-rule="evenodd">
        <g id="01-index" transform="translate(-806.000000, -5581.000000)" fill="#689E72">
            <g id="disciplines" transform="translate(150.000000, 5161.000000)">
                <g id="Group-22" transform="translate(436.000000, 216.000000)">
                    <path d="M249.513782,204 C237.574279,204 227.592571,212.53815 225.350615,223.829061 L220.601856,223.829061 C220.05242,223.829061 219.791438,224.505554 220.198364,224.874707 L227.875016,231.839238 C228.102517,232.045276 228.44849,232.046993 228.677708,231.84353 L236.517903,224.878999 C236.931267,224.511993 236.671573,223.829061 236.119132,223.829061 L231.187085,223.829061 C233.320013,215.702559 240.727527,209.690526 249.513782,209.690526 C259.959935,209.690526 268.458595,218.189186 268.458595,228.635339 L274.149121,228.635339 C274.149121,215.051391 263.09773,204 249.513782,204" id="throw-arrow"></path>
                </g>
            </g>
        </g>
    </g>
</svg>