<?xml version="1.0" encoding="UTF-8"?>
<svg width="237px" height="274px" viewBox="0 0 237 274" version="1.1" xmlns="http://www.w3.org/2000/svg" xmlns:xlink="http://www.w3.org/1999/xlink">
    <defs></defs>
    <g id="Desktop" stroke="none" stroke-width="1" fill="none" fill-rule="evenodd">
        <g id="01-index" transform="translate(-162.000000, -170.000000)">
            <g id="intro" transform="translate(60.000000, 56.000000)">
                <g id="vs-vimpelis" transform="translate(102.000000, 114.000000)">
                    <path d="M118.375047,97.9144397 C91.3801793,97.9144397 69.4183146,75.952575 69.4183146,48.957301 C69.4183146,21.9620271 91.3801793,0.000162328767 118.375047,0.000162328767 C145.370321,0.000162328767 167.332592,21.9620271 167.332592,48.957301 C167.332592,75.952575 145.370321,97.9144397 118.375047,97.9144397" id="Fill-1" fill="#D8E4A7"></path>
                    <polygon id="Fill-3" fill="#D8E4A7" points="0.0536496575 222.211322 0.0536496575 22.4142344 236.696932 22.4142344 236.696932 222.211322 118.377523 249.563313"></polygon>
                    <polygon id="Fill-6" fill="#FFFFFF" points="51.8178991 234.177306 51.8178991 258.863453 55.3339402 259.663734 55.3339402 234.990167"></polygon>
                    <polygon id="Fill-8" fill="#FFFFFF" points="77.726869 240.166466 77.726869 264.758868 81.2429101 265.559149 81.2429101 240.979327"></polygon>
                    <polygon id="Fill-10" fill="#FFFFFF" points="60.4542765 236.173706 60.4542765 260.828605 63.9703176 261.628886 63.9703176 236.986567"></polygon>
                    <polygon id="Fill-12" fill="#FFFFFF" points="103.636001 246.155667 103.636001 270.65473 107.151636 271.454605 107.151636 246.968528"></polygon>
                    <polygon id="Fill-14" fill="#FFFFFF" points="86.3632464 242.162907 86.3632464 266.724061 89.8792875 267.524342 89.8792875 242.975768"></polygon>
                    <polygon id="Fill-16" fill="#FFFFFF" points="94.9996238 244.159267 94.9996238 268.689173 98.5156649 269.489453 98.5156649 244.972128"></polygon>
                    <polygon id="Fill-18" fill="#FFFFFF" points="69.0906539 238.170106 69.0906539 262.793757 72.606695 263.594038 72.606695 238.982968"></polygon>
                    <polygon id="Fill-20" fill="#FFFFFF" points="8.6363774 224.195345 8.6363774 249.037733 12.1520127 249.837608 12.1520127 225.008206"></polygon>
                    <polygon id="Fill-22" fill="#FFFFFF" points="112.272379 248.152067 112.272379 272.619883 115.788014 273.419758 115.788014 248.964929"></polygon>
                    <polygon id="Fill-24" fill="#FFFFFF" points="43.1816841 232.180905 43.1816841 256.898301 46.6977252 257.698582 46.6977252 232.993767"></polygon>
                    <polygon id="Fill-26" fill="#FFFFFF" points="0.0536496575 222.211322 0.0536496575 160.386382 8.11643836e-05 160.386382 8.11643836e-05 247.072784 3.51571644 247.872659 3.51571644 223.011603"></polygon>
                    <polygon id="Fill-28" fill="#FFFFFF" points="34.5453473 230.184464 34.5453473 254.933108 38.0613884 255.733389 38.0613884 230.997326"></polygon>
                    <polygon id="Fill-30" fill="#FFFFFF" points="17.2727548 226.191745 17.2727548 251.002885 20.7883901 251.80276 20.7883901 227.004606"></polygon>
                    <polygon id="Fill-32" fill="#FFFFFF" points="25.9089699 228.188105 25.9089699 252.967997 29.425011 253.768278 29.425011 229.000966"></polygon>
                    <polygon id="Fill-34" fill="#FFFFFF" points="224.544514 225.020543 224.544514 249.873889 228.060555 249.074825 228.060555 224.207682"></polygon>
                    <polygon id="Fill-36" fill="#FFFFFF" points="198.635584 231.009987 198.635584 255.761878 202.15122 254.96322 202.15122 230.197126"></polygon>
                    <polygon id="Fill-38" fill="#FFFFFF" points="189.999207 233.006469 189.999207 257.724676 193.515248 256.925613 193.515248 232.193608"></polygon>
                    <polygon id="Fill-40" fill="#FFFFFF" points="207.271962 229.013506 207.271962 253.799485 210.787597 253.000422 210.787597 228.200645"></polygon>
                    <polygon id="Fill-42" fill="#FFFFFF" points="181.36283 235.00295 181.36283 259.687474 184.878871 258.888411 184.878871 234.190089"></polygon>
                    <polygon id="Fill-44" fill="#FFFFFF" points="233.180932 247.911374 236.696973 247.112311 236.696973 222.211484 233.180932 223.02394"></polygon>
                    <polygon id="Fill-47" fill="#FFFFFF" points="215.908177 227.017024 215.908177 251.836687 219.424218 251.037624 219.424218 226.204163"></polygon>
                    <polygon id="Fill-49" fill="#FFFFFF" points="138.181308 244.985277 138.181308 269.500979 141.697349 268.701915 141.697349 244.172415"></polygon>
                    <polygon id="Fill-51" fill="#FFFFFF" points="120.908553 248.97824 120.908553 273.42617 124.424594 272.627106 124.424594 248.165378"></polygon>
                    <polygon id="Fill-53" fill="#FFFFFF" points="172.726452 236.999432 172.726452 261.650273 176.242493 260.851209 176.242493 236.186571"></polygon>
                    <polygon id="Fill-55" fill="#FFFFFF" points="129.54493 246.981758 129.54493 271.463371 133.060972 270.664308 133.060972 246.168897"></polygon>
                    <polygon id="Fill-57" fill="#FFFFFF" points="146.817523 242.988795 146.817523 267.53818 150.333564 266.739117 150.333564 242.175934"></polygon>
                    <polygon id="Fill-59" fill="#FFFFFF" points="155.454063 240.992314 155.454063 265.575382 158.969698 264.776319 158.969698 240.179452"></polygon>
                    <polygon id="Fill-61" fill="#FFFFFF" points="164.090278 238.995832 164.090278 263.612584 167.606319 262.813926 167.606319 238.182971"></polygon>
                    <polygon id="Fill-63" fill="#FFFFFF" points="7.1906774 216.535862 7.1906774 29.5509781 229.559986 29.5509781 229.559986 216.535862 118.377361 242.238187"></polygon>
                    <polygon id="Fill-65" fill="#005238" points="222.422755 210.86028 118.37732 234.912939 14.3278269 210.86028 14.3278269 36.6880058 222.422755 36.6880058"></polygon>
                    <polygon id="Fill-67" fill="#D8E4A7" points="118.374317 203.600937 120.250838 209.41109 126.356022 209.399727 121.409865 212.979076 123.307082 218.781924 118.374317 215.184312 113.441552 218.781924 115.339581 212.979076 110.393423 209.399727 116.499826 209.41109"></polygon>
                    <polygon id="Fill-69" fill="#D8E4A7" points="138.651371 203.432886 140.051863 207.77234 144.613301 207.763818 140.918698 210.437373 142.335829 214.771551 138.651371 212.084198 134.966914 214.771551 136.384044 210.437373 132.690253 207.763818 137.25088 207.77234"></polygon>
                    <polygon id="Fill-71" fill="#D8E4A7" points="98.0981147 203.432886 99.4986062 207.77234 104.060045 207.763818 100.36463 210.437373 101.782572 214.771551 98.0981147 212.084198 94.4140634 214.771551 95.8307877 210.437373 92.1369966 207.763818 96.6976233 207.77234"></polygon>
                    <path d="M181.024295,56.3806361 C181.106677,56.3806361 181.176884,56.4110728 181.236134,56.4703228 C181.295384,56.5295728 181.324603,56.6009974 181.324603,56.6821618 L181.324603,58.3671344 C181.324603,58.4495163 181.295384,58.5197235 181.236134,58.5789735 C181.176884,58.6382235 181.106677,58.6686601 181.024295,58.6686601 L174.295768,58.6686601 C174.214603,58.6686601 174.143179,58.6394409 174.085146,58.5801909 C174.024679,58.5221584 173.995459,58.4531687 173.995459,58.3720043 L173.995459,57.0246755 C173.995459,56.7462817 174.092451,56.5490522 174.286028,56.4325813 C175.550163,55.6505625 176.49654,55.0260026 177.125158,54.5576841 C177.75337,54.0901772 178.067882,53.7281841 178.067882,53.4729221 C178.067882,53.3856704 178.062201,53.3142457 178.051244,53.2586481 C178.039069,53.2038622 178.00011,53.1531344 177.933555,53.1060591 C177.867001,53.0577663 177.76798,53.0346344 177.638117,53.0346344 C177.507442,53.0346344 177.397465,53.0634478 177.308995,53.1206687 C177.219309,53.1787012 177.160059,53.2367337 177.131245,53.2935488 C177.100809,53.3515813 177.070372,53.4327457 177.041559,53.5382594 C177.011122,53.6421498 176.99286,53.7018057 176.985961,53.7160094 C176.955524,53.7959563 176.851228,53.8361327 176.673478,53.8361327 L174.407369,53.8361327 C174.334727,53.8361327 174.269389,53.8093485 174.213386,53.7586207 C174.157788,53.7062697 174.128975,53.6397149 174.128975,53.5589563 C174.128975,52.7331087 174.454444,52.0744598 175.104571,51.5830094 C175.755915,51.0927765 176.62762,50.8472543 177.721716,50.8472543 C178.815001,50.8472543 179.640442,51.0590933 180.198853,51.4827714 C180.755641,51.9064495 181.035252,52.509095 181.035252,53.2911139 C181.035252,53.6859786 180.905795,54.0431019 180.64404,54.3649187 C180.503626,54.5406396 180.368081,54.6956635 180.237406,54.831208 C180.106732,54.9655351 179.920054,55.1254289 179.673314,55.3068313 C179.087307,55.7378142 178.558521,56.096155 178.089797,56.3806361 L181.024295,56.3806361 Z" id="Fill-73" fill="#D8E4A7"></path>
                    <path d="M185.50952,53.6979909 L185.50952,55.8066416 C185.50952,56.0042769 185.579727,56.1674173 185.721359,56.2972803 C185.861773,56.427955 186.033842,56.4932923 186.234724,56.4932923 C186.435606,56.4932923 186.606457,56.42552 186.748089,56.2924104 C186.888503,56.1593009 186.959928,55.9969721 186.959928,55.8066416 L186.959928,53.6979909 C186.959928,53.5007615 186.890938,53.3372152 186.752958,53.207758 C186.614979,53.0770834 186.44291,53.0117461 186.234724,53.0117461 C186.026537,53.0117461 185.853251,53.0795183 185.716489,53.2126279 C185.57851,53.3457375 185.50952,53.5080663 185.50952,53.6979909 M189.971938,53.7742854 L189.971938,55.7534789 C189.971938,56.7185235 189.627801,57.4469738 188.939121,57.9400474 C188.251659,58.4327152 187.348299,58.679455 186.228636,58.679455 C185.108974,58.679455 184.208049,58.4327152 183.523022,57.9400474 C182.838806,57.4469738 182.496292,56.7112187 182.496292,55.7319704 L182.496292,53.7949824 C182.496292,52.8311553 182.849763,52.0986467 183.556705,51.5974567 C184.263647,51.0974841 185.156049,50.847092 186.234724,50.847092 C187.312181,50.847092 188.205395,51.0974841 188.912337,51.5974567 C189.619279,52.0986467 189.971938,52.8238505 189.971938,53.7742854" id="Fill-75" fill="#D8E4A7"></path>
                    <path d="M196.698964,51.1594125 L196.698964,56.3807173 L198.473623,56.3807173 C198.554787,56.3807173 198.624995,56.4107481 198.684245,56.4704039 C198.744712,56.5296539 198.773931,56.6010786 198.773931,56.682243 L198.773931,58.3672156 C198.773931,58.4495974 198.744712,58.5198046 198.684245,58.5790546 C198.624995,58.6383046 198.554787,58.6687413 198.473623,58.6687413 L191.734544,58.6687413 C191.652162,58.6687413 191.581955,58.6383046 191.522705,58.5790546 C191.461832,58.5198046 191.433018,58.4495974 191.433018,58.3672156 L191.433018,56.682243 C191.433018,56.6010786 191.461832,56.5296539 191.522705,56.4704039 C191.581955,56.4107481 191.652162,56.3807173 191.734544,56.3807173 L193.798554,56.3807173 L193.798554,53.7039159 L192.671181,54.4510341 C192.604626,54.4956745 192.535637,54.5175889 192.464212,54.5175889 C192.394005,54.5175889 192.321363,54.4656437 192.247503,54.3613474 L191.343332,52.9559861 C191.314113,52.8967361 191.299909,52.8277464 191.299909,52.7502344 C191.299909,52.671505 191.348202,52.5952104 191.445193,52.5213509 L193.920707,50.902933 C193.972652,50.8737139 194.03312,50.8591043 194.098457,50.8591043 L196.397438,50.8591043 C196.478602,50.8591043 196.550027,50.8883235 196.609277,50.9475735 C196.669745,51.0080409 196.698964,51.0782481 196.698964,51.1594125" id="Fill-77" fill="#D8E4A7"></path>
                    <path d="M200.414263,50.8591854 L206.851005,50.8591854 C206.940691,50.8591854 207.013334,50.8884046 207.068931,50.9476546 C207.124529,51.0081221 207.153748,51.0783293 207.153748,51.1594937 L207.153748,52.7998259 C207.153748,53.0080125 207.105049,53.1979372 207.008464,53.3687882 L204.296762,58.4119372 C204.19977,58.5827882 204.047181,58.6688224 203.838995,58.6688224 L201.328174,58.6688224 C201.262837,58.6688224 201.204804,58.6444731 201.156512,58.5961803 C201.107813,58.5474817 201.08387,58.4967539 201.08387,58.4448087 C201.08387,58.3936752 201.091174,58.3526872 201.105378,58.3222505 L203.984279,53.145992 L200.414263,53.145992 C200.333099,53.145992 200.261674,53.1155553 200.202424,53.0563053 C200.141957,52.9970553 200.112738,52.9268481 200.112738,52.8444663 L200.112738,51.1594937 C200.112738,51.0783293 200.141957,51.0081221 200.202424,50.9476546 C200.261674,50.8884046 200.333099,50.8591854 200.414263,50.8591854" id="Fill-79" fill="#D8E4A7"></path>
                    <path d="M29.8694444,58.9788889 L27.7694444,58.9788889 C27.7027774,58.9788889 27.6453706,58.9548151 27.5972222,58.9066667 C27.5490738,58.8585183 27.525,58.8122224 27.525,58.7677778 C27.525,58.7233331 27.5287037,58.6900001 27.5361111,58.6677778 L29.9583333,51.5677778 C30.0250003,51.3233321 30.1916653,51.2011111 30.4583333,51.2011111 L33.5472222,51.2011111 C33.8138902,51.2011111 33.9805552,51.3233321 34.0472222,51.5677778 L36.4694444,58.6677778 C36.4768519,58.6900001 36.4805556,58.7233331 36.4805556,58.7677778 C36.4805556,58.8122224 36.4564817,58.8585183 36.4083333,58.9066667 C36.3601849,58.9548151 36.3027781,58.9788889 36.2361111,58.9788889 L34.1361111,58.9788889 C33.8990729,58.9788889 33.7324079,58.8529642 33.6361111,58.6011111 L33.3583333,57.8233333 L30.6472222,57.8233333 L30.3694444,58.6011111 C30.2731477,58.8529642 30.1064827,58.9788889 29.8694444,58.9788889 Z M32.7916667,55.6566667 L32.0027778,53.3455556 L31.2138889,55.6566667 L32.7916667,55.6566667 Z M42.825,51.2011111 L44.8916667,51.2011111 C44.9731486,51.2011111 45.0435182,51.2307404 45.1027778,51.29 C45.1620373,51.3492596 45.1916667,51.4196292 45.1916667,51.5011111 L45.1916667,58.6788889 C45.1916667,58.7603708 45.1620373,58.8307404 45.1027778,58.89 C45.0435182,58.9492596 44.9731486,58.9788889 44.8916667,58.9788889 L43.1027778,58.9788889 C42.9249991,58.9788889 42.7768524,58.9011119 42.6583333,58.7455556 L40.2361111,55.6566667 L40.2361111,58.6788889 C40.2361111,58.7603708 40.2064818,58.8307404 40.1472222,58.89 C40.0879627,58.9492596 40.017593,58.9788889 39.9361111,58.9788889 L37.8694444,58.9788889 C37.7879626,58.9788889 37.7175929,58.9492596 37.6583333,58.89 C37.5990738,58.8307404 37.5694444,58.7603708 37.5694444,58.6788889 L37.5694444,51.5011111 C37.5694444,51.4196292 37.5990738,51.3492596 37.6583333,51.29 C37.7175929,51.2307404 37.7879626,51.2011111 37.8694444,51.2011111 L39.6694444,51.2011111 C39.8472231,51.2011111 39.9916661,51.2751844 40.1027778,51.4233333 L42.525,54.7677778 L42.525,51.5011111 C42.525,51.4196292 42.5546293,51.3492596 42.6138889,51.29 C42.6731484,51.2307404 42.7435181,51.2011111 42.825,51.2011111 Z M52.2694444,51.2011111 L54.3361111,51.2011111 C54.417593,51.2011111 54.4879627,51.2307404 54.5472222,51.29 C54.6064818,51.3492596 54.6361111,51.4196292 54.6361111,51.5011111 L54.6361111,58.6788889 C54.6361111,58.7603708 54.6064818,58.8307404 54.5472222,58.89 C54.4879627,58.9492596 54.417593,58.9788889 54.3361111,58.9788889 L52.5472222,58.9788889 C52.3694436,58.9788889 52.2212969,58.9011119 52.1027778,58.7455556 L49.6805556,55.6566667 L49.6805556,58.6788889 C49.6805556,58.7603708 49.6509262,58.8307404 49.5916667,58.89 C49.5324071,58.9492596 49.4620374,58.9788889 49.3805556,58.9788889 L47.3138889,58.9788889 C47.232407,58.9788889 47.1620373,58.9492596 47.1027778,58.89 C47.0435182,58.8307404 47.0138889,58.7603708 47.0138889,58.6788889 L47.0138889,51.5011111 C47.0138889,51.4196292 47.0435182,51.3492596 47.1027778,51.29 C47.1620373,51.2307404 47.232407,51.2011111 47.3138889,51.2011111 L49.1138889,51.2011111 C49.2916676,51.2011111 49.4361106,51.2751844 49.5472222,51.4233333 L51.9694444,54.7677778 L51.9694444,51.5011111 C51.9694444,51.4196292 51.9990738,51.3492596 52.0583333,51.29 C52.1175929,51.2307404 52.1879626,51.2011111 52.2694444,51.2011111 Z M64.4361111,54.4122222 L64.4361111,55.7677778 C64.4361111,56.5307446 64.2509278,57.1677752 63.8805556,57.6788889 C63.5101833,58.1900026 63.025003,58.5529619 62.425,58.7677778 C61.824997,58.9825937 61.1175967,59.09 60.3027778,59.09 C59.4879589,59.09 58.7805586,58.9825937 58.1805556,58.7677778 C57.5805526,58.5529619 57.0953722,58.1900026 56.725,57.6788889 C56.3546278,57.1677752 56.1694444,56.5233372 56.1694444,55.7455556 L56.1694444,54.4344444 C56.1694444,53.3159203 56.5527739,52.4788917 57.3194444,51.9233333 C58.0861149,51.367775 59.0805494,51.09 60.3027778,51.09 C61.5250061,51.09 62.5194406,51.367775 63.2861111,51.9233333 C64.0527816,52.4788917 64.4361111,53.308513 64.4361111,54.4122222 Z M59.1694444,54.2011111 L59.1694444,55.9788889 C59.1694444,56.2825941 59.2712953,56.5159251 59.475,56.6788889 C59.6787047,56.8418527 59.9546279,56.9233333 60.3027778,56.9233333 C60.6509277,56.9233333 60.9268508,56.8400008 61.1305556,56.6733333 C61.3342603,56.5066658 61.4361111,56.271483 61.4361111,55.9677778 L61.4361111,54.2122222 C61.4361111,53.908517 61.3342603,53.6733342 61.1305556,53.5066667 C60.9268508,53.3399992 60.6509277,53.2566667 60.3027778,53.2566667 C59.9546279,53.2566667 59.6787047,53.3381473 59.475,53.5011111 C59.2712953,53.6640749 59.1694444,53.8974059 59.1694444,54.2011111 Z" id="ANNO" fill="#CEE1A4"></path>
                    <path d="M34.9267387,143.54047 L36.8515521,143.54047 C37.1047849,143.54047 37.2318072,143.666275 37.2318072,143.920726 C37.2318072,144.062357 37.1689048,144.173553 37.0414767,144.252282 L35.069588,145.915746 C34.6410401,146.217272 34.2693072,146.36702 33.9535777,146.36702 L31.291386,146.36702 C30.9740332,146.36702 30.6027062,146.217272 30.1741582,145.915746 L28.2030812,144.252282 C28.0748414,144.173553 28.011939,144.062357 28.011939,143.920726 C28.011939,143.666275 28.1389613,143.54047 28.3921942,143.54047 L30.3170075,143.54047 C30.6027062,143.54047 30.9196531,143.596068 31.2682541,143.706452 L32.6216702,144.22915 L33.9763038,143.706452 C34.3236873,143.596068 34.6410401,143.54047 34.9267387,143.54047 M39.5729938,155.128309 C40.6723654,155.916416 41.2242832,157.097763 41.2242832,158.673976 C41.2242832,160.24897 40.4227849,161.527309 38.8234408,162.50534 C37.2245024,163.484994 35.1012421,163.97401 32.4560949,163.97401 C29.8109476,163.97401 27.7550538,163.492299 26.2904425,162.527255 C24.8242079,161.561398 24.0921051,160.37234 24.0921051,158.959674 C24.0921051,158.614726 24.2735075,158.44144 24.6391531,158.44144 L29.5094219,158.44144 C29.8421959,158.44144 30.11085,158.539648 30.3170075,158.734443 C30.7597592,159.139047 31.5300092,159.341147 32.6216702,159.341147 C34.1276753,159.341147 34.8796634,159.119568 34.8796634,158.675193 C34.8796634,158.400452 34.6410401,158.182525 34.1666342,158.021414 C33.6918226,157.86152 32.7486925,157.704467 31.3384613,157.55066 C26.8557524,157.031208 24.6148038,155.371397 24.6148038,152.571631 C24.6148038,150.996636 25.3351377,149.722761 26.7770229,148.750818 C28.2176908,147.780092 30.147374,147.294323 32.5624202,147.294323 C34.9774664,147.294323 36.931499,147.81621 38.4204596,148.861202 C39.9082027,149.905787 40.652886,151.009623 40.652886,152.173114 C40.652886,152.329356 40.6021582,152.45516 40.4990795,152.549717 C40.3960007,152.644273 40.2568038,152.691349 40.0839236,152.691349 L34.9750315,152.691349 C34.6893329,152.691349 34.4438106,152.600445 34.2380589,152.421477 C33.8578038,152.09195 33.287624,151.927592 32.5275195,151.927592 C31.4654836,151.927592 30.9342627,152.141866 30.9342627,152.570414 C30.9342627,152.800109 31.1400144,152.979482 31.5527353,153.10894 C31.9642387,153.239614 32.7888688,153.372724 34.0237849,153.510703 C36.621451,153.801272 38.4711873,154.341421 39.5729938,155.128309" id="Fill-87" fill="#FFFFFF"></path>
                    <path d="M54.1977606,164.686958 C54.4980688,164.686958 54.6482229,164.845634 54.6482229,165.162581 C54.6482229,165.272965 54.609264,165.368333 54.5293171,165.44828 L52.2729473,167.349149 C52.1300979,167.459127 51.9073017,167.514725 51.6069935,167.514725 L48.4476699,167.514725 C48.1932195,167.514725 48.0674147,167.387703 48.0674147,167.134876 C48.0674147,167.007853 48.1059678,166.904774 48.1859147,166.826045 L49.5636801,165.138637 C49.7864764,164.86836 50.0794798,164.718612 50.4426904,164.686958 L54.1977606,164.686958 Z M61.8957966,163.119268 C61.958699,163.213824 61.9915705,163.325019 61.9915705,163.452042 C61.9915705,163.578252 61.9396253,163.6931 61.8365466,163.795773 C61.7322503,163.898852 61.6113154,163.950797 61.4684661,163.950797 L55.3381202,163.950797 C54.9724747,163.950797 54.6879935,163.823774 54.4822418,163.570947 L50.3481339,158.462055 L50.3481339,163.309192 C50.3481339,163.483696 50.2852315,163.63385 50.1582092,163.760872 C50.0307812,163.887894 49.8806271,163.950797 49.7065295,163.950797 L44.8106938,163.950797 C44.6365962,163.950797 44.4864421,163.887894 44.3606373,163.760872 C44.2336151,163.63385 44.1703068,163.483696 44.1703068,163.309192 L44.1703068,147.958978 C44.1703068,147.784881 44.2336151,147.634727 44.3606373,147.507704 C44.4864421,147.381494 44.6365962,147.317374 44.8106938,147.317374 L49.7065295,147.317374 C49.8806271,147.317374 50.0307812,147.381494 50.1582092,147.507704 C50.2852315,147.634727 50.3481339,147.784881 50.3481339,147.958978 L50.3481339,152.426266 L54.1019866,147.721978 C54.3406099,147.452918 54.6336134,147.317374 54.9822144,147.317374 L60.7083616,147.317374 C60.851211,147.317374 60.9721459,147.369725 61.0764421,147.472398 C61.1791151,147.575477 61.2310603,147.693977 61.2310603,147.828304 C61.2310603,147.963848 61.1900723,148.077884 61.1125603,148.173252 L55.4809695,155.039759 L61.8957966,163.119268 Z" id="Fill-89" fill="#FFFFFF"></path>
                    <path d="M79.6942937,152.188901 L75.3929872,152.188901 L75.3929872,159.079351 L79.6942937,159.079351 C79.8675796,159.079351 80.0185454,159.143877 80.1459735,159.269682 C80.2717783,159.396704 80.3346807,159.546858 80.3346807,159.721361 L80.3346807,163.309233 C80.3346807,163.483736 80.2717783,163.63389 80.1459735,163.760913 C80.0185454,163.887935 79.8675796,163.950837 79.6942937,163.950837 L64.6297783,163.950837 C64.4540574,163.950837 64.3043091,163.887935 64.1780985,163.760913 C64.0510762,163.63389 63.9881738,163.483736 63.9881738,163.309233 L63.9881738,159.721361 C63.9881738,159.546858 64.0510762,159.396704 64.1780985,159.269682 C64.3043091,159.143877 64.4540574,159.079351 64.6297783,159.079351 L68.9769426,159.079351 L68.9769426,152.188901 L64.6297783,152.188901 C64.4540574,152.188901 64.3043091,152.125998 64.1780985,151.998976 C64.0510762,151.871548 63.9881738,151.7218 63.9881738,151.547296 L63.9881738,147.959019 C63.9881738,147.784921 64.0510762,147.634767 64.1780985,147.507745 C64.3043091,147.381534 64.4540574,147.317414 64.6297783,147.317414 L79.6942937,147.317414 C79.8675796,147.317414 80.0185454,147.381534 80.1459735,147.507745 C80.2717783,147.634767 80.3346807,147.784921 80.3346807,147.959019 L80.3346807,151.547296 C80.3346807,151.7218 80.2717783,151.871548 80.1459735,151.998976 C80.0185454,152.125998 79.8675796,152.188901 79.6942937,152.188901" id="Fill-91" fill="#FFFFFF"></path>
                    <path d="M89.648943,151.737343 L89.648943,154.256685 L92.6195594,154.256685 C92.9685663,154.256685 93.2372204,154.141432 93.4283625,153.911736 C93.6170697,153.682853 93.7128437,153.393502 93.7128437,153.044901 C93.7128437,152.6963 93.6219396,152.391122 93.4393197,152.129367 C93.256294,151.868017 92.9839875,151.737343 92.6195594,151.737343 L89.648943,151.737343 Z M100.6037,163.213581 C100.634948,163.277701 100.650775,163.364952 100.650775,163.475336 C100.650775,163.586531 100.600047,163.693262 100.495751,163.795935 C100.394296,163.899014 100.27052,163.950959 100.127671,163.950959 L94.7347033,163.950959 C94.2586741,163.950959 93.9271176,163.752512 93.7359755,163.35643 L91.6463985,158.652142 L89.648943,158.652142 L89.648943,163.309355 C89.648943,163.483452 89.5860406,163.633606 89.4602358,163.761034 C89.3315902,163.888057 89.181842,163.950959 89.0073385,163.950959 L83.8757204,163.950959 C83.701217,163.950959 83.5498454,163.888057 83.4240406,163.761034 C83.2982358,163.633606 83.2341159,163.483452 83.2341159,163.309355 L83.2341159,147.959141 C83.2341159,147.784637 83.2982358,147.634483 83.4240406,147.507461 C83.5498454,147.381656 83.701217,147.317536 83.8757204,147.317536 L93.1183146,147.317536 C95.289056,147.317536 97.0069002,147.833336 98.2754995,148.862094 C99.5416639,149.892476 100.176369,151.294185 100.176369,153.067627 C100.176369,155.222541 99.343217,156.782927 97.6813762,157.749189 L100.6037,163.213581 Z" id="Fill-93" fill="#FFFFFF"></path>
                    <path d="M113.364445,156.845991 L111.678255,151.90308 L109.990442,156.845991 L113.364445,156.845991 Z M107.115599,163.951121 L102.62518,163.951121 C102.482331,163.951121 102.358961,163.89877 102.257505,163.796097 C102.153209,163.693019 102.102481,163.593998 102.102481,163.499442 C102.102481,163.403668 102.109786,163.332243 102.126425,163.285168 L107.305524,148.101746 C107.448373,147.579048 107.804279,147.317293 108.375677,147.317293 L114.980428,147.317293 C115.550608,147.317293 115.907731,147.579048 116.049363,148.101746 L121.22968,163.285168 C121.245507,163.332243 121.253623,163.403668 121.253623,163.499442 C121.253623,163.593998 121.201678,163.693019 121.099005,163.796097 C120.995927,163.89877 120.873774,163.951121 120.730925,163.951121 L116.239694,163.951121 C115.733634,163.951121 115.37651,163.680844 115.170759,163.142318 L114.57623,161.478854 L108.778658,161.478854 L108.184534,163.142318 C107.978377,163.680844 107.622471,163.951121 107.115599,163.951121 L107.115599,163.951121 Z" id="Fill-95" fill="#FFFFFF"></path>
                    <path d="M120.632959,147.317496 L137.027759,147.317496 C137.202262,147.317496 137.352417,147.381615 137.480656,147.50742 C137.606461,147.634848 137.669364,147.784597 137.669364,147.9591 L137.669364,151.784377 C137.669364,151.958881 137.606461,152.110252 137.480656,152.236057 C137.352417,152.363079 137.202262,152.425982 137.027759,152.425982 L131.919273,152.425982 L131.919273,163.309314 C131.919273,163.483817 131.85637,163.633972 131.730566,163.760994 C131.60192,163.888016 131.451766,163.950918 131.277668,163.950918 L126.38305,163.950918 C126.208953,163.950918 126.058798,163.888016 125.931776,163.760994 C125.805971,163.633972 125.741446,163.483817 125.741446,163.309314 L125.741446,152.425982 L120.632959,152.425982 C120.458456,152.425982 120.308708,152.363079 120.18128,152.236057 C120.055475,152.110252 119.992572,151.958881 119.992572,151.784377 L119.992572,147.9591 C119.992572,147.784597 120.055475,147.634848 120.18128,147.50742 C120.308708,147.381615 120.458456,147.317496 120.632959,147.317496" id="Fill-97" fill="#FFFFFF"></path>
                    <path d="M146.055105,159.079554 L154.158963,159.079554 C154.333061,159.079554 154.483215,159.143674 154.60902,159.269479 C154.736042,159.396907 154.800568,159.546655 154.800568,159.721158 L154.800568,163.309436 C154.800568,163.483533 154.736042,163.633688 154.60902,163.76071 C154.483215,163.888138 154.333061,163.95104 154.158963,163.95104 L140.281883,163.95104 C140.106162,163.95104 139.956008,163.888138 139.830203,163.76071 C139.703181,163.633688 139.640278,163.483533 139.640278,163.309436 L139.640278,147.959222 C139.640278,147.784718 139.703181,147.634564 139.830203,147.507542 C139.956008,147.381737 140.106162,147.317617 140.281883,147.317617 L145.413501,147.317617 C145.588004,147.317617 145.737753,147.381737 145.866398,147.507542 C145.992203,147.634564 146.055105,147.784718 146.055105,147.959222 L146.055105,159.079554 Z" id="Fill-99" fill="#FFFFFF"></path>
                    <path d="M162.997237,153.836497 L162.997237,157.432079 C162.997237,158.045682 163.213946,158.517653 163.649799,158.84718 C164.085651,159.176302 164.676122,159.341066 165.420805,159.341066 C166.165489,159.341066 166.754742,159.172649 167.190595,158.836223 C167.626448,158.498579 167.844374,158.02255 167.844374,157.408947 L167.844374,153.859629 C167.844374,153.24562 167.626448,152.769997 167.190595,152.433571 C166.754742,152.095521 166.165489,151.927511 165.420805,151.927511 C164.676122,151.927511 164.085651,152.091869 163.649799,152.421396 C163.213946,152.751735 162.997237,153.222894 162.997237,153.836497 M174.259201,154.221622 L174.259201,157.046954 C174.259201,158.638994 173.863525,159.966843 173.071766,161.032126 C172.27879,162.097408 171.242727,162.855483 169.959518,163.303105 C168.675903,163.749915 167.162999,163.973929 165.420805,163.973929 C163.677395,163.973929 162.165708,163.749915 160.882499,163.303105 C159.59929,162.855483 158.561603,162.097408 157.768627,161.032126 C156.976869,159.966843 156.58241,158.623167 156.58241,157.001096 L156.58241,154.26748 C156.58241,151.936033 157.400547,150.190187 159.039662,149.031566 C160.679994,147.87335 162.807312,147.294648 165.420805,147.294648 C168.034299,147.294648 170.1604,147.87335 171.800732,149.031566 C173.439847,150.190187 174.259201,151.920206 174.259201,154.221622" id="Fill-101" fill="#FFFFFF"></path>
                    <path d="M187.804279,147.317496 L192.222868,147.317496 C192.397371,147.317496 192.547525,147.381615 192.674547,147.50742 C192.80157,147.634848 192.864472,147.784597 192.864472,147.9591 L192.864472,163.309314 C192.864472,163.483817 192.80157,163.633972 192.674547,163.760994 C192.547525,163.888016 192.397371,163.950918 192.222868,163.950918 L188.39759,163.950918 C188.017335,163.950918 187.699982,163.78372 187.447155,163.452163 L182.267244,156.846194 L182.267244,163.309314 C182.267244,163.483817 182.203936,163.633972 182.076914,163.760994 C181.949892,163.888016 181.799738,163.950918 181.62564,163.950918 L177.206645,163.950918 C177.032547,163.950918 176.881176,163.888016 176.754154,163.760994 C176.628349,163.633972 176.565041,163.483817 176.565041,163.309314 L176.565041,147.9591 C176.565041,147.784597 176.628349,147.634848 176.754154,147.50742 C176.881176,147.381615 177.032547,147.317496 177.206645,147.317496 L181.05546,147.317496 C181.436527,147.317496 181.74414,147.476172 181.981546,147.793119 L187.162674,154.945324 L187.162674,147.9591 C187.162674,147.784597 187.225577,147.634848 187.351381,147.50742 C187.478809,147.381615 187.629775,147.317496 187.804279,147.317496" id="Fill-103" fill="#FFFFFF"></path>
                    <path d="M211.007309,155.128188 C212.106681,155.916294 212.658598,157.097641 212.658598,158.673854 C212.658598,160.248849 211.8571,161.527188 210.258162,162.505624 C208.658818,163.484873 206.535557,163.973888 203.89041,163.973888 C201.245263,163.973888 199.189775,163.492177 197.724758,162.527133 C196.258929,161.561277 195.52642,160.372624 195.52642,158.959552 C195.52642,158.614604 195.707823,158.441724 196.073468,158.441724 L200.943737,158.441724 C201.276511,158.441724 201.545571,158.539527 201.751323,158.734727 C202.194074,159.138926 202.964324,159.341025 204.055985,159.341025 C205.561991,159.341025 206.313979,159.119446 206.313979,158.675071 C206.313979,158.40033 206.075355,158.182403 205.600949,158.021292 C205.126138,157.861804 204.183414,157.704345 202.772777,157.550539 C198.290068,157.031087 196.049119,155.371681 196.049119,152.57151 C196.049119,150.996515 196.769453,149.723046 198.211338,148.750696 C199.652006,147.77997 201.581689,147.294607 203.996735,147.294607 C206.411782,147.294607 208.365814,147.816088 209.854775,148.86108 C211.342518,149.905665 212.087201,151.009907 212.087201,152.172992 C212.087201,152.329234 212.036473,152.455039 211.933395,152.549595 C211.830316,152.644152 211.691119,152.691227 211.518239,152.691227 L206.409347,152.691227 C206.123648,152.691227 205.878126,152.600323 205.672374,152.421355 C205.292119,152.092234 204.721939,151.92747 203.961835,151.92747 C202.900205,151.92747 202.368578,152.141744 202.368578,152.570292 C202.368578,152.800393 202.57433,152.979361 202.987051,153.108818 C203.39896,153.239492 204.223184,153.373008 205.4581,153.510987 C208.055766,153.801556 209.905503,154.341299 211.007309,155.128188" id="Fill-105" fill="#FFFFFF"></path>
                    <path d="M49.6137586,131.182868 C49.0261284,131.182868 48.625988,130.881343 48.4149606,130.277885 L43.8003596,116.13905 C43.7695171,116.033536 43.7508493,115.965764 43.7439503,115.935327 C43.7354281,115.905296 43.7321815,115.875266 43.7321815,115.844829 C43.7321815,115.708879 43.7808801,115.592408 43.879089,115.493793 C43.9772979,115.396396 44.0945805,115.347291 44.2297192,115.347291 L47.0802123,115.347291 C47.3821438,115.347291 47.5968236,115.411411 47.7250634,115.539245 C47.8533031,115.667485 47.9320325,115.792478 47.9624692,115.912601 L51.1071832,125.866601 L54.2514914,115.912601 C54.2819281,115.792478 54.3606575,115.667485 54.4888973,115.539245 C54.617137,115.411411 54.8318168,115.347291 55.1337483,115.347291 L57.9842414,115.347291 C58.1201918,115.347291 58.2366627,115.396396 58.3348716,115.493793 C58.4330805,115.592408 58.4821849,115.708879 58.4821849,115.844829 C58.4821849,115.875266 58.4785325,115.905296 58.4708219,115.935327 C58.4631113,115.965764 58.4444435,116.033536 58.4144127,116.13905 L53.799,130.277885 C53.5879726,130.881343 53.1886438,131.182868 52.6002021,131.182868 L49.6137586,131.182868 Z" id="Fill-107" fill="#CFE1A5"></path>
                    <path d="M61.1744481,131.182868 C61.0080611,131.182868 60.864806,131.122807 60.7442769,131.001872 C60.6237478,130.881343 60.5632803,130.738088 60.5632803,130.572106 L60.5632803,115.957647 C60.5632803,115.792478 60.6237478,115.649223 60.7442769,115.528288 C60.864806,115.407759 61.0080611,115.347291 61.1744481,115.347291 L64.1381656,115.347291 C64.3037409,115.347291 64.4465902,115.407759 64.5671193,115.528288 C64.6880543,115.649223 64.7485217,115.792478 64.7485217,115.957647 L64.7485217,130.572106 C64.7485217,130.738088 64.6880543,130.881343 64.5671193,131.001872 C64.4465902,131.122807 64.3037409,131.182868 64.1381656,131.182868 L61.1744481,131.182868 Z" id="Fill-109" fill="#CFE1A5"></path>
                    <path d="M73.797336,115.120761 C74.7627863,115.120761 75.6486955,115.260364 76.4554695,115.539164 C77.2618377,115.818775 77.9598514,116.17671 78.5478873,116.614186 C79.1363291,117.051662 79.5961253,117.534184 79.9280877,118.061753 C80.2596442,118.590133 80.433336,119.094976 80.4487572,119.577498 C80.4487572,119.713042 80.3992469,119.830325 80.3014438,119.928128 C80.2032349,120.026337 80.093663,120.075035 79.9731339,120.075035 L77.0098223,120.075035 C76.798389,120.075035 76.6283497,120.04541 76.5009216,119.984537 C76.3726818,119.924476 76.2403839,119.833977 76.1048394,119.713042 C76.0597932,119.667996 75.9879627,119.592513 75.8897538,119.486999 C75.7915449,119.381892 75.6527538,119.27232 75.4713514,119.159095 C75.2903548,119.045871 75.064312,118.947662 74.7924113,118.864874 C74.5213223,118.782493 74.1889541,118.740693 73.797336,118.740693 C73.5108257,118.740693 73.2356784,118.759767 72.9714884,118.797102 C72.7072983,118.834844 72.4739507,118.895311 72.2702281,118.978099 C72.0669113,119.061292 71.9009301,119.178169 71.7726904,119.328729 C71.6444507,119.479695 71.5803308,119.667996 71.5803308,119.894445 C71.5803308,120.120488 71.6521613,120.309195 71.7950106,120.459755 C71.9386716,120.61072 72.1797298,120.750323 72.5189969,120.878563 C72.8586699,121.006803 73.3075089,121.130984 73.8651082,121.251513 C74.4231134,121.372448 75.116663,121.515297 75.946163,121.681279 C76.775663,121.847666 77.4996493,122.058287 78.1177161,122.314767 C78.7361887,122.571246 79.2523942,122.891845 79.6679558,123.276565 C80.0827058,123.660878 80.3919421,124.113369 80.5956647,124.633633 C80.7989815,125.153897 80.9008428,125.768717 80.9008428,126.477282 C80.9008428,127.24672 80.727151,127.932965 80.3801733,128.536017 C80.0331955,129.139474 79.5466151,129.655679 78.9216493,130.085851 C78.2954661,130.515616 77.5560586,130.84352 76.7042384,131.069563 C75.8520123,131.296011 74.9210568,131.409236 73.9101545,131.409236 C72.8842366,131.409236 71.9496288,131.273285 71.1051134,131.002196 C70.2601921,130.730702 69.5333651,130.372361 68.9221973,129.927174 C68.3114353,129.482799 67.8325654,128.981203 67.4855877,128.422792 C67.1386099,127.865193 66.9572075,127.299477 66.9425979,126.726051 C66.9425979,126.590506 66.9912966,126.47363 67.0895055,126.375421 C67.1881202,126.277618 67.2964747,126.228513 67.4178154,126.228513 L70.3815329,126.228513 C70.5925603,126.228513 70.7577298,126.254892 70.8790705,126.308054 C70.9995997,126.360811 71.1201288,126.439946 71.2406579,126.545054 C71.3007195,126.605928 71.3912178,126.703731 71.5125586,126.839275 C71.6330877,126.975226 71.7950106,127.114828 71.999139,127.257678 C72.2024558,127.401339 72.4585295,127.525926 72.7677658,127.631034 C73.0765962,127.736547 73.4580688,127.78971 73.9101545,127.78971 C74.7096236,127.78971 75.3767949,127.702864 75.9124798,127.529172 C76.4477589,127.356292 76.7156014,127.042998 76.7156014,126.590506 C76.7156014,126.364464 76.6173925,126.175756 76.4213805,126.024791 C76.2257743,125.874231 75.9315534,125.734628 75.5391236,125.606388 C75.1466938,125.478554 74.6455038,125.353967 74.0351476,125.233032 C73.423574,125.112503 72.7036459,124.961537 71.8745517,124.780946 C70.3206596,124.448984 69.1859815,123.895037 68.4697058,123.117888 C67.7530243,122.341551 67.3950894,121.304676 67.3950894,120.007263 C67.3950894,119.359166 67.5419969,118.740693 67.8362178,118.152251 C68.1304387,117.563809 68.5561459,117.043546 69.1145568,116.59146 C69.6717503,116.138969 70.3474438,115.780628 71.1392024,115.516438 C71.930961,115.253059 72.8168702,115.120761 73.797336,115.120761" id="Fill-111" fill="#CFE1A5"></path>
                    <path d="M94.2479604,127.56314 C94.4139416,127.56314 94.5576026,127.623607 94.6781317,127.744542 C94.7986608,127.865477 94.8591283,128.008326 94.8591283,128.173902 L94.8591283,130.571903 C94.8591283,130.73829 94.7986608,130.881546 94.6781317,131.002075 C94.5576026,131.12301 94.4139416,131.182665 94.2479604,131.182665 L83.7736967,131.182665 C83.6081214,131.182665 83.4644604,131.12301 83.3439313,131.002075 C83.2234022,130.881546 83.1633406,130.73829 83.1633406,130.571903 L83.1633406,115.95785 C83.1633406,115.792275 83.2234022,115.64902 83.3439313,115.528085 C83.4644604,115.407556 83.6081214,115.347088 83.7736967,115.347088 L86.7374142,115.347088 C86.9033954,115.347088 87.0462447,115.407556 87.1675854,115.528085 C87.2881146,115.64902 87.348582,115.792275 87.348582,115.95785 L87.348582,127.56314 L94.2479604,127.56314 Z" id="Fill-113" fill="#CFE1A5"></path>
                    <path d="M101.509738,125.233154 L105.17431,125.233154 L103.342024,119.803662 L101.509738,125.233154 Z M105.17431,115.347332 C105.476241,115.347332 105.706342,115.43012 105.864613,115.596101 C106.023289,115.762082 106.132049,115.927657 106.192517,116.093638 L111.124471,130.345698 C111.184532,130.496664 111.214969,130.609888 111.214969,130.685371 C111.214969,130.820916 111.165459,130.937792 111.068061,131.036001 C110.969853,131.13421 110.85257,131.182909 110.717431,131.182909 L107.866938,131.182909 C107.565007,131.182909 107.349515,131.118789 107.222087,130.990549 C107.093847,130.862715 107.014306,130.738128 106.984276,130.617193 L106.350788,128.739455 L100.33326,128.739455 L99.6997721,130.617193 C99.6697413,130.738128 99.5902002,130.862715 99.4627721,130.990549 C99.3345324,131.118789 99.1190409,131.182909 98.8179211,131.182909 L95.9674279,131.182909 C95.8314776,131.182909 95.7146009,131.13421 95.6167978,131.036001 C95.5185889,130.937792 95.4698902,130.820916 95.4698902,130.685371 C95.4698902,130.609888 95.4999211,130.496664 95.5603885,130.345698 L100.492342,116.093638 C100.551998,115.927657 100.66157,115.762082 100.819841,115.596101 C100.978111,115.43012 101.207806,115.347332 101.509738,115.347332 L105.17431,115.347332 Z" id="Fill-115" fill="#CFE1A5"></path>
                    <path d="M123.09151,115.347291 C123.257491,115.347291 123.401152,115.407759 123.521681,115.528288 C123.64221,115.649223 123.702678,115.792478 123.702678,115.957647 L123.702678,118.355649 C123.702678,118.522036 123.64221,118.665291 123.521681,118.78582 C123.401152,118.906755 123.257491,118.966817 123.09151,118.966817 L119.110397,118.966817 L119.110397,130.572106 C119.110397,130.738088 119.049929,130.881343 118.928994,131.001872 C118.808465,131.122807 118.66521,131.182868 118.499229,131.182868 L115.535511,131.182868 C115.369936,131.182868 115.226681,131.122807 115.106152,131.001872 C114.984811,130.881343 114.925155,130.738088 114.925155,130.572106 L114.925155,118.966817 L110.943231,118.966817 C110.777249,118.966817 110.6344,118.906755 110.513871,118.78582 C110.39253,118.665291 110.332874,118.522036 110.332874,118.355649 L110.332874,115.957647 C110.332874,115.792478 110.39253,115.649223 110.513871,115.528288 C110.6344,115.407759 110.777249,115.347291 110.943231,115.347291 L123.09151,115.347291 Z" id="Fill-117" fill="#CFE1A5"></path>
                    <path d="M130.534487,131.182868 C129.946045,131.182868 129.54631,130.881343 129.335689,130.277885 L124.720276,116.13905 C124.690245,116.033536 124.671577,115.965764 124.663867,115.935327 C124.656156,115.905296 124.65291,115.875266 124.65291,115.844829 C124.65291,115.708879 124.701608,115.592408 124.799817,115.493793 C124.897214,115.396396 125.014497,115.347291 125.150447,115.347291 L128.00094,115.347291 C128.30206,115.347291 128.517552,115.411411 128.645791,115.539245 C128.77322,115.667485 128.852761,115.792478 128.883197,115.912601 L132.027505,125.866601 L135.17222,115.912601 C135.20225,115.792478 135.281386,115.667485 135.409625,115.539245 C135.537459,115.411411 135.752545,115.347291 136.054476,115.347291 L138.90497,115.347291 C139.040514,115.347291 139.157391,115.396396 139.2556,115.493793 C139.353403,115.592408 139.402913,115.708879 139.402913,115.844829 C139.402913,115.875266 139.398449,115.905296 139.390738,115.935327 C139.383434,115.965764 139.36436,116.033536 139.334329,116.13905 L134.719728,130.277885 C134.507889,130.881343 134.10856,131.182868 133.520118,131.182868 L130.534487,131.182868 Z" id="Fill-119" fill="#CFE1A5"></path>
                    <path d="M142.094486,131.182868 C141.928099,131.182868 141.784844,131.122807 141.664315,131.001872 C141.543786,130.881343 141.483318,130.738088 141.483318,130.572106 L141.483318,115.957647 C141.483318,115.792478 141.543786,115.649223 141.664315,115.528288 C141.784844,115.407759 141.928099,115.347291 142.094486,115.347291 L145.058204,115.347291 C145.223779,115.347291 145.366628,115.407759 145.487158,115.528288 C145.608092,115.649223 145.66856,115.792478 145.66856,115.957647 L145.66856,130.572106 C145.66856,130.738088 145.608092,130.881343 145.487158,131.001872 C145.366628,131.122807 145.223779,131.182868 145.058204,131.182868 L142.094486,131.182868 Z" id="Fill-121" fill="#CFE1A5"></path>
                    <path d="M161.301023,125.414029 C161.301023,126.40951 161.119621,127.280404 160.758033,128.027116 C160.395634,128.773422 159.905807,129.399606 159.287335,129.904448 C158.668456,130.410102 157.952586,130.787111 157.138102,131.03588 C156.324023,131.284648 155.464492,131.409236 154.559104,131.409236 C153.578638,131.409236 152.681366,131.280996 151.867287,131.024517 C151.052802,130.768037 150.347484,130.410102 149.752143,129.9499 C149.156396,129.490104 148.688484,128.932099 148.349217,128.275885 C148.010355,127.620077 147.832605,126.884727 147.817996,126.070243 C147.817996,125.934292 147.866694,125.817821 147.965309,125.719612 C148.062706,125.621809 148.179989,125.572705 148.315533,125.572705 L151.211073,125.572705 C151.497177,125.572705 151.68629,125.617751 151.776789,125.708249 C151.867287,125.798748 151.958191,125.97244 152.047878,126.228513 C152.22928,126.741472 152.512138,127.129844 152.896857,127.393628 C153.280765,127.657412 153.835929,127.78971 154.559104,127.78971 C155.419446,127.78971 156.063891,127.574624 156.493251,127.144453 C156.923422,126.715094 157.138102,126.092969 157.138102,125.278484 L157.138102,118.966736 L149.401513,118.966736 C149.235126,118.966736 149.092277,118.906674 148.971747,118.785739 C148.850812,118.66521 148.790345,118.521955 148.790345,118.355974 L148.790345,115.957972 C148.790345,115.792397 148.850812,115.649142 148.971747,115.528207 C149.092277,115.407678 149.235126,115.34721 149.401513,115.34721 L160.689855,115.34721 C160.855836,115.34721 160.999092,115.407678 161.119621,115.528207 C161.240556,115.649142 161.301023,115.792397 161.301023,115.957972 L161.301023,125.414029 Z" id="Fill-123" fill="#CFE1A5"></path>
                    <path d="M168.60809,125.233154 L172.272662,125.233154 L170.440376,119.803662 L168.60809,125.233154 Z M172.272662,115.347332 C172.573782,115.347332 172.804695,115.43012 172.962965,115.596101 C173.12083,115.762082 173.230402,115.927657 173.290464,116.093638 L178.222011,130.345698 C178.282885,130.496664 178.312916,130.609888 178.312916,130.685371 C178.312916,130.820916 178.263811,130.937792 178.165602,131.036001 C178.067393,131.13421 177.950922,131.182909 177.814972,131.182909 L174.964479,131.182909 C174.662547,131.182909 174.447868,131.118789 174.319628,130.990549 C174.191388,130.862715 174.112659,130.738128 174.082628,130.617193 L173.44914,128.739455 L167.431612,128.739455 L166.798124,130.617193 C166.767282,130.738128 166.688553,130.862715 166.560313,130.990549 C166.432073,131.118789 166.217393,131.182909 165.915868,131.182909 L163.064969,131.182909 C162.92983,131.182909 162.812547,131.13421 162.714339,131.036001 C162.61613,130.937792 162.567431,130.820916 162.567431,130.685371 C162.567431,130.609888 162.597462,130.496664 162.657929,130.345698 L167.589883,116.093638 C167.649945,115.927657 167.759111,115.762082 167.918193,115.596101 C168.076464,115.43012 168.306159,115.347332 168.60809,115.347332 L172.272662,115.347332 Z" id="Fill-125" fill="#CFE1A5"></path>
                    <path d="M185.73341,115.120761 C186.69886,115.120761 187.58477,115.260364 188.391543,115.539164 C189.197912,115.818775 189.895925,116.17671 190.483961,116.614186 C191.072403,117.051662 191.532199,117.534184 191.864162,118.061753 C192.195718,118.590133 192.36941,119.094976 192.384831,119.577498 C192.384831,119.713042 192.335321,119.830325 192.237518,119.928128 C192.139309,120.026337 192.029737,120.075035 191.909208,120.075035 L188.945896,120.075035 C188.734463,120.075035 188.564424,120.04541 188.436996,119.984537 C188.308756,119.924476 188.176458,119.833977 188.040913,119.713042 C187.995867,119.667996 187.924037,119.592513 187.825828,119.486999 C187.727619,119.381892 187.588828,119.27232 187.407425,119.159095 C187.226429,119.045871 187.000386,118.947662 186.728891,118.864874 C186.457396,118.782493 186.125028,118.740693 185.73341,118.740693 C185.4469,118.740693 185.171752,118.759767 184.907562,118.797102 C184.643372,118.834844 184.410025,118.895311 184.206302,118.978099 C184.002985,119.061292 183.837004,119.178169 183.708764,119.328729 C183.580525,119.479695 183.516405,119.667996 183.516405,119.894445 C183.516405,120.120488 183.588235,120.309195 183.731085,120.459755 C183.874746,120.61072 184.115804,120.750323 184.455071,120.878563 C184.794744,121.006803 185.243583,121.130984 185.801182,121.251513 C186.359187,121.372448 187.052737,121.515297 187.882237,121.681279 C188.711737,121.847666 189.435723,122.058287 190.05379,122.314767 C190.672263,122.571246 191.188468,122.891845 191.60403,123.276565 C192.01878,123.660878 192.328016,124.113369 192.531739,124.633633 C192.735055,125.153897 192.836917,125.768717 192.836917,126.477282 C192.836917,127.24672 192.663225,127.932965 192.316247,128.536017 C191.96927,129.139474 191.482689,129.655679 190.857723,130.085851 C190.23154,130.515616 189.492133,130.84352 188.640312,131.069563 C187.788086,131.296011 186.857131,131.409236 185.846228,131.409236 C184.820311,131.409236 183.885703,131.273285 183.041187,131.002196 C182.196266,130.730702 181.469439,130.372361 180.858271,129.927174 C180.247509,129.482799 179.768639,128.981203 179.421662,128.422792 C179.074684,127.865193 178.893282,127.299477 178.878672,126.726051 C178.878672,126.590506 178.927371,126.47363 179.025579,126.375421 C179.124194,126.277618 179.232549,126.228513 179.353889,126.228513 L182.317607,126.228513 C182.528634,126.228513 182.693804,126.254892 182.815145,126.308054 C182.935674,126.360811 183.056203,126.439946 183.176732,126.545054 C183.236793,126.605928 183.327292,126.703731 183.448633,126.839275 C183.569162,126.975226 183.731085,127.114828 183.935213,127.257678 C184.138936,127.401339 184.394603,127.525926 184.70384,127.631034 C185.01267,127.736547 185.394143,127.78971 185.846228,127.78971 C186.645698,127.78971 187.312869,127.702864 187.848554,127.529172 C188.383833,127.356292 188.651675,127.042998 188.651675,126.590506 C188.651675,126.364464 188.553466,126.175756 188.357454,126.024791 C188.161848,125.874231 187.867627,125.734628 187.475198,125.606388 C187.082768,125.478554 186.581578,125.353967 185.971222,125.233032 C185.359648,125.112503 184.63972,124.961537 183.810626,124.780946 C182.256734,124.448984 181.122055,123.895037 180.40578,123.117888 C179.689098,122.341551 179.331163,121.304676 179.331163,120.007263 C179.331163,119.359166 179.478071,118.740693 179.772292,118.152251 C180.066513,117.563809 180.49222,117.043546 181.050631,116.59146 C181.60823,116.138969 182.283518,115.780628 183.075276,115.516438 C183.867035,115.253059 184.752944,115.120761 185.73341,115.120761" id="Fill-127" fill="#CFE1A5"></path>
                    <path d="M118.375047,90.777412 C95.3158402,90.777412 76.5550988,72.0170764 76.5550988,48.9570575 C76.5550988,25.8974445 95.3158402,7.1371089 118.375047,7.1371089 C141.435066,7.1371089 160.195402,25.8974445 160.195402,48.9570575 C160.195402,72.0170764 141.435066,90.777412 118.375047,90.777412" id="Fill-129" fill="#FFFFFF"></path>
                    <path d="M118.37525,14.3329808 C99.2529216,14.3329808 83.7509301,29.8349723 83.7509301,48.957301 C83.7509301,67.0305801 97.5991973,81.8670236 115.263002,83.4412068 C99.5199524,80.0343318 89.4653086,64.6853353 92.3945312,48.9698815 C94.7714301,36.2148986 105.303726,26.3315116 118.37525,24.9334551 L118.37525,16.9793455 C126.611406,20.3675527 133.277843,26.8253969 136.932269,34.9430527 C133.274596,43.0667959 126.601666,49.520176 118.37525,52.904325 L118.37525,45.0358438 C110.148834,48.4199928 103.475904,54.8733729 99.8182315,62.9971161 C103.472658,71.1147719 110.139095,77.5726161 118.37525,80.9608233 L118.37525,73.0067137 C133.483189,71.3907308 144.860406,58.587861 144.860406,43.5022428 C144.860406,29.2051366 134.748947,17.2719432 121.29311,14.4563507 C120.330906,14.3755921 119.358151,14.3329808 118.37525,14.3329808" id="Fill-131" fill="#D8E4A7"></path>
                    <path d="M115.272742,83.4431954 C116.294196,83.535317 117.329447,83.5815807 118.37525,83.5815807 C137.497985,83.5815807 152.999571,68.079995 152.999571,48.9572604 C152.999571,30.8162091 139.048225,15.9339077 121.284182,14.4546868 C134.744483,17.2666269 144.860406,29.2018495 144.860406,43.5022022 C144.860406,58.5878204 133.483189,71.3906902 118.37525,73.0066731 L118.37525,80.9607827 C110.139095,77.5725755 103.472658,71.1147313 99.8182315,62.9970755 C103.475904,54.8733324 110.148834,48.4199522 118.37525,45.0358033 L118.37525,52.9042844 C126.601666,49.5201354 133.274596,43.0667553 136.932269,34.943418 C133.277843,26.8253563 126.611406,20.3675122 118.37525,16.979305 L118.37525,24.9334146 C105.303726,26.3314711 94.7714301,36.214858 92.3945312,48.9698409 C89.4644969,64.6885413 99.5240106,80.0407844 115.272742,83.4431954" id="Fill-133" fill="#005238"></path>
                </g>
            </g>
        </g>
    </g>
</svg>