<?xml version="1.0" encoding="UTF-8"?>
<svg width="251px" height="56px" viewBox="0 0 251 56" version="1.1" xmlns="http://www.w3.org/2000/svg" xmlns:xlink="http://www.w3.org/1999/xlink">
    <defs></defs>
    <g id="Desktop" stroke="none" stroke-width="1" fill="none" fill-rule="evenodd">
        <g id="01-index" transform="translate(-1039.000000, -7623.000000)">
            <g id="questions" transform="translate(150.000000, 6580.000000)">
                <g id="zalais-logo" transform="translate(889.000000, 1042.000000)">
                    <polygon id="Fill-1" fill="#00573D" points="80.426 31.8821 64.938 31.8821 64.938 33.0661 78.082 33.0661 64.317 49.8481 64.317 50.2531 80.534 50.2531 80.534 49.0661 66.661 49.0661 80.426 32.3941"></polygon>
                    <polygon id="Stroke-2" stroke="#00573D" stroke-width="0.238" points="80.426 31.8821 64.938 31.8821 64.938 33.0661 78.082 33.0661 64.317 49.8481 64.317 50.2531 80.534 50.2531 80.534 49.0661 66.661 49.0661 80.426 32.3941"></polygon>
                    <path d="M94.1052,42.7082 L86.2122,42.7082 L90.1472,34.0652 L94.1052,42.7082 Z M90.5512,31.7472 L89.7702,31.7472 L81.2842,50.2532 L82.7652,50.2532 L85.6742,43.8972 L94.6442,43.8972 L97.5552,50.2532 L99.0362,50.2532 L90.5512,31.7472 Z" id="Fill-3" fill="#00573D"></path>
                    <path d="M94.1052,42.7082 L86.2122,42.7082 L90.1472,34.0652 L94.1052,42.7082 Z M90.5512,31.7472 L89.7702,31.7472 L81.2842,50.2532 L82.7652,50.2532 L85.6742,43.8972 L94.6442,43.8972 L97.5552,50.2532 L99.0362,50.2532 L90.5512,31.7472 Z" id="Stroke-4" stroke="#00573D" stroke-width="0.238"></path>
                    <g id="Group-50" transform="translate(0.000000, 0.781100)">
                        <path d="M107.0641,50.6556 L105.4751,50.6556 L105.4751,52.9466 L105.9841,52.9466 L105.9841,53.1366 C105.9601,53.8346 105.8511,54.3466 105.4751,54.9656 L105.4751,55.7736 C105.9051,55.4776 106.1751,55.1796 106.5001,54.6166 C106.8761,53.9426 107.0641,53.1896 107.0641,52.0556 L107.0641,50.6556 Z M102.7001,31.1006 L101.2731,31.1006 L101.2731,49.4716 L111.7781,49.4716 L111.7781,48.2846 L102.7001,48.2846 L102.7001,31.1006 Z" id="Fill-5" fill="#00573D"></path>
                        <path d="M107.0641,50.6556 L105.4751,50.6556 L105.4751,52.9466 L105.9841,52.9466 L105.9841,53.1366 C105.9601,53.8346 105.8511,54.3466 105.4751,54.9656 L105.4751,55.7736 C105.9051,55.4776 106.1751,55.1796 106.5001,54.6166 C106.8761,53.9426 107.0641,53.1896 107.0641,52.0556 L107.0641,50.6556 Z M102.7001,31.1006 L101.2731,31.1006 L101.2731,49.4716 L111.7781,49.4716 L111.7781,48.2846 L102.7001,48.2846 L102.7001,31.1006 Z" id="Stroke-7" stroke="#00573D" stroke-width="0.238"></path>
                        <path d="M124.7057,41.9271 L116.8147,41.9271 L120.7477,33.2841 L124.7057,41.9271 Z M121.1517,30.9661 L120.3707,30.9661 L111.8837,49.4721 L113.3677,49.4721 L116.2747,43.1161 L125.2447,43.1161 L128.1527,49.4721 L129.6337,49.4721 L121.1517,30.9661 Z" id="Fill-9" fill="#00573D"></path>
                        <path d="M124.7057,41.9271 L116.8147,41.9271 L120.7477,33.2841 L124.7057,41.9271 Z M121.1517,30.9661 L120.3707,30.9661 L111.8837,49.4721 L113.3677,49.4721 L116.2747,43.1161 L125.2447,43.1161 L128.1527,49.4721 L129.6337,49.4721 L121.1517,30.9661 Z" id="Stroke-11" stroke="#00573D" stroke-width="0.238"></path>
                        <polygon id="Fill-13" fill="#00573D" points="131.848 49.472 133.273 49.472 133.273 31.101 131.848 31.101"></polygon>
                        <polygon id="Stroke-15" stroke="#00573D" stroke-width="0.238" points="131.848 49.472 133.273 49.472 133.273 31.101 131.848 31.101"></polygon>
                        <path d="M146.0871,32.0175 C144.6571,31.2355 143.2591,30.8605 141.8301,30.8605 C138.9231,30.8605 136.6031,33.0145 136.6031,35.7335 C136.6031,36.9725 137.0891,38.1035 138.0041,38.9945 C138.7061,39.6125 139.7291,40.1515 141.5631,40.7965 C142.8821,41.2825 143.7981,41.7685 144.2841,42.2525 C144.9301,42.9265 145.3051,43.8435 145.3051,44.7305 C145.3051,46.8055 143.6081,48.3935 141.4261,48.3935 C140.0011,48.3935 138.8411,47.9095 136.7961,46.4275 L136.7961,48.0975 C138.4131,49.1755 140.0011,49.7125 141.5071,49.7125 C144.4961,49.7125 146.8401,47.5055 146.8401,44.6755 C146.8401,43.3855 146.4091,42.2785 145.6041,41.3915 C144.9011,40.6905 143.7701,40.0435 142.1281,39.4795 C140.6191,38.9385 139.7051,38.5075 139.2191,38.1035 C138.4661,37.4585 138.0621,36.6495 138.0621,35.6805 C138.0621,33.6855 139.7551,32.1765 141.9651,32.1765 C143.2351,32.1765 144.2021,32.5015 146.0871,33.5795 L146.0871,32.0175 Z" id="Fill-16" fill="#00573D"></path>
                        <path d="M146.0871,32.0175 C144.6571,31.2355 143.2591,30.8605 141.8301,30.8605 C138.9231,30.8605 136.6031,33.0145 136.6031,35.7335 C136.6031,36.9725 137.0891,38.1035 138.0041,38.9945 C138.7061,39.6125 139.7291,40.1515 141.5631,40.7965 C142.8821,41.2825 143.7981,41.7685 144.2841,42.2525 C144.9301,42.9265 145.3051,43.8435 145.3051,44.7305 C145.3051,46.8055 143.6081,48.3935 141.4261,48.3935 C140.0011,48.3935 138.8411,47.9095 136.7961,46.4275 L136.7961,48.0975 C138.4131,49.1755 140.0011,49.7125 141.5071,49.7125 C144.4961,49.7125 146.8401,47.5055 146.8401,44.6755 C146.8401,43.3855 146.4091,42.2785 145.6041,41.3915 C144.9011,40.6905 143.7701,40.0435 142.1281,39.4795 C140.6191,38.9385 139.7051,38.5075 139.2191,38.1035 C138.4661,37.4585 138.0621,36.6495 138.0621,35.6805 C138.0621,33.6855 139.7551,32.1765 141.9651,32.1765 C143.2351,32.1765 144.2021,32.5015 146.0871,33.5795 L146.0871,32.0175 Z" id="Stroke-17" stroke="#00573D" stroke-width="0.238"></path>
                        <path d="M158.9836,32.2846 L161.3556,32.2846 L162.6216,32.2846 C163.5936,32.3406 164.2926,32.4486 164.8016,32.6096 C166.2316,33.1486 167.0926,34.3876 167.0926,35.9756 C167.0926,37.4316 166.3666,38.6426 165.1246,39.2076 C164.3156,39.5856 163.5386,39.6946 161.3556,39.6946 L158.9836,39.6946 L158.9836,32.2846 Z M157.5586,31.1006 L157.5586,49.4716 L158.9836,49.4716 L158.9836,40.8786 L161.5196,40.8786 C164.1296,40.8786 165.0466,40.7186 166.2316,40.1246 C167.7136,39.3696 168.6286,37.7546 168.6286,35.9496 C168.6286,34.2246 167.8216,32.7446 166.4476,31.9626 C165.4516,31.3966 164.2646,31.1276 162.5406,31.1006 L161.3276,31.1006 L157.5586,31.1006 Z" id="Fill-18" fill="#00573D"></path>
                        <path d="M158.9836,32.2846 L161.3556,32.2846 L162.6216,32.2846 C163.5936,32.3406 164.2926,32.4486 164.8016,32.6096 C166.2316,33.1486 167.0926,34.3876 167.0926,35.9756 C167.0926,37.4316 166.3666,38.6426 165.1246,39.2076 C164.3156,39.5856 163.5386,39.6946 161.3556,39.6946 L158.9836,39.6946 L158.9836,32.2846 Z M157.5586,31.1006 L157.5586,49.4716 L158.9836,49.4716 L158.9836,40.8786 L161.5196,40.8786 C164.1296,40.8786 165.0466,40.7186 166.2316,40.1246 C167.7136,39.3696 168.6286,37.7546 168.6286,35.9496 C168.6286,34.2246 167.8216,32.7446 166.4476,31.9626 C165.4516,31.3966 164.2646,31.1276 162.5406,31.1006 L161.3276,31.1006 L157.5586,31.1006 Z" id="Stroke-19" stroke="#00573D" stroke-width="0.238"></path>
                        <path d="M184.8664,31.101 L184.8664,40.638 C184.8664,43.248 184.6504,44.247 183.8424,45.539 C182.7134,47.397 180.8794,48.393 178.5914,48.393 C176.3004,48.393 174.4714,47.397 173.3404,45.539 C172.5574,44.247 172.3414,43.248 172.3414,40.638 L172.3414,31.101 L170.9144,31.101 L170.9144,40.366 C170.9144,43.439 171.2104,44.866 172.2094,46.401 C173.5804,48.531 175.8694,49.712 178.5914,49.712 C181.3394,49.712 183.6004,48.531 184.9724,46.401 C185.9694,44.866 186.2914,43.41 186.2914,40.339 L186.2914,31.101 L184.8664,31.101 Z" id="Fill-20" fill="#00573D"></path>
                        <path d="M184.8664,31.101 L184.8664,40.638 C184.8664,43.248 184.6504,44.247 183.8424,45.539 C182.7134,47.397 180.8794,48.393 178.5914,48.393 C176.3004,48.393 174.4714,47.397 173.3404,45.539 C172.5574,44.247 172.3414,43.248 172.3414,40.638 L172.3414,31.101 L170.9144,31.101 L170.9144,40.366 C170.9144,43.439 171.2104,44.866 172.2094,46.401 C173.5804,48.531 175.8694,49.712 178.5914,49.712 C181.3394,49.712 183.6004,48.531 184.9724,46.401 C185.9694,44.866 186.2914,43.41 186.2914,40.339 L186.2914,31.101 L184.8664,31.101 Z" id="Stroke-21" stroke="#00573D" stroke-width="0.238"></path>
                        <polygon id="Fill-22" fill="#00573D" points="206.6574 31.101 205.2294 31.101 205.2294 47.154 191.3064 31.101 190.0944 31.101 190.0944 49.472 191.5184 49.472 191.5184 33.416 205.4714 49.472 206.6574 49.472"></polygon>
                        <polygon id="Stroke-23" stroke="#00573D" stroke-width="0.238" points="206.6574 31.101 205.2294 31.101 205.2294 47.154 191.3064 31.101 190.0944 31.101 190.0944 49.472 191.5184 49.472 191.5184 33.416 205.4714 49.472 206.6574 49.472"></polygon>
                        <polygon id="Fill-24" fill="#00573D" points="222.8215 31.101 221.0435 31.101 212.2375 40.26 212.2375 31.101 210.8085 31.101 210.8085 49.472 212.2375 49.472 212.2375 40.26 221.8515 49.472 223.6585 49.472 214.0665 40.26"></polygon>
                        <polygon id="Stroke-25" stroke="#00573D" stroke-width="0.238" points="222.8215 31.101 221.0435 31.101 212.2375 40.26 212.2375 31.101 210.8085 31.101 210.8085 49.472 212.2375 49.472 212.2375 40.26 221.8515 49.472 223.6585 49.472 214.0665 40.26"></polygon>
                        <polygon id="Fill-26" fill="#00573D" points="238.3859 31.101 223.1679 31.101 223.1679 32.285 230.0649 32.285 230.0649 49.472 231.4909 49.472 231.4909 32.285 238.3859 32.285"></polygon>
                        <polygon id="Stroke-27" stroke="#00573D" stroke-width="0.238" points="238.3859 31.101 223.1679 31.101 223.1679 32.285 230.0649 32.285 230.0649 49.472 231.4909 49.472 231.4909 32.285 238.3859 32.285"></polygon>
                        <path d="M249.2394,32.0175 C247.8124,31.2355 246.4114,30.8605 244.9844,30.8605 C242.0754,30.8605 239.7584,33.0145 239.7584,35.7335 C239.7584,36.9725 240.2444,38.1035 241.1614,38.9945 C241.8584,39.6125 242.8844,40.1515 244.7154,40.7965 C246.0344,41.2825 246.9484,41.7685 247.4364,42.2525 C248.0844,42.9265 248.4594,43.8435 248.4594,44.7305 C248.4594,46.8055 246.7604,48.3935 244.5804,48.3935 C243.1554,48.3935 241.9964,47.9095 239.9484,46.4275 L239.9484,48.0975 C241.5654,49.1755 243.1554,49.7125 244.6594,49.7125 C247.6514,49.7125 249.9954,47.5055 249.9954,44.6755 C249.9954,43.3855 249.5634,42.2785 248.7564,41.3915 C248.0554,40.6905 246.9244,40.0435 245.2804,39.4795 C243.7714,38.9385 242.8574,38.5075 242.3744,38.1035 C241.6204,37.4585 241.2164,36.6495 241.2164,35.6805 C241.2164,33.6855 242.9104,32.1765 245.1194,32.1765 C246.3844,32.1765 247.3574,32.5015 249.2394,33.5795 L249.2394,32.0175 Z" id="Fill-28" fill="#00573D"></path>
                        <path d="M249.2394,32.0175 C247.8124,31.2355 246.4114,30.8605 244.9844,30.8605 C242.0754,30.8605 239.7584,33.0145 239.7584,35.7335 C239.7584,36.9725 240.2444,38.1035 241.1614,38.9945 C241.8584,39.6125 242.8844,40.1515 244.7154,40.7965 C246.0344,41.2825 246.9484,41.7685 247.4364,42.2525 C248.0844,42.9265 248.4594,43.8435 248.4594,44.7305 C248.4594,46.8055 246.7604,48.3935 244.5804,48.3935 C243.1554,48.3935 241.9964,47.9095 239.9484,46.4275 L239.9484,48.0975 C241.5654,49.1755 243.1554,49.7125 244.6594,49.7125 C247.6514,49.7125 249.9954,47.5055 249.9954,44.6755 C249.9954,43.3855 249.5634,42.2785 248.7564,41.3915 C248.0554,40.6905 246.9244,40.0435 245.2804,39.4795 C243.7714,38.9385 242.8574,38.5075 242.3744,38.1035 C241.6204,37.4585 241.2164,36.6495 241.2164,35.6805 C241.2164,33.6855 242.9104,32.1765 245.1194,32.1765 C246.3844,32.1765 247.3574,32.5015 249.2394,33.5795 L249.2394,32.0175 Z" id="Stroke-29" stroke="#00573D" stroke-width="0.238"></path>
                        <polygon id="Fill-30" fill="#00573D" points="67.632 2.1127 66.202 2.1127 66.202 20.4837 76.71 20.4837 76.71 19.2977 67.632 19.2977"></polygon>
                        <polygon id="Stroke-31" stroke="#00573D" stroke-width="0.238" points="67.632 2.1127 66.202 2.1127 66.202 20.4837 76.71 20.4837 76.71 19.2977 67.632 19.2977"></polygon>
                        <path d="M89.6379,12.9393 L81.7439,12.9393 L85.6769,4.2953 L89.6379,12.9393 Z M86.0809,1.9783 L85.2999,1.9783 L76.8159,20.4843 L78.2969,20.4843 L81.2069,14.1253 L90.1769,14.1253 L93.0849,20.4843 L94.5689,20.4843 L86.0809,1.9783 Z" id="Fill-32" fill="#00573D"></path>
                        <path d="M89.6379,12.9393 L81.7439,12.9393 L85.6769,4.2953 L89.6379,12.9393 Z M86.0809,1.9783 L85.2999,1.9783 L76.8159,20.4843 L78.2969,20.4843 L81.2069,14.1253 L90.1769,14.1253 L93.0849,20.4843 L94.5689,20.4843 L86.0809,1.9783 Z" id="Stroke-33" stroke="#00573D" stroke-width="0.238"></path>
                        <polygon id="Fill-34" fill="#00573D" points="107.3107 2.1127 92.0887 2.1127 92.0887 3.2967 98.9867 3.2967 98.9867 20.4837 100.4127 20.4837 100.4127 3.2967 107.3107 3.2967"></polygon>
                        <polygon id="Stroke-35" stroke="#00573D" stroke-width="0.238" points="107.3107 2.1127 92.0887 2.1127 92.0887 3.2967 98.9867 3.2967 98.9867 20.4837 100.4127 20.4837 100.4127 3.2967 107.3107 3.2967"></polygon>
                        <polygon id="Fill-36" fill="#00573D" points="123.3351 2.1127 121.9081 2.1127 115.4421 17.6537 108.9241 2.1127 107.4711 2.1127 115.2011 20.6187 115.6581 20.6187"></polygon>
                        <polygon id="Stroke-37" stroke="#00573D" stroke-width="0.238" points="123.3351 2.1127 121.9081 2.1127 115.4421 17.6537 108.9241 2.1127 107.4711 2.1127 115.2011 20.6187 115.6581 20.6187"></polygon>
                        <polygon id="Fill-38" fill="#00573D" points="126.864 20.484 128.29 20.484 128.29 2.113 126.864 2.113"></polygon>
                        <polygon id="Stroke-39" stroke="#00573D" stroke-width="0.238" points="126.864 20.484 128.29 20.484 128.29 2.113 126.864 2.113"></polygon>
                        <path d="M136.6896,2.1127 L135.2596,2.1127 L135.2596,20.0237 C135.2596,21.6147 135.2056,22.2587 134.9376,22.9327 C134.5336,23.9847 133.7506,24.5497 132.5116,24.5497 C132.2426,24.5497 132.1076,24.5237 131.8376,24.4427 L131.9726,25.7897 C132.2716,25.8137 132.4326,25.8427 132.7006,25.8427 C134.0466,25.7627 134.2906,25.7367 135.4486,24.7117 C136.3116,23.9557 136.7156,22.7987 136.6896,20.1877 L136.6896,2.1127 Z" id="Fill-40" fill="#00573D"></path>
                        <path d="M136.6896,2.1127 L135.2596,2.1127 L135.2596,20.0237 C135.2596,21.6147 135.2056,22.2587 134.9376,22.9327 C134.5336,23.9847 133.7506,24.5497 132.5116,24.5497 C132.2426,24.5497 132.1076,24.5237 131.8376,24.4427 L131.9726,25.7897 C132.2716,25.8137 132.4326,25.8427 132.7006,25.8427 C134.0466,25.7627 134.2906,25.7367 135.4486,24.7117 C136.3116,23.9557 136.7156,22.7987 136.6896,20.1877 L136.6896,2.1127 Z" id="Stroke-41" stroke="#00573D" stroke-width="0.238"></path>
                        <path d="M151.5763,12.9393 L143.6833,12.9393 L147.6173,4.2953 L151.5763,12.9393 Z M148.0193,1.9783 L147.2393,1.9783 L138.7543,20.4843 L140.2363,20.4843 L143.1433,14.1253 L152.1153,14.1253 L155.0213,20.4843 L156.5043,20.4843 L148.0193,1.9783 Z" id="Fill-42" fill="#00573D"></path>
                        <path d="M151.5763,12.9393 L143.6833,12.9393 L147.6173,4.2953 L151.5763,12.9393 Z M148.0193,1.9783 L147.2393,1.9783 L138.7543,20.4843 L140.2363,20.4843 L143.1433,14.1253 L152.1153,14.1253 L155.0213,20.4843 L156.5043,20.4843 L148.0193,1.9783 Z" id="Stroke-43" stroke="#00573D" stroke-width="0.238"></path>
                        <path d="M167.3625,3.0297 C165.9325,2.2477 164.5325,1.8697 163.1075,1.8697 C160.1955,1.8697 157.8805,4.0237 157.8805,6.7447 C157.8805,7.9847 158.3675,9.1157 159.2815,10.0037 C159.9845,10.6217 161.0045,11.1637 162.8365,11.8077 C164.1575,12.2947 165.0715,12.7777 165.5575,13.2617 C166.2055,13.9377 166.5825,14.8527 166.5825,15.7407 C166.5825,17.8177 164.8835,19.4057 162.7035,19.4057 C161.2735,19.4057 160.1145,18.9197 158.0685,17.4397 L158.0685,19.1097 C159.6855,20.1877 161.2735,20.7237 162.7805,20.7237 C165.7745,20.7237 168.1185,18.5147 168.1185,15.6877 C168.1185,14.3947 167.6845,13.2887 166.8765,12.4027 C166.1775,11.6997 165.0465,11.0547 163.4015,10.4897 C161.8945,9.9507 160.9775,9.5197 160.4945,9.1157 C159.7385,8.4707 159.3345,7.6617 159.3345,6.6897 C159.3345,4.6997 161.0335,3.1887 163.2425,3.1887 C164.5075,3.1887 165.4755,3.5107 167.3625,4.5907 L167.3625,3.0297 Z" id="Fill-44" fill="#00573D"></path>
                        <path d="M167.3625,3.0297 C165.9325,2.2477 164.5325,1.8697 163.1075,1.8697 C160.1955,1.8697 157.8805,4.0237 157.8805,6.7447 C157.8805,7.9847 158.3675,9.1157 159.2815,10.0037 C159.9845,10.6217 161.0045,11.1637 162.8365,11.8077 C164.1575,12.2947 165.0715,12.7777 165.5575,13.2617 C166.2055,13.9377 166.5825,14.8527 166.5825,15.7407 C166.5825,17.8177 164.8835,19.4057 162.7035,19.4057 C161.2735,19.4057 160.1145,18.9197 158.0685,17.4397 L158.0685,19.1097 C159.6855,20.1877 161.2735,20.7237 162.7805,20.7237 C165.7745,20.7237 168.1185,18.5147 168.1185,15.6877 C168.1185,14.3947 167.6845,13.2887 166.8765,12.4027 C166.1775,11.6997 165.0465,11.0547 163.4015,10.4897 C161.8945,9.9507 160.9775,9.5197 160.4945,9.1157 C159.7385,8.4707 159.3345,7.6617 159.3345,6.6897 C159.3345,4.6997 161.0335,3.1887 163.2425,3.1887 C164.5075,3.1887 165.4755,3.5107 167.3625,4.5907 L167.3625,3.0297 Z" id="Stroke-45" stroke="#00573D" stroke-width="0.238"></path>
                        <path d="M39.6774,5.869 L39.6754,5.869 C38.1574,4.502 36.8344,3.795 36.8344,3.795 C36.8344,3.795 34.9864,3.39 33.5234,3.533 C33.1754,3.569 32.8654,3.725 32.5924,3.954 C23.6504,1.422 21.3624,1.083 8.7284,10.14 C3.0804,18.416 1.5544,36.527 7.9314,42.308 C12.5424,46.485 18.1314,48.634 24.1834,48.634 C37.5094,48.634 48.3464,37.764 48.3464,24.469 C48.3464,17.305 45.1314,10.403 39.6774,5.869" id="Fill-48" fill="#00573D"></path>
                        <path d="M10.5837,44.4447 C4.0727,39.9777 0.0737,32.3257 0.0737,24.4107 C0.0737,11.0867 10.9107,0.2237 24.2647,0.2237 C28.8847,0.2237 33.5147,1.6507 37.3957,4.1127 C47.3707,10.6557 50.1117,36.1687 24.2377,39.7137 L24.2647,45.1637 C20.8857,44.8777 15.2377,39.4347 12.3727,33.4997 C13.3427,28.6297 19.7597,21.6607 24.1537,21.7157 L24.2647,27.2817 C30.2197,25.2747 36.2977,19.2827 37.6197,15.3287 C37.1047,11.6257 28.7027,2.9477 24.2377,3.4077 L24.4597,8.8697 C7.1257,8.8197 -2.1183,31.0027 10.5837,44.4447" id="Fill-49" fill="#CFE3A5"></path>
                    </g>
                </g>
            </g>
        </g>
    </g>
</svg>