<?xml version="1.0" encoding="UTF-8" standalone="no"?>
<svg width="38px" height="34px" viewBox="0 0 38 34" version="1.1" xmlns="http://www.w3.org/2000/svg" xmlns:xlink="http://www.w3.org/1999/xlink">
    <!-- Generator: sketchtool 43.1 (39012) - http://www.bohemiancoding.com/sketch -->
    <title>container-inactive copy</title>
    <desc>Created with sketchtool.</desc>
    <defs></defs>
    <g id="Desktop" stroke="none" stroke-width="1" fill="none" fill-rule="evenodd">
        <g id="01-index" transform="translate(-309.000000, -5204.000000)" stroke-width="2" stroke="#01573E">
            <g id="disciplines" transform="translate(150.000000, 5161.000000)">
                <g id="Group-21">
                    <g id="Group-17">
                        <g id="cta-bt">
                            <g id="Group-19" transform="translate(114.000000, 44.000000)">
                                <g id="container-inactive-copy" transform="translate(46.000000, 0.000000)">
                                    <path d="M17.7133846,0 C9.11076923,0 2.13646154,6.97430769 2.13646154,15.5769231 L2.13646154,26.1346154 L33.2903077,26.1346154 L33.2903077,15.5769231 C33.2903077,6.97430769 26.316,0 17.7133846,0 Z" id="Stroke-1"></path>
                                    <polygon id="Stroke-3" points="0 31.3450615 35.4267692 31.3450615 35.4267692 26.1347538 0 26.1347538"></polygon>
                                    <path d="M20.4826154,8.05769231 C20.4826154,9.587 19.2426923,10.8269231 17.7133846,10.8269231 C16.1840769,10.8269231 14.9441538,9.587 14.9441538,8.05769231 C14.9441538,6.52838462 16.1840769,5.28846154 17.7133846,5.28846154 C19.2426923,5.28846154 20.4826154,6.52838462 20.4826154,8.05769231 Z" id="Stroke-5"></path>
                                </g>
                            </g>
                        </g>
                    </g>
                </g>
            </g>
        </g>
    </g>
</svg>