<?xml version="1.0" encoding="UTF-8" standalone="no"?>
<svg
   xmlns:dc="http://purl.org/dc/elements/1.1/"
   xmlns:cc="http://creativecommons.org/ns#"
   xmlns:rdf="http://www.w3.org/1999/02/22-rdf-syntax-ns#"
   xmlns:svg="http://www.w3.org/2000/svg"
   xmlns="http://www.w3.org/2000/svg"
   xmlns:sodipodi="http://sodipodi.sourceforge.net/DTD/sodipodi-0.dtd"
   xmlns:inkscape="http://www.inkscape.org/namespaces/inkscape"
   width="38px"
   height="34px"
   viewBox="0 0 38 34"
   version="1.1"
   id="svg1062"
   sodipodi:docname="container-active.svg"
   inkscape:version="0.92.4 (5da689c313, 2019-01-14)">
  <metadata
     id="metadata1066">
    <rdf:RDF>
      <cc:Work
         rdf:about="">
        <dc:format>image/svg+xml</dc:format>
        <dc:type
           rdf:resource="http://purl.org/dc/dcmitype/StillImage" />
        <dc:title>container-inactive</dc:title>
      </cc:Work>
    </rdf:RDF>
  </metadata>
  <sodipodi:namedview
     pagecolor="#ffffff"
     bordercolor="#666666"
     borderopacity="1"
     objecttolerance="10"
     gridtolerance="10"
     guidetolerance="10"
     inkscape:pageopacity="0"
     inkscape:pageshadow="2"
     inkscape:window-width="1920"
     inkscape:window-height="1017"
     id="namedview1064"
     showgrid="false"
     inkscape:zoom="16"
     inkscape:cx="22.452264"
     inkscape:cy="13.698937"
     inkscape:window-x="-8"
     inkscape:window-y="760"
     inkscape:window-maximized="1"
     inkscape:current-layer="svg1062" />
  <!-- Generator: sketchtool 43.1 (39012) - http://www.bohemiancoding.com/sketch -->
  <title
     id="title1045">container-inactive</title>
  <desc
     id="desc1047">Created with sketchtool.</desc>
  <defs
     id="defs1049" />
  <g
     id="Desktop"
     stroke="none"
     stroke-width="1"
     fill="none"
     fill-rule="evenodd"
     style="fill:none;fill-opacity:1">
    <g
       id="01-index"
       transform="translate(-263.000000, -5204.000000)"
       stroke-width="2"
       stroke="#01573E"
       style="fill:none;fill-opacity:1">
      <g
         id="disciplines"
         transform="translate(150.000000, 5161.000000)"
         style="fill:none;fill-opacity:1">
        <g
           id="Group-21"
           style="fill:none;fill-opacity:1">
          <g
             id="Group-17"
             style="fill:none;fill-opacity:1">
            <g
               id="cta-bt"
               style="fill:none;fill-opacity:1">
              <g
                 id="Group-19"
                 transform="translate(114.000000, 44.000000)"
                 style="fill:none;fill-opacity:1">
                <g
                   id="container-inactive"
                   style="fill:none;fill-opacity:1">
                  <path
                     d="M17.7133846,0 C9.11076923,0 2.13646154,6.97430769 2.13646154,15.5769231 L2.13646154,26.1346154 L33.2903077,26.1346154 L33.2903077,15.5769231 C33.2903077,6.97430769 26.316,0 17.7133846,0 Z"
                     id="Stroke-1"
                     style="fill:none;fill-opacity:1" />
                  <polygon
                     id="Stroke-3"
                     points="0 31.3450615 35.4267692 31.3450615 35.4267692 26.1347538 0 26.1347538"
                     style="fill:none;fill-opacity:1" />
                  <path
                     d="M20.4826154,8.05769231 C20.4826154,9.587 19.2426923,10.8269231 17.7133846,10.8269231 C16.1840769,10.8269231 14.9441538,9.587 14.9441538,8.05769231 C14.9441538,6.52838462 16.1840769,5.28846154 17.7133846,5.28846154 C19.2426923,5.28846154 20.4826154,6.52838462 20.4826154,8.05769231 Z"
                     id="Stroke-5"
                     style="fill:none;fill-opacity:1" />
                </g>
              </g>
            </g>
          </g>
        </g>
      </g>
    </g>
  </g>
  <path
     style="fill:#83f715;fill-opacity:1;stroke:#000080;stroke-width:0.04146342"
     d="M 0.0097561,29.7507 V 26.164814 L 1.077439,26.153754 2.145122,26.142684 2.169204,20.62805 C 2.186142,16.749433 2.207763,15.008858 2.242085,14.760977 2.3442126,14.023394 2.504025,13.136137 2.6201518,12.662002 3.2462354,10.105759 4.4719526,7.7312496 6.191066,5.7442805 6.6642825,5.1973325 7.6736057,4.2140761 8.2195122,3.7682219 10.340785,2.0357303 12.856858,0.84746024 15.487071,0.33595998 c 3.603989,-0.70087132 7.246238,-0.2272108 10.499514,1.36542132 4.686017,2.2940265 8.059141,6.7180242 8.997976,11.8012327 0.254929,1.380286 0.243605,1.079743 0.267696,7.104703 l 0.02213,5.535366 1.067683,0.01107 1.067683,0.01106 v 3.585886 3.585885 h -18.7 H 0.0097561 Z M 35.451097,29.739634 35.440244,28.132927 18.720122,28.12251 2,28.112093 v 1.617124 1.617124 H 18.730975 35.46195 Z M 33.293734,20.721341 C 33.279104,15.412882 33.277287,15.309766 33.187247,14.678049 32.797406,11.942943 31.77583,9.5620928 30.073798,7.4219512 29.656661,6.8974419 28.666436,5.8879152 28.10122,5.4109234 25.892172,3.5466858 23.306712,2.4398622 20.285366,2.064993 19.702618,1.9926894 17.713593,1.9938291 17.113415,2.0668108 14.271789,2.4123513 11.779068,3.4499766 9.5670732,5.2080661 8.9859958,5.6699051 7.8052023,6.8513288 7.3336488,7.4426829 5.8160613,9.3458201 4.8130095,11.53198 4.365873,13.910976 4.1389616,15.118261 4.1432024,14.996974 4.1263073,20.762805 l -0.015703,5.359146 H 18.709611 33.308617 l -0.01488,-5.40061 z"
     id="path1076"
     inkscape:connector-curvature="0" />
  <path
     style="fill:#83f715;fill-opacity:1;stroke:#000080;stroke-width:0.04146342"
     d="M 18.060504,12.753695 C 16.966339,12.544664 16.03711,11.897646 15.478875,10.956117 15.141882,10.387739 14.978049,9.767391 14.978049,9.0597561 c 0,-1.7032805 1.057922,-3.1088576 2.718409,-3.6117357 0.325406,-0.098549 0.443955,-0.1127122 0.971835,-0.1161061 0.466154,-0.003 0.67108,0.013969 0.912195,0.075521 1.152755,0.2942788 2.057601,1.0430299 2.550114,2.1101954 0.745092,1.6144478 0.187542,3.6176843 -1.289791,4.6341153 -0.287258,0.197639 -0.836993,0.444654 -1.198128,0.538361 -0.427748,0.110991 -1.176527,0.141085 -1.582179,0.06359 z m 1.100556,-1.977689 c 1.150553,-0.259375 1.697206,-1.6686226 1.042833,-2.6883744 -0.36529,-0.5692544 -1.091077,-0.8982558 -1.748144,-0.7924382 -1.449346,0.2334102 -2.031821,1.9821778 -1.003603,3.0131186 0.452943,0.454143 1.04738,0.616828 1.708914,0.467694 z"
     id="path1078"
     inkscape:connector-curvature="0" />
  <path
     style="fill:#83f715;fill-opacity:1;stroke:#000080;stroke-width:0.00390625"
     d="m 37.391188,26.810425 -9.88e-4,-0.625977 -0.228516,-0.0026 c -0.230112,-0.0027 -0.665351,-0.0072 -1.46875,-0.01538 -0.23955,-0.0024 -0.436002,-0.0048 -0.436558,-0.0053 -9.69e-4,-8.17e-4 -0.01645,-3.608781 -0.01653,-3.852671 l -4e-5,-0.118164 h 0.01899 0.01899 l 0.0025,0.418945 c 0.0014,0.23042 0.0042,0.934863 0.0063,1.56543 0.0045,1.363199 0.0071,1.945878 0.0086,1.947385 0.0015,0.0015 0.673396,0.009 1.214036,0.01354 0.23955,0.002 0.544091,0.0049 0.676757,0.0064 l 0.241211,0.0027 v 0.645867 0.645868 h -0.01757 -0.01757 z"
     id="path1092"
     inkscape:connector-curvature="0" />
  <path
     style="fill:#83f715;fill-opacity:1;stroke:#000080;stroke-width:0.00390625"
     d="m 28.610903,26.121948 v -0.01758 h 2.33766 c 1.285713,0 2.338413,-0.0013 2.339332,-0.0029 9.2e-4,-0.0016 -6.39e-4,-0.780762 -0.0035,-1.731446 -0.0028,-0.950683 -0.0052,-1.830029 -0.0053,-1.954101 l -2.11e-4,-0.225586 h 0.01953 0.01953 l -3.9e-5,0.208008 c -3.9e-5,0.182048 0.0059,2.481397 0.0089,3.408203 l 10e-4,0.333008 h -2.35845 -2.358444 z"
     id="path1094"
     inkscape:connector-curvature="0" />
  <path
     style="fill:#83f715;fill-opacity:1;stroke:#000080;stroke-width:0.00390625"
     d="m 37.392153,30.014527 v -2.578125 h 0.01758 0.01758 v 2.578125 2.578125 h -0.01758 -0.01758 z"
     id="path1096"
     inkscape:connector-curvature="0" />
  <path
     style="fill:#83f715;fill-opacity:1;stroke:#000080;stroke-width:0.00390625"
     d="m 31.735903,33.334839 v -0.01953 h 2.828125 2.828125 V 32.95398 32.592652 h 0.01758 0.01758 v 0.380859 0.380859 H 34.58161 31.735907 Z"
     id="path1098"
     inkscape:connector-curvature="0" />
  <path
     style="fill:#83f715;fill-opacity:1;stroke:#000080;stroke-width:0.00390625"
     d="m 30.173403,31.346558 v -0.01953 h 2.632582 c 1.44792,0 2.633257,-0.0013 2.634082,-0.0029 8.25e-4,-0.0016 -6.94e-4,-0.302637 -0.0034,-0.668945 -0.0027,-0.366309 -0.005,-0.698096 -0.0052,-0.737305 l -2.99e-4,-0.07129 h 0.01907 0.01907 l 0.0024,0.165039 c 0.0013,0.09077 0.0033,0.346094 0.0044,0.567383 0.0011,0.221289 0.0031,0.488916 0.0044,0.594726 l 0.0024,0.192383 H 32.828109 30.17331 Z"
     id="path1100"
     inkscape:connector-curvature="0" />
  <path
     style="fill:#83f715;fill-opacity:1;stroke:#000080;stroke-width:0.00390625"
     d="m 30.173403,31.981323 v -0.611328 h 2.656623 2.656622 l -0.0025,-0.209961 c -0.0014,-0.115478 -0.0042,-0.453418 -0.0062,-0.750976 -0.01362,-1.964066 -0.01617,-2.294953 -0.01766,-2.296441 -9.15e-4,-9.15e-4 -1.19084,-0.0025 -2.644278,-0.0036 l -2.642614,-0.0019 v -0.38031 -0.38031 h 3.607422 3.607422 v 2.623047 2.623047 h -3.607422 -3.607422 z"
     id="path1102"
     inkscape:connector-curvature="0" />
  <path
     style="fill:#83f715;fill-opacity:1;stroke:#000080;stroke-width:0.00390625"
     d="m 35.450305,29.847342 -0.01802,-0.0012 -0.0025,-0.2918 c -0.0014,-0.16049 -0.0034,-0.523831 -0.0045,-0.807425 -0.0011,-0.283593 -0.0031,-0.533642 -0.0043,-0.555664 l -0.0023,-0.04004 h -2.047804 c -1.126292,0 -2.306494,-0.0012 -2.622671,-0.0026 l -0.574867,-0.0026 v -0.02018 -0.02018 l 0.02246,0.0032 c 0.01235,0.0018 1.201367,0.0028 2.642252,0.0023 1.440886,-5.31e-4 2.620747,-1e-5 2.621914,0.0012 0.0028,0.0028 0.0086,0.826451 0.0071,1.00569 -6.62e-4,0.07734 7.06e-4,0.228516 0.003,0.335938 0.0024,0.112237 0.003,0.23768 0.0012,0.294922 l -0.003,0.09961 z"
     id="path1104"
     inkscape:connector-curvature="0" />
  <path
     style="fill:#83f715;fill-opacity:1;stroke:#000080;stroke-width:0.00390625"
     d="m 35.427967,30.622925 c 6.15e-4,-0.655246 8.35e-4,-0.676373 0.0034,-0.329102 0.0015,0.204102 0.0039,0.51919 0.0054,0.700196 0.0023,0.295374 0.002,0.329101 -0.0034,0.329101 -0.0054,0 -0.006,-0.07094 -0.0054,-0.700195 z"
     id="path1106"
     inkscape:connector-curvature="0" />
  <path
     style="fill:#83f715;fill-opacity:1;stroke:#000080;stroke-width:0.00390625"
     d="m 25.798403,33.334839 v -0.01953 h 2.96875 2.96875 v 0.01953 0.01953 h -2.96875 -2.96875 z"
     id="path1108"
     inkscape:connector-curvature="0" />
  <path
     style="fill:#83f715;fill-opacity:1;stroke:#000080;stroke-width:0.00390625"
     d="m 25.798403,31.346558 v -0.01953 h 2.1875 2.1875 v 0.01953 0.01953 h -2.1875 -2.1875 z"
     id="path1110"
     inkscape:connector-curvature="0" />
  <path
     style="fill:#83f715;fill-opacity:1;stroke:#000080;stroke-width:0.00390625"
     d="m 20.173403,31.346558 v -0.01953 h 2.8125 2.8125 v 0.01953 0.01953 h -2.8125 -2.8125 z"
     id="path1112"
     inkscape:connector-curvature="0" />
  <path
     style="fill:#83f715;fill-opacity:1;stroke:#000080;stroke-width:0.00390625"
     d="m 20.173403,33.334839 v -0.01953 h 2.8125 2.8125 v 0.01953 0.01953 h -2.8125 -2.8125 z"
     id="path1114"
     inkscape:connector-curvature="0" />
  <path
     style="fill:#83f715;fill-opacity:1;stroke:#000080;stroke-width:0.00390625"
     d="m 13.298403,33.334839 v -0.01953 h 3.4375 3.4375 v 0.01953 0.01953 h -3.4375 -3.4375 z"
     id="path1116"
     inkscape:connector-curvature="0" />
  <path
     style="fill:#83f715;fill-opacity:1;stroke:#000080;stroke-width:0.00390625"
     d="m 13.298403,31.346558 v -0.01953 h 3.4375 3.4375 v 0.01953 0.01953 h -3.4375 -3.4375 z"
     id="path1118"
     inkscape:connector-curvature="0" />
  <path
     style="fill:#83f715;fill-opacity:1;stroke:#000080;stroke-width:0.00390625"
     d="m 9.2359031,31.346558 v -0.01953 h 2.0312499 2.03125 v 0.01953 0.01953 h -2.03125 -2.0312499 z"
     id="path1120"
     inkscape:connector-curvature="0" />
  <path
     style="fill:#83f715;fill-opacity:1;stroke:#000080;stroke-width:0.00390625"
     d="m 6.1109031,31.346558 v -0.01953 h 1.5625 1.5625 v 0.01953 0.01953 h -1.5625 -1.5625 z"
     id="path1122"
     inkscape:connector-curvature="0" />
  <path
     style="fill:#83f715;fill-opacity:1;stroke:#000080;stroke-width:0.00390625"
     d="m 6.1109031,33.334839 v -0.01953 h 3.59375 3.5937499 v 0.01953 0.01953 h -3.5937499 -3.59375 z"
     id="path1124"
     inkscape:connector-curvature="0" />
  <path
     style="fill:#83f715;fill-opacity:1;stroke:#000080;stroke-width:0.00390625"
     d="m 1.7359031,33.334839 v -0.01953 h 2.1875 2.1875 v 0.01953 0.01953 h -2.1875 -2.1875 z"
     id="path1126"
     inkscape:connector-curvature="0" />
  <path
     style="fill:#83f715;fill-opacity:1;stroke:#000080;stroke-width:0.00390625"
     d="m 1.9819968,30.450073 v -0.916015 h 0.019531 0.019531 v 0.896484 0.896485 h 2.0449219 2.0449219 v 0.01953 0.01953 H 4.04645 1.9819968 Z"
     id="path1128"
     inkscape:connector-curvature="0" />
  <path
     style="fill:#83f715;fill-opacity:1;stroke:#000080;stroke-width:0.00390625"
     d="m -0.01019067,31.444214 v -1.910156 h 0.01953125 0.01953125 v 1.890625 1.890625 H 0.88238745 1.7359031 v 0.01953 0.01953 H 0.8628562 -0.01019067 Z"
     id="path1130"
     inkscape:connector-curvature="0" />
  <path
     style="fill:#83f715;fill-opacity:1;stroke:#000080;stroke-width:0.00390625"
     d="m -0.01019067,27.840875 v -1.693182 l 0.01269531,-0.002 c 0.00698242,-0.0011 0.221875,-0.0039 0.47753906,-0.0061 0.8434375,-0.0074 1.2748954,-0.0116 1.4619141,-0.01417 l 0.1845703,-0.0025 V 25.953521 25.78412 h 0.019531 0.019531 v 0.188843 0.188844 l -0.2451172,0.0026 c -0.1348145,0.0014 -0.4138672,0.0044 -0.6201172,0.0065 -0.20625,0.0021 -0.52880859,0.0056 -0.71679687,0.0077 -0.18798828,0.0021 -0.38969727,0.0039 -0.44824219,0.0039 l -0.10644531,1.8e-5 v 1.675782 1.675781 H 0.00934058 -0.01019067 Z"
     id="path1136"
     inkscape:connector-curvature="0" />
  <path
     style="fill:#83f715;fill-opacity:1;stroke:#000080;stroke-width:0.00390625"
     d="m 2.1288203,25.367066 c 9.728e-4,-0.229346 0.00283,-0.545752 0.00412,-0.703125 l 0.00235,-0.286133 h 0.01859 0.01859 l -0.00154,0.350586 c -8.466e-4,0.192822 -0.00261,0.509228 -0.00391,0.703125 l -0.00237,0.352539 h -0.018795 -0.018795 z"
     id="path1138"
     inkscape:connector-curvature="0" />
  <path
     style="fill:#83f715;fill-opacity:1;stroke:#000080;stroke-width:0.00552427"
     d="M 2.3227633,14.096227 C 2.4706482,13.200862 2.5814243,12.685534 2.7619082,12.053337 3.1492193,10.696666 3.6920193,9.4254375 4.4048277,8.2056452 4.6907116,7.7164267 5.0270703,7.2052245 5.3562223,6.7597033 c 0.05125,-0.069369 0.052364,-0.070435 0.073659,-0.070435 0.011892,0 0.021622,0.00123 0.021622,0.00274 0,0.00151 -0.024369,0.03569 -0.054152,0.075959 C 4.2410144,8.3313756 3.3448655,10.153684 2.8063391,12.036764 2.6283647,12.659092 2.5236088,13.136147 2.3866179,13.948162 l -0.026561,0.157442 -0.019697,0.0017 c -0.017852,0.0015 -0.0195,4.8e-4 -0.017596,-0.01105 z"
     id="path1142"
     inkscape:connector-curvature="0" />
  <path
     style="fill:#83f715;fill-opacity:1;stroke:#000080;stroke-width:0.00552427"
     d="m 4.3284958,14.007548 c 0.1335047,-0.715999 0.2949665,-1.35298 0.504455,-1.990119 0.5153718,-1.567454 1.284295,-3.0206972 2.302231,-4.3511515 0.234758,-0.3068314 0.4052519,-0.5066684 0.7214543,-0.8456211 l 0.1222217,-0.1310153 0.026601,-1.862e-4 0.026601,-1.861e-4 -0.087368,0.092611 c -0.389501,0.4128755 -0.59187,0.6530509 -0.90876,1.0785342 -0.8275611,1.1111536 -1.4905915,2.325437 -1.9714209,3.61049 -0.2967636,0.793122 -0.5229314,1.606648 -0.6817908,2.452399 -0.017121,0.09115 -0.032409,0.170078 -0.033972,0.175395 -0.00196,0.0067 -0.00847,0.0097 -0.020947,0.0097 h -0.018104 z"
     id="path1144"
     inkscape:connector-curvature="0" />
  <path
     style="fill:#83f715;fill-opacity:1;stroke:#000080;stroke-width:0.00552427"
     d="m 2.1370066,18.07065 c 3.64e-5,-0.863243 0.00254,-1.682926 0.00557,-1.824391 0.0076,-0.354453 0.025363,-0.718307 0.046938,-0.961223 l 0.0076,-0.08563 -0.00261,0.135345 c -0.013116,0.679817 -0.021992,1.431309 -0.029688,2.513544 -0.00304,0.426888 -0.00681,0.927801 -0.0084,1.11314 -0.00158,0.18534 -0.00289,0.413423 -0.00289,0.506852 -1.34e-5,0.147307 -0.00112,0.169872 -0.0083,0.169872 -0.00735,0 -0.00828,-0.177822 -0.00822,-1.567512 z"
     id="path1146"
     inkscape:connector-curvature="0" />
  <path
     style="fill:#83f715;fill-opacity:1;stroke:#000080;stroke-width:0.00552427"
     d="m 2.1532379,19.634019 c -0.00443,-0.06658 0.017611,-2.823501 0.028162,-3.523105 0.00302,-0.200531 0.00673,-0.482683 0.00823,-0.627005 0.0015,-0.144321 0.00504,-0.279804 0.00785,-0.301072 0.00281,-0.02127 0.00662,-0.08093 0.00847,-0.132583 0.00827,-0.231137 0.014634,-0.286972 0.085909,-0.753886 0.015059,-0.09865 0.027668,-0.185656 0.028021,-0.19335 4.289e-4,-0.0094 0.00148,-0.01079 0.00317,-0.0043 0.00288,0.01104 0.013945,0.01238 0.030223,0.0037 0.00963,-0.0052 0.010763,-0.0046 0.00805,0.0041 -0.013274,0.04258 -0.1019137,0.656297 -0.1083153,0.749947 -0.017886,0.261655 -0.032673,1.059919 -0.04432,2.392456 -0.0052,0.594592 -0.016374,2.172667 -0.016463,2.324338 l -3.81e-5,0.06491 h -0.019335 c -0.010634,0 -0.019459,-0.0019 -0.01961,-0.0041 z"
     id="path1148"
     inkscape:connector-curvature="0" />
  <path
     style="fill:#83f715;fill-opacity:1;stroke:#000080;stroke-width:0.00552427"
     d="m 4.1115818,19.277703 c 0.00166,-0.198252 0.00433,-0.725889 0.00593,-1.172527 0.00778,-2.172302 0.030192,-2.913446 0.1049587,-3.470589 0.020404,-0.152047 0.089084,-0.555885 0.090562,-0.5325 3.264e-4,0.0052 0.00568,0.0068 0.017049,0.0051 0.00911,-0.0013 0.016573,-2.81e-4 0.016573,0.0023 0,0.0026 -0.00863,0.05254 -0.019169,0.110909 -0.1182114,0.654488 -0.1454569,1.069829 -0.1631481,2.487092 -0.00495,0.39629 -0.01637,2.310623 -0.016507,2.766279 l -4.94e-5,0.164347 H 4.128175 4.108569 Z"
     id="path1150"
     inkscape:connector-curvature="0" />
  <path
     style="fill:#83f715;fill-opacity:1;stroke:#000080;stroke-width:0.00552427"
     d="m 2.1352772,24.331031 c 8.745e-4,-0.07596 0.00287,-0.648964 0.00444,-1.273345 0.00157,-0.624381 0.00547,-1.648529 0.00867,-2.275885 0.0032,-0.627356 0.00378,-1.141326 0.00129,-1.142156 -0.00249,-8.3e-4 -0.00336,-0.01331 -0.00194,-0.02774 l 0.00259,-0.02623 0.00298,0.02486 c 0.00282,0.02355 0.00397,0.02495 0.021778,0.02665 l 0.0188,0.0018 -0.00361,0.583779 c -0.00198,0.321078 -0.00613,1.252491 -0.00921,2.069807 -0.00308,0.817316 -0.00711,1.620891 -0.00895,1.785721 l -0.00335,0.299692 h -0.015699 -0.015699 l -0.00184,0.04557 c -0.00101,0.02507 -0.00113,-0.01657 -2.517e-4,-0.09253 z"
     id="path1152"
     inkscape:connector-curvature="0" />
  <path
     style="fill:#83f715;fill-opacity:1;stroke:#000080;stroke-width:0.00552427"
     d="m 2.1506023,20.038671 c 5e-7,-0.209646 6.881e-4,-0.294607 0.00153,-0.188802 8.399e-4,0.105805 8.395e-4,0.277334 -10e-7,0.381175 -8.404e-4,0.103841 -0.00153,0.01727 -0.00153,-0.192373 z"
     id="path1154"
     inkscape:connector-curvature="0" />
  <path
     style="fill:#83f715;fill-opacity:1;stroke:#000080;stroke-width:0.00552427"
     d="m 4.099922,23.326994 c 0.00201,-0.641851 0.00529,-1.734414 0.00731,-2.427917 l 0.00366,-1.260915 h 0.019333 0.019333 l -0.00365,0.874216 c -0.00201,0.480819 -0.00529,1.573381 -0.00731,2.427917 l -0.00366,1.553702 h -0.01933 -0.019334 z"
     id="path1156"
     inkscape:connector-curvature="0" />
  <path
     style="fill:#83f715;fill-opacity:1;stroke:#000080;stroke-width:0.00552427"
     d="m 4.0925327,25.657766 c 0,-0.265354 0.00165,-0.635757 0.00367,-0.823116 l 0.00367,-0.340653 h 0.015364 c 0.01435,0 0.015504,-0.0017 0.017478,-0.02624 0.00116,-0.01443 8.885e-4,0.34727 -6.091e-4,0.803782 l -0.00272,0.830022 h 6.2350524 6.235053 v 0.01934 0.01933 H 10.346008 4.0925327 Z"
     id="path1158"
     inkscape:connector-curvature="0" />
  <path
     style="fill:#83f715;fill-opacity:1;stroke:#000080;stroke-width:0.00552427"
     d="m 16.599484,26.120895 v -0.01934 h 5.190053 5.190053 v 0.01934 0.01933 h -5.190053 -5.190053 z"
     id="path1160"
     inkscape:connector-curvature="0" />
  <path
     style="fill:#83f715;fill-opacity:1;stroke:#000080;stroke-width:0.00552427"
     d="m 26.97959,26.120895 v -0.01934 l 2.028789,0.0014 c 1.352923,9.13e-4 1.624165,0.0018 0.814205,0.0028 l -1.214584,0.0014 0.0024,0.01656 0.0024,0.01656 H 27.796226 26.97959 Z"
     id="path1162"
     inkscape:connector-curvature="0" />
  <path
     style="fill:#83f715;fill-opacity:1;stroke:#000080;stroke-width:0.00552427"
     d="m 35.236226,21.241582 c -0.0086,-2.163122 -0.01423,-3.386515 -0.01777,-3.872515 l -0.0038,-0.515138 h 0.01937 0.01937 l 0.0037,0.473706 c 0.0037,0.476599 0.01076,1.997737 0.01778,3.858704 l 0.0038,1.004036 h -0.01937 -0.01937 z"
     id="path1164"
     inkscape:connector-curvature="0" />
  <path
     style="fill:#83f715;fill-opacity:1;stroke:#000080;stroke-width:0.00552427"
     d="m 33.277213,21.650378 c -6.4e-5,-0.733246 -0.0096,-3.626082 -0.01407,-4.273024 l -0.0036,-0.523425 h 0.01921 0.01921 l 0.0038,0.730585 c 0.0041,0.791611 0.01404,3.826306 0.01416,4.308932 l 7.5e-5,0.296929 h -0.01933 -0.01934 z"
     id="path1166"
     inkscape:connector-curvature="0" />
  <path
     style="fill:#83f715;fill-opacity:1;stroke:#000080;stroke-width:0.00552427"
     d="m 35.277066,20.992989 c 4.2e-5,-0.400826 -0.01148,-2.849314 -0.01666,-3.539677 -0.0077,-1.022714 -0.01859,-1.716208 -0.0331,-2.101985 -0.01027,-0.273056 -0.01085,-0.299418 -0.0056,-0.254117 0.02233,0.192937 0.05079,0.690034 0.06088,1.063423 0.0074,0.274109 0.0074,5.018801 -1.1e-5,5.018801 -0.0036,0 -0.0055,-0.06582 -0.0055,-0.186445 z"
     id="path1168"
     inkscape:connector-curvature="0" />
  <path
     style="fill:#83f715;fill-opacity:1;stroke:#000080;stroke-width:0.00552427"
     d="m 35.250572,16.880169 c -0.0011,-0.02498 -0.0019,-0.02624 -0.0171,-0.02624 h -0.01595 l -0.0033,-0.12844 c -0.0018,-0.07064 -0.0046,-0.25895 -0.0063,-0.418463 -0.0034,-0.324765 -0.011,-0.686303 -0.01937,-0.922554 -0.02249,-0.635039 -0.0565,-0.971084 -0.150962,-1.491553 l -0.02356,-0.12982 0.0163,-0.0018 c 0.009,-9.85e-4 0.01798,9.32e-4 0.02004,0.0043 0.0053,0.0085 0.05768,0.306727 0.08034,0.457118 0.03417,0.22683 0.05484,0.420213 0.07163,0.670126 0.0048,0.0714 0.01258,0.155209 0.01729,0.186239 0.0047,0.03103 0.0069,0.06156 0.005,0.06784 -0.002,0.0063 -9.23e-4,0.0853 0.0024,0.175602 0.01332,0.364364 0.0316,1.408778 0.02681,1.53144 -0.0011,0.02886 -0.0026,0.04067 -0.0032,0.02624 z"
     id="path1170"
     inkscape:connector-curvature="0" />
  <path
     style="fill:#83f715;fill-opacity:1;stroke:#000080;stroke-width:0.00552427"
     d="m 33.279295,16.855056 -0.0173,-0.0017 -0.0035,-0.291104 c -0.0108,-0.891786 -0.02111,-1.234675 -0.04513,-1.500919 -0.02541,-0.281606 -0.104138,-0.800479 -0.179411,-1.182502 -0.01201,-0.06094 -0.02183,-0.112519 -0.02183,-0.114629 0,-0.0021 0.0084,-0.0038 0.01864,-0.0038 0.01661,0 0.01904,0.002 0.02226,0.01795 0.07145,0.355101 0.159418,0.904064 0.188029,1.173424 0.0228,0.21464 0.03476,0.455636 0.04463,0.899559 0.0035,0.158387 0.01356,1.005246 0.01191,1.005413 -5.35e-4,5.6e-5 -0.0088,-6.79e-4 -0.01827,-0.0016 z"
     id="path1172"
     inkscape:connector-curvature="0" />
  <path
     style="fill:#83f715;fill-opacity:1;stroke:#000080;stroke-width:0.00552427"
     d="m 35.011882,13.765304 c 0,-0.02139 -0.08408,-0.463764 -0.124316,-0.654069 -0.221943,-1.04973 -0.541453,-2.055631 -0.969477,-3.05216 C 33.782471,9.7433257 33.669515,9.5018889 33.494874,9.1544751 L 33.366439,8.8989775 h 0.02134 0.02134 l 0.121346,0.2416869 c 0.139018,0.2768867 0.235623,0.4801329 0.340689,0.7167742 0.479244,1.0794014 0.832497,2.1770954 1.071118,3.3283734 0.02862,0.138092 0.108277,0.559518 0.108277,0.572852 0,0.0036 -0.005,0.0049 -0.01187,0.0031 -0.0078,-0.002 -0.01442,3.76e-4 -0.01933,0.0071 -0.007,0.0096 -0.0075,0.0094 -0.0075,-0.0035 z"
     id="path1174"
     inkscape:connector-curvature="0" />
  <path
     style="fill:#83f715;fill-opacity:1;stroke:#000080;stroke-width:0.00552427"
     d="m 33.009086,13.75205 c -0.0014,-0.0061 -0.01013,-0.04834 -0.01942,-0.09391 -0.171885,-0.843292 -0.442737,-1.739852 -0.770192,-2.549452 -0.291286,-0.720175 -0.662891,-1.4575026 -1.062159,-2.1075095 l -0.06108,-0.099437 0.01996,-0.00178 c 0.01436,-0.00128 0.02207,0.00104 0.02747,0.00829 0.01801,0.024173 0.232924,0.3870037 0.30373,0.5127789 0.212859,0.3781102 0.429314,0.8070416 0.602155,1.1932426 0.4203,0.939129 0.74076,1.926267 0.95954,2.955749 0.01998,0.09404 0.03743,0.175961 0.03876,0.182037 0.0021,0.0094 -4.48e-4,0.01105 -0.01691,0.01105 -0.01481,0 -0.01993,-0.0026 -0.02186,-0.01105 z"
     id="path1176"
     inkscape:connector-curvature="0" />
  <path
     style="fill:#83f715;fill-opacity:1;stroke:#000080;stroke-width:0.00552427"
     d="M 33.349796,8.8729736 C 33.339645,8.852335 33.294413,8.7678285 33.24928,8.6851821 32.624621,7.5413243 31.868484,6.4748054 30.9981,5.5099321 30.631598,5.103643 30.182949,4.655005 29.777539,4.289401 29.357452,3.9105618 28.849951,3.4989994 28.424492,3.1921367 l -0.04941,-0.03564 0.03136,-0.00165 0.03135,-0.00165 0.0954,0.070112 c 0.412169,0.3029168 0.858429,0.6666496 1.252733,1.0210629 0.425694,0.3826267 0.904691,0.8627353 1.283829,1.286807 0.827299,0.9253463 1.548314,1.9376635 2.145203,3.0118992 0.09091,0.1636077 0.189366,0.3468152 0.189366,0.3523622 0,0.00195 -0.0073,0.00354 -0.01611,0.00354 -0.0089,0 -0.01698,0.00259 -0.01803,0.00576 -0.0011,0.00317 -0.01022,-0.011126 -0.02038,-0.031765 z"
     id="path1178"
     inkscape:connector-curvature="0" />
  <path
     style="fill:#83f715;fill-opacity:1;stroke:#000080;stroke-width:0.00552427"
     d=""
     id="path1180"
     inkscape:connector-curvature="0" />
  <path
     style="fill:#83f715;fill-opacity:1;stroke:#000080;stroke-width:0.00552427"
     d="m 31.095173,8.9053753 c 0,-0.020073 -0.328653,-0.5169388 -0.515797,-0.7797959 C 30.067886,7.4071563 29.723426,7.0069698 28.957677,6.2415224 28.456201,5.7402448 28.204379,5.5114411 27.78061,5.1720499 27.312963,4.7975175 26.805393,4.4409704 26.295962,4.1291458 L 26.18962,4.0640533 v -0.02183 c 0,-0.012006 0.0019,-0.020755 0.0041,-0.019442 0.03221,0.01856 0.27694,0.1703086 0.352172,0.2183668 0.544601,0.3478927 1.10938,0.765109 1.585466,1.1712232 0.527708,0.4501491 1.411151,1.3430211 1.859434,1.8792787 0.266861,0.3192325 0.64318,0.831054 0.917781,1.24825 0.08277,0.1257486 0.230751,0.3573867 0.230751,0.3611956 0,0.00103 -0.0062,6.834e-4 -0.01384,-7.719e-4 -0.0076,-0.00146 -0.01756,4.369e-4 -0.0221,0.0042 -0.0054,0.0045 -0.0083,0.00479 -0.0083,8.472e-4 z"
     id="path1182"
     inkscape:connector-curvature="0" />
  <path
     style="fill:#83f715;fill-opacity:1;stroke:#000080;stroke-width:0.00552427"
     d="M 28.344086,3.1350291 C 28.254651,3.0648252 27.83252,2.7781901 27.600551,2.6301558 26.733557,2.0768713 25.830204,1.6119018 24.877605,1.2286142 23.288834,0.58935613 21.635263,0.2067098 19.925095,0.08257326 19.611834,0.05983444 19.291247,0.04653809 18.904486,0.04024353 L 18.67661,0.03653482 V 0.01795528 -6.242641e-4 l 0.06491,5.435663e-5 c 0.139215,1.1657981e-4 0.576522,0.0114750775 0.747158,0.0194064575 1.305794,0.06069498 2.566263,0.26739018 3.806223,0.62415507 1.80265,0.51866348 3.502549,1.33999808 5.03456,2.43253228 0.09241,0.0659 0.107083,0.078211 0.09322,0.078211 -0.009,0 -0.0236,0.00116 -0.03233,0.00257 -0.01253,0.00203 -0.02229,-0.00246 -0.04626,-0.021278 z"
     id="path1184"
     inkscape:connector-curvature="0" />
  <path
     style="fill:#83f715;fill-opacity:1;stroke:#000080;stroke-width:0.00552427"
     d=""
     id="path1186"
     inkscape:connector-curvature="0" />
  <path
     style="fill:#83f715;fill-opacity:1;stroke:#000080;stroke-width:0.00552427"
     d="m 26.181333,4.0606181 c -0.003,-0.00292 -0.06519,-0.04003 -0.138107,-0.082475 C 24.393574,3.0179288 22.59267,2.4074376 20.564344,2.1208488 20.110962,2.056789 19.830172,2.040354 19.081263,2.0340423 L 18.67661,2.0306319 V 2.0112509 1.99187 l 0.377032,0.00359 c 0.631966,0.00602 1.000101,0.022339 1.277487,0.056631 0.162835,0.02013 0.470265,0.064771 0.643578,0.093452 1.859452,0.3077098 3.53237,0.8978747 5.062369,1.7858808 0.0763,0.044286 0.144948,0.083795 0.152544,0.087798 0.0076,0.004 0.01085,0.00729 0.0072,0.00731 -0.0036,1.66e-5 -0.0073,0.00889 -0.0083,0.019709 -0.0011,0.012938 -0.0036,0.01786 -0.0072,0.014373 z"
     id="path1188"
     inkscape:connector-curvature="0" />
  <path
     style="fill:#83f715;fill-opacity:1;stroke:#000080;stroke-width:0.00552427"
     d=""
     id="path1190"
     inkscape:connector-curvature="0" />
  <path
     style="fill:#83f715;fill-opacity:1;stroke:#000080;stroke-width:0.00552427"
     d=""
     id="path1192"
     inkscape:connector-curvature="0" />
  <path
     style="fill:#83f715;fill-opacity:1;stroke:#000080;stroke-width:0.00552427"
     d="m 8.5120106,3.534205 c 6.04e-5,-0.024079 2.383e-4,-0.024292 0.056624,-0.06796 1.2929095,-1.0012853 2.7706974,-1.8279336 4.2961464,-2.4031878 1.64858,-0.6216874 3.35737,-0.968244 5.162727,-1.04704317 0.100136,-0.0043707 0.541611,-0.0158588785 0.636068,-0.0165519293 0.0094,-6.914179e-5 0.01228,0.003839869 0.01408,0.0192481893 l 0.0023,0.01933495 -0.02513,9.955e-5 c -0.08022,3.18e-4 -0.509898,0.01160117 -0.624556,0.01639997 C 16.740114,0.10854184 15.416594,0.31825775 14.207474,0.66027878 12.651318,1.1004652 11.144586,1.7813725 9.7701017,2.6655724 9.361739,2.9282703 8.8248523,3.3089875 8.5188554,3.5528562 c -0.00531,0.00423 -0.00689,-7.01e-5 -0.00684,-0.018651 z"
     id="path1194"
     inkscape:connector-curvature="0" />
  <path
     style="fill:#83f715;fill-opacity:1;stroke:#000080;stroke-width:0.00552427"
     d="M 8.0048235,6.6892688 7.9810705,6.6865088 8.1926485,6.470755 C 8.7412498,5.9113245 9.215534,5.4665926 9.547751,5.2000861 9.740697,5.0453035 10.008604,4.8434165 10.229999,4.6859637 c 2.014006,-1.4323333 4.24723,-2.2980406 6.76631,-2.6229538 0.188642,-0.024331 0.294897,-0.033532 0.511918,-0.044326 0.268939,-0.013377 0.482203,-0.019285 0.837599,-0.023203 l 0.329367,-0.00363 0.0023,0.019366 0.0023,0.019366 -0.359248,0.00349 c -0.816877,0.00794 -1.136643,0.031023 -1.743079,0.1258344 C 14.087501,2.5491792 11.902321,3.4689299 9.9124265,4.9652154 9.7343553,5.0991146 9.5561779,5.2391236 9.4510762,5.3277373 9.1133107,5.6125154 8.6048796,6.0975435 8.122294,6.5953562 l -0.093718,0.096675 z"
     id="path1196"
     inkscape:connector-curvature="0" />
  <path
     style="fill:#83f715;fill-opacity:1;stroke:#000080;stroke-width:0.00552427"
     d="m 5.4459792,6.6946558 c 0,-0.00475 -0.00601,-0.00586 -0.019699,-0.00364 -0.010835,0.00176 -0.018914,9.956e-4 -0.017954,-0.00169 0.00327,-0.00915 0.2405078,-0.3173685 0.344537,-0.4476113 C 6.1739159,5.7145633 6.5254962,5.3296305 7.096992,4.7700754 7.6594079,4.2194103 8.0925654,3.832783 8.4817654,3.5340552 l 0.033345,-0.025593 -9.554e-4,0.024018 -9.554e-4,0.024018 -0.1428745,0.1143581 C 8.1468615,3.8497186 8.014837,3.9629603 7.7690669,4.1865748 7.3539627,4.5642585 6.7329973,5.1778831 6.4044404,5.5350694 6.1332873,5.8298499 5.8211595,6.2067679 5.5270698,6.5945606 c -0.0446,0.05881 -0.081091,0.1038531 -0.081091,0.1000952 z"
     id="path1198"
     inkscape:connector-curvature="0" />
  <path
     style="fill:#83f715;fill-opacity:1;stroke:#000080;stroke-width:0.00552427"
     d="m 18.411445,12.812386 c -0.01367,-0.0011 -0.05718,-0.0047 -0.09668,-0.008 -0.321884,-0.02641 -0.69055,-0.121011 -1.045733,-0.268342 -1.0122,-0.419833 -1.811369,-1.282481 -2.138632,-2.308479 -0.110235,-0.3455972 -0.163128,-0.6860275 -0.169944,-1.093806 -0.0067,-0.3990859 0.03448,-0.7398137 0.133294,-1.1037935 0.07794,-0.2870827 0.201729,-0.5885606 0.34408,-0.837988 l 0.0331,-0.058005 0.02377,-0.00174 0.02377,-0.00174 -0.0093,0.014127 c -0.02315,0.035336 -0.103482,0.185388 -0.14217,0.2655689 -0.198087,0.4105389 -0.310658,0.8261335 -0.356879,1.3175388 -0.01349,0.143446 -0.01344,0.5332511 9e-5,0.6794854 0.05285,0.5711812 0.194253,1.0309694 0.459851,1.4952634 0.256809,0.44893 0.62437,0.859642 1.038228,1.160118 0.412671,0.299613 0.875317,0.51297 1.369247,0.631451 0.175771,0.04216 0.266222,0.05737 0.434428,0.07305 0.09876,0.0092 0.552943,0.0092 0.668437,0 0.290504,-0.02318 0.497564,-0.05371 0.668183,-0.09854 0.288816,-0.07589 0.708218,-0.253472 1.018446,-0.431239 0.333662,-0.191196 0.699677,-0.515876 0.96209,-0.853441 l 0.04713,-0.06062 -1.22e-4,0.03221 c -1.21e-4,0.03197 -4.53e-4,0.03263 -0.04464,0.08746 -0.07885,0.09783 -0.183891,0.213031 -0.284856,0.312394 -0.34437,0.338902 -0.66634,0.551391 -1.148123,0.757722 -0.432606,0.185269 -0.687328,0.248349 -1.168384,0.289341 -0.09536,0.0081 -0.552667,0.01553 -0.618718,0.01002 z"
     id="path1200"
     inkscape:connector-curvature="0" />
  <path
     style="fill:#83f715;fill-opacity:1;stroke:#000080;stroke-width:0.00552427"
     d="m 18.579935,10.845232 c -0.367141,-0.02422 -0.696614,-0.152991 -0.988844,-0.386492 -0.08175,-0.06532 -0.220103,-0.204422 -0.288263,-0.28982 -0.206521,-0.2587546 -0.328502,-0.5439634 -0.375391,-0.8777192 -0.01385,-0.098563 -0.01387,-0.3444611 -4.8e-5,-0.4447039 0.04012,-0.2909209 0.137926,-0.5533847 0.292309,-0.7844466 0.27944,-0.4182345 0.711697,-0.6965412 1.213844,-0.7815275 0.179976,-0.03046 0.367201,-0.030378 0.551086,2.424e-4 0.394361,0.065669 0.760418,0.2587668 1.037142,0.5471011 0.204824,0.2134173 0.358091,0.496292 0.430693,0.7948976 0.03516,0.1445963 0.04883,0.2646789 0.04874,0.4281311 -7.3e-5,0.1324393 -0.0084,0.2266971 -0.02992,0.3397427 -0.114167,0.5990347 -0.497298,1.0883263 -1.02956,1.3148363 -0.240172,0.102208 -0.584495,0.158048 -0.861788,0.139758 z m 0.370518,-0.05097 c 0.26644,-0.03584 0.477552,-0.106012 0.677132,-0.225091 0.343388,-0.204881 0.609942,-0.541698 0.742132,-0.9377547 C 20.503424,9.2308115 20.497515,8.8186346 20.352405,8.4238901 20.323735,8.3459005 20.241361,8.1814678 20.194009,8.1077058 20.013465,7.8264655 19.753176,7.6030043 19.438744,7.4593029 18.985769,7.2522852 18.503662,7.2419648 18.047392,7.4295185 c -0.21322,0.087645 -0.389532,0.203382 -0.555141,0.3644099 -0.308977,0.300431 -0.493086,0.6879419 -0.534101,1.1241661 -0.0094,0.1003644 -0.0038,0.3047652 0.01116,0.4022207 0.04612,0.301172 0.171206,0.5862874 0.361328,0.8236008 0.05496,0.0686 0.176794,0.194373 0.243882,0.251762 0.278975,0.238648 0.596749,0.373586 0.963978,0.409341 0.08177,0.008 0.318805,0.0018 0.411957,-0.01076 z"
     id="path1202"
     inkscape:connector-curvature="0" />
  <path
     style="fill:#83f715;fill-opacity:1;stroke:#000080;stroke-width:0.00552427"
     d="m 21.674414,11.357336 c 8.56e-4,-0.03147 0.0024,-0.03461 0.04621,-0.09502 0.413999,-0.570623 0.663356,-1.2661645 0.712264,-1.9867454 0.0074,-0.1089684 0.0074,-0.3735841 -5e-6,-0.4824949 C 22.384008,8.0735105 22.131635,7.402867 21.687984,6.813613 21.276407,6.2669585 20.734058,5.8538726 20.085299,5.5929127 19.847578,5.4972903 19.58862,5.4201987 19.398841,5.3885542 19.233333,5.3609568 19.166432,5.3570361 18.809193,5.3539985 18.19236,5.3487536 18.048702,5.3627755 17.724458,5.4598756 17.197219,5.617766 16.73061,5.8620629 16.331557,6.1891411 16.15528,6.3336238 15.974286,6.5136634 15.828779,6.6892688 c -0.09557,0.1153348 -0.2469,0.328999 -0.297826,0.4204941 -0.01079,0.019392 -0.01965,0.031833 -0.01969,0.027647 -4.8e-5,-0.00576 -0.0053,-0.00677 -0.02175,-0.00414 l -0.02168,0.00347 0.01754,-0.02801 c 0.05736,-0.091594 0.164555,-0.2499466 0.211024,-0.3117314 0.504451,-0.6707104 1.212802,-1.1461326 2.068706,-1.3884479 0.164708,-0.046631 0.265087,-0.065823 0.43918,-0.083973 0.08968,-0.00935 0.756737,-0.013592 0.900456,-0.00573 0.198297,0.010851 0.348466,0.034788 0.53846,0.085831 0.610923,0.1641256 1.142384,0.4510032 1.601871,0.8646733 0.420963,0.3789881 0.775335,0.8950945 0.986394,1.4365807 0.122818,0.3150967 0.201738,0.6561317 0.235818,1.0190345 0.01146,0.1220104 0.0097,0.5322771 -0.0027,0.6546262 -0.06784,0.6650787 -0.278315,1.2604487 -0.633724,1.7926257 -0.03863,0.05784 -0.138443,0.196557 -0.153836,0.213794 -0.0019,0.0021 -0.0031,-0.01077 -0.0026,-0.02867 z"
     id="path1204"
     inkscape:connector-curvature="0" />
  <path
     style="fill:#83f715;fill-opacity:1;stroke:#000080;stroke-width:0.00552427"
     d="m 19.159984,5.324237 c -0.04827,-0.0048 -0.748005,-0.00713 -0.872835,-0.0029 -0.0606,0.00205 -0.06778,0.00164 -0.03315,-0.00192 0.08678,-0.0089 0.632678,-0.012927 0.792733,-0.00585 0.08356,0.00369 0.164347,0.00864 0.179539,0.010985 l 0.02762,0.00427 -0.02486,-9.56e-5 c -0.01367,-5.26e-5 -0.04475,-0.00207 -0.06905,-0.00449 z"
     id="path1206"
     inkscape:connector-curvature="0" />
  <path
     style="fill:#83f715;fill-opacity:1;stroke:#000080;stroke-width:0.00390625"
     d="m 18.38393,5.3044434 c 0.197098,-0.01749 0.4579,-0.017524 0.658203,-8.49e-5 0.04418,0.00385 -0.009,0.00459 -0.328125,0.00459 -0.314457,0 -0.372006,-7.856e-4 -0.330078,-0.00451 z"
     id="path1220"
     inkscape:connector-curvature="0" />
  <path
     style="fill:#83f715;fill-opacity:1;stroke:#000080;stroke-width:0.00390625"
     d="m 19.157368,5.3262789 c -0.04566,-0.00335 -0.901159,-0.00459 -0.914174,-0.00133 -0.0048,0.00122 -0.0099,4.912e-4 -0.01116,-0.00161 -0.0027,-0.00436 0.02126,-0.0065 0.140179,-0.01254 0.08598,-0.00436 0.688769,-0.00745 0.673104,-0.00345 -0.005,0.00127 0.01205,0.00355 0.03783,0.00506 0.128538,0.00754 0.213454,0.017514 0.144531,0.016976 -0.01719,-1.342e-4 -0.04883,-0.00153 -0.07031,-0.00311 z m -0.136719,-0.011646 c -0.08119,-0.00347 -0.447358,-0.00349 -0.542969,-2.29e-5 -0.04221,0.00153 0.07232,0.00269 0.265625,0.00269 0.186914,1.7e-6 0.311719,-0.0012 0.277344,-0.00267 z"
     id="path1222"
     inkscape:connector-curvature="0" />
  <path
     style="fill:#83f715;fill-opacity:1;stroke:#000080;stroke-width:0.00390625"
     d="m 18.493305,5.3148091 c 0.0068,-0.00174 -0.01755,-0.00317 -0.0584,-0.00344 -0.04286,-2.825e-4 -0.06867,-0.00186 -0.06641,-0.00406 0.0023,-0.00219 0.03901,-0.00226 0.09355,-1.809e-4 0.04941,0.00188 0.190039,0.00353 0.3125,0.00366 0.136681,1.477e-4 0.224919,0.0017 0.228516,0.00403 0.0038,0.00246 -0.08631,0.00365 -0.257813,0.00338 -0.145019,-2.213e-4 -0.258398,-0.00174 -0.251953,-0.00338 z"
     id="path1232"
     inkscape:connector-curvature="0" />
</svg>
