<?xml version="1.0" encoding="UTF-8" standalone="no"?>
<svg width="1440px" height="1944px" viewBox="0 0 1440 1944" version="1.1" xmlns="http://www.w3.org/2000/svg" xmlns:xlink="http://www.w3.org/1999/xlink">
    <!-- Generator: sketchtool 43.1 (39012) - http://www.bohemiancoding.com/sketch -->
    <title>large-spinner</title>
    <desc>Created with sketchtool.</desc>
    <defs></defs>
    <g id="Desktop" stroke="none" stroke-width="1" fill="none" fill-rule="evenodd">
        <g id="01-index" transform="translate(0.000000, -2838.000000)" fill="#FFFFFF">
            <g id="large-spinner" transform="translate(-166.000000, 2838.000000)">
                <path d="M986.878909,1458.12299 C961.542971,1458.12299 935.717822,1456.09025 909.957043,1451.89612 C641.766864,1410.05779 458.892368,1161.06052 501.221924,896.084407 C543.770337,630.928176 795.494731,450.014692 1063.71066,492.084603 C1331.88796,534.103053 1514.74958,783.010263 1472.35566,1048.07644 C1470.05122,1062.13834 1467.21895,1075.99439 1463.89747,1089.67033 L1516.75792,1102.69013 C1573.2617,879.076327 1479.87405,644.797095 1284.30583,519.114843 C1088.78912,393.702764 834.28395,404.792753 650.546899,546.492449 C466.796975,688.37226 394.47111,929.997644 470.375934,1147.78341 C546.31938,1365.7107 753.718755,1511.84896 986.878909,1511.84896 L3609.19064,1511.84896 L3609.19064,1458.12299 L986.878909,1458.12299 Z" id="Fill-1"></path>
                <path d="M983.870614,1566.15646 C905.493991,1566.18219 825.765603,1550.9624 749.139837,1518.72167 C443.602322,1390.56926 301.087668,1042.00653 430.779865,739.978018 C560.484937,438.103889 913.128244,297.214715 1218.65289,425.251338 C1405.98177,503.897628 1532.06926,665.577315 1571.55367,848.536401 L1624.86471,837.446412 C1553.37565,504.437976 1233.45793,283.101353 892.620038,330.381758 C551.679153,377.803683 305.966896,677.77373 329.912447,1017.15055 C353.973865,1356.69462 639.595375,1619.88244 983.870614,1619.88244 L3609.19064,1619.88244 L3609.19064,1566.15646 L983.870614,1566.15646 Z" id="Fill-4"></path>
                <path d="M983.870614,1674.15777 C674.921501,1674.31215 390.600259,1473.54733 301.190659,1165.40775 C193.15245,792.902481 411.159962,404.212523 788.0063,297.300913 C1165.03287,190.492227 1558.28063,405.859296 1666.37033,778.596138 C1689.89104,859.62253 1697.95014,941.485175 1692.32422,1020.99345 L1746.66517,1024.68582 C1768.52515,715.040982 1596.64501,423.420589 1313.04471,289.723183 C1029.43153,156.064372 692.069606,207.423114 462.333923,419.187867 C232.456627,630.92689 157.25987,960.204355 272.365879,1249.13588 C387.420393,1538.0288 669.720424,1727.90948 983.870614,1727.90948 L3609.19064,1727.90948 L3609.19064,1674.15777 L983.870614,1674.15777 Z" id="Fill-7"></path>
                <path d="M983.870614,1782.23113 C537.852528,1782.15393 172.412512,1428.75381 164.610897,986.093433 C156.680542,538.917292 517.112591,170.168728 969.477535,162.346555 C1397.9098,154.858883 1755.16198,473.792554 1798.66307,887.287035 L1853.02977,881.703445 C1803.70966,418.780034 1392.41262,77.8207699 922.912448,110.305946 C453.27066,142.739661 93.9972673,537.064672 110.450179,1002.16234 C126.864468,1467.36293 513.083044,1835.96997 983.870614,1835.96997 L3609.19064,1835.96997 L3609.19064,1782.23113 L983.870614,1782.23113 Z" id="Fill-10"></path>
                <path d="M983.870614,1890.25431 C920.157423,1890.04846 855.478685,1883.39704 790.761326,1869.86262 C289.14064,1764.46913 -31.0989294,1277.01137 75.5488933,781.25542 C182.196716,285.383678 675.191854,-31.1184295 1176.81254,74.2621957 C1297.19687,99.4012192 1407.16617,146.720221 1503.25735,210.82859 L1533.66563,166.288519 C1184.06058,-66.7813636 722.915596,-53.5943119 387.574881,199.301177 C52.1826695,452.055147 -82.6977311,888.179895 52.3757787,1283.13531 C187.372045,1678.00067 562.055559,1943.99315 983.870614,1943.99315 L3609.19064,1943.99315 L3609.19064,1890.25431 L983.870614,1890.25431 Z" id="Fill-13"></path>
            </g>
        </g>
    </g>
</svg>