<?xml version="1.0" encoding="UTF-8" standalone="no"?>
<svg width="30px" height="40px" viewBox="0 0 30 40" version="1.1" xmlns="http://www.w3.org/2000/svg" xmlns:xlink="http://www.w3.org/1999/xlink">
    <!-- Generator: sketchtool 43.1 (39012) - http://www.bohemiancoding.com/sketch -->
    <title>location-large</title>
    <desc>Created with sketchtool.</desc>
    <defs></defs>
    <g id="Desktop" stroke="none" stroke-width="1" fill="none" fill-rule="evenodd">
        <g id="01-index" transform="translate(-541.000000, -6346.000000)" fill-rule="nonzero" fill="#83F715">
            <g id="disciplines" transform="translate(150.000000, 5161.000000)">
                <path d="M406,1185 C414.283797,1185 421,1191.7162 421,1200 C421,1205.76991 409.472931,1224.11038 406.007519,1224.09089 C402.488205,1224.11029 391,1205.84141 391,1200 C391,1191.7162 397.716203,1185 406,1185 Z M406.309323,1220.9761 C406.769814,1220.55738 407.35262,1219.92087 408.016764,1219.109 C409.366487,1217.45907 410.969871,1215.18754 412.500574,1212.75207 C415.922612,1207.30734 418.272727,1202.20855 418.272727,1200 C418.272727,1193.22243 412.777566,1187.72727 406,1187.72727 C399.222434,1187.72727 393.727273,1193.22243 393.727273,1200 C393.727273,1202.24549 396.069699,1207.348 399.486041,1212.78077 C401.014015,1215.21059 402.615691,1217.47418 403.966352,1219.1174 C404.630627,1219.92557 405.214236,1220.5589 405.676193,1220.97532 C405.794916,1221.08233 405.902038,1221.1717 405.994868,1221.24242 C406.08655,1221.17167 406.192243,1221.08256 406.309323,1220.9761 Z M402.818182,1198.86364 C402.818182,1200.62107 404.242759,1202.04545 406,1202.04545 C407.757241,1202.04545 409.181818,1200.62107 409.181818,1198.86364 C409.181818,1197.1062 407.757241,1195.68182 406,1195.68182 C404.242759,1195.68182 402.818182,1197.1062 402.818182,1198.86364 Z M400.090909,1198.86364 C400.090909,1195.59988 402.736613,1192.95455 406,1192.95455 C409.263387,1192.95455 411.909091,1195.59988 411.909091,1198.86364 C411.909091,1202.12739 409.263387,1204.77273 406,1204.77273 C402.736613,1204.77273 400.090909,1202.12739 400.090909,1198.86364 Z" id="location-large"></path>
            </g>
        </g>
    </g>
</svg>