<?xml version="1.0" encoding="UTF-8" standalone="no"?>
<svg width="20px" height="20px" viewBox="0 0 20 20" version="1.1" xmlns="http://www.w3.org/2000/svg" xmlns:xlink="http://www.w3.org/1999/xlink">
    <!-- Generator: sketchtool 43.1 (39012) - http://www.bohemiancoding.com/sketch -->
    <title>menu-close</title>
    <desc>Created with sketchtool.</desc>
    <defs></defs>
    <g id="Desktop" stroke="none" stroke-width="1" fill="none" fill-rule="evenodd">
        <g id="mobile-menu" transform="translate(-273.000000, -23.000000)" fill-rule="nonzero" fill="#01573E">
            <g id="menu-close" transform="translate(273.000000, 23.000000)">
                <g id="Layer_1">
                    <path d="M9.70588235,11.6910008 L16.8934148,18.8785332 C17.3895792,19.3746976 18.1941336,19.3746976 18.6902979,18.8785332 C19.1864623,18.3823689 19.1864623,17.5778145 18.6902979,17.0816501 L11.5027655,9.89411765 L18.6902979,2.70658519 C19.1864623,2.21042084 19.1864623,1.40586642 18.6902979,0.909702074 C18.1941336,0.413537724 17.3895792,0.413537724 16.8934148,0.909702074 L9.70588235,8.09723453 L2.51834989,0.909702074 C2.02218554,0.413537724 1.21763113,0.413537724 0.72146678,0.909702074 C0.22530243,1.40586642 0.22530243,2.21042084 0.72146678,2.70658519 L7.90899924,9.89411765 L0.72146678,17.0816501 C0.22530243,17.5778145 0.22530243,18.3823689 0.72146678,18.8785332 C1.21763113,19.3746976 2.02218554,19.3746976 2.51834989,18.8785332 L9.70588235,11.6910008 Z" id="Shape"></path>
                </g>
            </g>
        </g>
    </g>
</svg>