<?xml version="1.0" encoding="UTF-8" standalone="no"?>
<svg width="238px" height="266px" viewBox="0 0 238 266" version="1.1" xmlns="http://www.w3.org/2000/svg" xmlns:xlink="http://www.w3.org/1999/xlink">
    <!-- Generator: sketchtool 43 (38998) - http://www.bohemiancoding.com/sketch -->
    <title>Page 1</title>
    <desc>Created with sketchtool.</desc>
    <defs>
        <polygon id="path-1" points="1.71473565e-20 0.0302242633 1.71473565e-20 88.5175547 3.52992541 89.3341885 3.52992541 0.0302242633 0 0.0302242633"></polygon>
        <polygon id="path-3" points="0.0792596047 90.5235016 3.60931154 91.3401646 3.60931154 0.0302242633 0.0792596047 0.0302242633 0.0792596047 90.5235016"></polygon>
        <polygon id="path-5" points="0.893394146 92.5294778 4.42344608 93.3461408 4.42344608 0.0302242633 0.893394146 0.0302242633 0.893394146 92.5294778"></polygon>
        <polygon id="path-7" points="0.707528688 94.5354539 4.23758062 95.352117 4.23758062 0.0302242633 0.707528688 0.0302242633 0.707528688 94.5354539"></polygon>
        <polygon id="path-9" points="0.52166323 96.5414301 4.05171516 97.3580932 4.05171516 0.0302242633 0.52166323 0.0302242633 0.52166323 96.5414301"></polygon>
        <polygon id="path-11" points="0.335797772 98.5474063 3.8658497 99.3640694 3.8658497 0.0302242633 0.335797772 0.0302242633 0.335797772 98.5474063"></polygon>
        <polygon id="path-13" points="0.149932313 100.553382 3.67998424 101.370046 3.67998424 0.0302242633 0.149932313 0.0302242633 0.149932313 100.553382"></polygon>
        <polygon id="path-15" points="0.0967435464 102.559388 3.62679548 103.376051 3.62679548 0.0302242633 0.0967435464 0.0302242633 0.0967435464 102.559388"></polygon>
        <polygon id="path-17" points="0.0435795099 104.565364 3.57363144 105.382027 3.57363144 0.0302242633 0.0435795099 0.0302242633 0.0435795099 104.565364"></polygon>
        <polygon id="path-19" points="0.857714052 106.57134 4.38776598 107.388003 4.38776598 0.0302242633 0.857714052 0.0302242633 0.857714052 106.57134"></polygon>
        <polygon id="path-21" points="0.671848593 108.577316 4.20190052 109.39398 4.20190052 0.0302242633 0.671848593 0.0302242633"></polygon>
        <polygon id="path-23" points="0.485983135 110.583293 4.01603507 111.399956 4.01603507 0.0302242633 0.485983135 0.0302242633"></polygon>
        <polygon id="path-25" points="0.300117677 112.589269 3.83016961 113.405932 3.83016961 0.0302242633 0.300117677 0.0302242633 0.300117677 112.589269"></polygon>
        <polygon id="path-27" points="0.114252218 114.595245 3.64430415 115.411908 3.64430415 0.0302242633 0.114252218 0.0302242633 0.114252218 114.595245"></polygon>
        <polygon id="path-29" points="0.0609369265 115.418594 3.59098886 114.602958 3.59098886 0.0302242633 0.0609369265 0.0302242633"></polygon>
        <polygon id="path-31" points="0.00777288999 113.41514 3.53782482 112.599503 3.53782482 0.0302242633 0.00777288999 0.0302242633"></polygon>
        <polygon id="path-33" points="0.821907432 111.411685 4.35195936 110.596049 4.35195936 0.0302242633 0.821907432 0.0302242633 0.821907432 111.411685"></polygon>
        <polygon id="path-35" points="0.636041973 109.408231 4.1660939 108.592595 4.1660939 0.0302242633 0.636041973 0.0302242633 0.636041973 109.408231"></polygon>
        <polygon id="path-37" points="0.450176515 107.404777 3.98022845 106.58914 3.98022845 0.0302242633 0.450176515 0.0302242633 0.450176515 107.404777"></polygon>
        <polygon id="path-39" points="0.264311057 105.401323 3.79436299 104.585686 3.79436299 0.0302242633 0.264311057 0.0302242633 0.264311057 105.401323"></polygon>
        <polygon id="path-41" points="0.0784455985 103.397868 3.60849753 102.582232 3.60849753 0.0302242633 0.0784455985 0.0302242633 0.0784455985 103.397868"></polygon>
        <polygon id="path-43" points="0.0251303065 101.394414 3.55518224 100.578778 3.55518224 0.0302242633 0.0251303065 0.0302242633"></polygon>
        <polygon id="path-45" points="0.97196627 99.3909596 4.5020182 98.5753233 4.5020182 0.0302242633 0.97196627 0.0302242633"></polygon>
        <polygon id="path-47" points="0.786100812 97.3875053 4.31615274 96.571869 4.31615274 0.0302242633 0.786100812 0.0302242633"></polygon>
        <polygon id="path-49" points="0.600361879 95.3840218 4.13041381 94.5683855 4.13041381 0.0302242633 0.600361879 0.0302242633 0.600361879 95.3840218"></polygon>
        <polygon id="path-51" points="0.41449642 93.3805675 3.94454835 92.5649312 3.94454835 0.0302242633 0.41449642 0.0302242633"></polygon>
        <polygon id="path-53" points="0.228630962 91.3771132 3.75868289 90.5614769 3.75868289 0.0302242633 0.228630962 0.0302242633 0.228630962 91.3771132"></polygon>
        <polygon id="path-55" points="0.0427655037 89.3736589 3.57281743 88.5580226 3.57281743 0.0302242633 0.0427655037 0.0302242633"></polygon>
    </defs>
    <g id="Desktop" stroke="none" stroke-width="1" fill="none" fill-rule="evenodd">
        <g id="01-index" transform="translate(-165.000000, -172.000000)">
            <g id="Page-1" transform="translate(165.000000, 172.000000)">
                <path d="M118.849257,129.492975 C91.8728279,129.492975 69.9257738,75.9085407 69.9257738,48.9290448 C69.9257738,21.949549 91.8728279,0 118.849257,0 C145.825686,0 167.77274,21.949549 167.77274,48.9290448 C167.77274,75.9085407 145.825686,129.492975 118.849257,129.492975" id="Fill-1" fill="#CFE3A5"></path>
                <g id="Group-87" transform="translate(0.000000, 150.524499)">
                    <g id="Group-5">
                        <mask id="mask-2" fill="white">
                            <use xlink:href="#path-1"></use>
                        </mask>
                        <g id="Clip-4"></g>
                        <polygon id="Fill-3" fill="#FFFFFF" mask="url(#mask-2)" points="3.52992541 0.0302242633 3.52992541 191.208696 -0.000126525159 191.208696 -0.000126525159 0.0302242633"></polygon>
                    </g>
                    <g id="Group-8" transform="translate(8.591510, 0.000000)">
                        <mask id="mask-4" fill="white">
                            <use xlink:href="#path-3"></use>
                        </mask>
                        <g id="Clip-7"></g>
                        <polygon id="Fill-6" fill="#FFFFFF" mask="url(#mask-4)" points="3.60931154 0.0302242633 3.60931154 191.208696 0.0792596047 191.208696 0.0792596047 0.0302242633"></polygon>
                    </g>
                    <g id="Group-11" transform="translate(16.448271, 0.000000)">
                        <mask id="mask-6" fill="white">
                            <use xlink:href="#path-5"></use>
                        </mask>
                        <g id="Clip-10"></g>
                        <polygon id="Fill-9" fill="#FFFFFF" mask="url(#mask-6)" points="4.42344608 0.0302242633 4.42344608 191.208696 0.893394146 191.208696 0.893394146 0.0302242633"></polygon>
                    </g>
                    <g id="Group-14" transform="translate(25.305032, 0.000000)">
                        <mask id="mask-8" fill="white">
                            <use xlink:href="#path-7"></use>
                        </mask>
                        <g id="Clip-13"></g>
                        <polygon id="Fill-12" fill="#FFFFFF" mask="url(#mask-8)" points="4.23758062 0.0302242633 4.23758062 191.208696 0.707528688 191.208696 0.707528688 0.0302242633"></polygon>
                    </g>
                    <g id="Group-17" transform="translate(34.161793, 0.000000)">
                        <mask id="mask-10" fill="white">
                            <use xlink:href="#path-9"></use>
                        </mask>
                        <g id="Clip-16"></g>
                        <polygon id="Fill-15" fill="#FFFFFF" mask="url(#mask-10)" points="4.05171516 0.0302242633 4.05171516 191.208696 0.52166323 191.208696 0.52166323 0.0302242633"></polygon>
                    </g>
                    <g id="Group-20" transform="translate(43.018554, 0.000000)">
                        <mask id="mask-12" fill="white">
                            <use xlink:href="#path-11"></use>
                        </mask>
                        <g id="Clip-19"></g>
                        <polygon id="Fill-18" fill="#FFFFFF" mask="url(#mask-12)" points="3.8658497 0.0302242633 3.8658497 191.208696 0.335797772 191.208696 0.335797772 0.0302242633"></polygon>
                    </g>
                    <g id="Group-23" transform="translate(51.875315, 0.000000)">
                        <mask id="mask-14" fill="white">
                            <use xlink:href="#path-13"></use>
                        </mask>
                        <g id="Clip-22"></g>
                        <polygon id="Fill-21" fill="#FFFFFF" mask="url(#mask-14)" points="3.67998424 0.0302242633 3.67998424 191.208696 0.149932313 191.208696 0.149932313 0.0302242633"></polygon>
                    </g>
                    <g id="Group-26" transform="translate(60.599526, 0.000000)">
                        <mask id="mask-16" fill="white">
                            <use xlink:href="#path-15"></use>
                        </mask>
                        <g id="Clip-25"></g>
                        <polygon id="Fill-24" fill="#FFFFFF" mask="url(#mask-16)" points="3.62679548 0.0302242633 3.62679548 191.208696 0.0967435464 191.208696 0.0967435464 0.0302242633"></polygon>
                    </g>
                    <g id="Group-29" transform="translate(69.323586, 0.000000)">
                        <mask id="mask-18" fill="white">
                            <use xlink:href="#path-17"></use>
                        </mask>
                        <g id="Clip-28"></g>
                        <polygon id="Fill-27" fill="#FFFFFF" mask="url(#mask-18)" points="3.57363144 0.0302242633 3.57363144 191.208696 0.0435795099 191.208696 0.0435795099 0.0302242633"></polygon>
                    </g>
                    <g id="Group-32" transform="translate(77.180347, 0.000000)">
                        <mask id="mask-20" fill="white">
                            <use xlink:href="#path-19"></use>
                        </mask>
                        <g id="Clip-31"></g>
                        <polygon id="Fill-30" fill="#FFFFFF" mask="url(#mask-20)" points="4.38776598 0.0302242633 4.38776598 191.208696 0.857714052 191.208696 0.857714052 0.0302242633"></polygon>
                    </g>
                    <g id="Group-35" transform="translate(86.037108, 0.000000)">
                        <mask id="mask-22" fill="white">
                            <use xlink:href="#path-21"></use>
                        </mask>
                        <g id="Clip-34"></g>
                        <polygon id="Fill-33" fill="#FFFFFF" mask="url(#mask-22)" points="4.20190052 0.0302242633 4.20190052 191.208696 0.671848593 191.208696 0.671848593 0.0302242633"></polygon>
                    </g>
                    <g id="Group-38" transform="translate(94.893869, 0.000000)">
                        <mask id="mask-24" fill="white">
                            <use xlink:href="#path-23"></use>
                        </mask>
                        <g id="Clip-37"></g>
                        <polygon id="Fill-36" fill="#FFFFFF" mask="url(#mask-24)" points="4.01603507 0.0302242633 4.01603507 191.208696 0.485983135 191.208696 0.485983135 0.0302242633"></polygon>
                    </g>
                    <g id="Group-41" transform="translate(103.750630, 0.000000)">
                        <mask id="mask-26" fill="white">
                            <use xlink:href="#path-25"></use>
                        </mask>
                        <g id="Clip-40"></g>
                        <polygon id="Fill-39" fill="#FFFFFF" mask="url(#mask-26)" points="3.83016961 0.0302242633 3.83016961 191.208696 0.300117677 191.208696 0.300117677 0.0302242633"></polygon>
                    </g>
                    <g id="Group-44" transform="translate(112.607391, 0.000000)">
                        <mask id="mask-28" fill="white">
                            <use xlink:href="#path-27"></use>
                        </mask>
                        <g id="Clip-43"></g>
                        <polygon id="Fill-42" fill="#FFFFFF" mask="url(#mask-28)" points="3.64430415 0.0302242633 3.64430415 191.208696 0.114252218 191.208696 0.114252218 0.0302242633"></polygon>
                    </g>
                    <g id="Group-47" transform="translate(121.331602, 0.000000)">
                        <mask id="mask-30" fill="white">
                            <use xlink:href="#path-29"></use>
                        </mask>
                        <g id="Clip-46"></g>
                        <polygon id="Fill-45" fill="#FFFFFF" mask="url(#mask-30)" points="3.59098886 0.0302242633 3.59098886 191.208696 0.0609369265 191.208696 0.0609369265 0.0302242633"></polygon>
                    </g>
                    <g id="Group-50" transform="translate(130.055662, 0.000000)">
                        <mask id="mask-32" fill="white">
                            <use xlink:href="#path-31"></use>
                        </mask>
                        <g id="Clip-49"></g>
                        <polygon id="Fill-48" fill="#FFFFFF" mask="url(#mask-32)" points="3.53782482 0.0302242633 3.53782482 191.208696 0.00777288999 191.208696 0.00777288999 0.0302242633"></polygon>
                    </g>
                    <g id="Group-53" transform="translate(137.912423, 0.000000)">
                        <mask id="mask-34" fill="white">
                            <use xlink:href="#path-33"></use>
                        </mask>
                        <g id="Clip-52"></g>
                        <polygon id="Fill-51" fill="#FFFFFF" mask="url(#mask-34)" points="4.35195936 0.0302242633 4.35195936 191.208696 0.821907432 191.208696 0.821907432 0.0302242633"></polygon>
                    </g>
                    <g id="Group-56" transform="translate(146.769184, 0.000000)">
                        <mask id="mask-36" fill="white">
                            <use xlink:href="#path-35"></use>
                        </mask>
                        <g id="Clip-55"></g>
                        <polygon id="Fill-54" fill="#FFFFFF" mask="url(#mask-36)" points="4.1660939 0.0302242633 4.1660939 191.208696 0.636041973 191.208696 0.636041973 0.0302242633"></polygon>
                    </g>
                    <g id="Group-59" transform="translate(155.625945, 0.000000)">
                        <mask id="mask-38" fill="white">
                            <use xlink:href="#path-37"></use>
                        </mask>
                        <g id="Clip-58"></g>
                        <polygon id="Fill-57" fill="#FFFFFF" mask="url(#mask-38)" points="3.98022845 0.0302242633 3.98022845 191.208696 0.450176515 191.208696 0.450176515 0.0302242633"></polygon>
                    </g>
                    <g id="Group-62" transform="translate(164.482706, 0.000000)">
                        <mask id="mask-40" fill="white">
                            <use xlink:href="#path-39"></use>
                        </mask>
                        <g id="Clip-61"></g>
                        <polygon id="Fill-60" fill="#FFFFFF" mask="url(#mask-40)" points="3.79436299 0.0302242633 3.79436299 191.208696 0.264311057 191.208696 0.264311057 0.0302242633"></polygon>
                    </g>
                    <g id="Group-65" transform="translate(173.339468, 0.000000)">
                        <mask id="mask-42" fill="white">
                            <use xlink:href="#path-41"></use>
                        </mask>
                        <g id="Clip-64"></g>
                        <polygon id="Fill-63" fill="#FFFFFF" mask="url(#mask-42)" points="3.60849753 0.0302242633 3.60849753 191.208696 0.0784455985 191.208696 0.0784455985 0.0302242633"></polygon>
                    </g>
                    <g id="Group-68" transform="translate(182.063679, 0.000000)">
                        <mask id="mask-44" fill="white">
                            <use xlink:href="#path-43"></use>
                        </mask>
                        <g id="Clip-67"></g>
                        <polygon id="Fill-66" fill="#FFFFFF" mask="url(#mask-44)" points="3.55518224 0.0302242633 3.55518224 191.208696 0.0251303065 191.208696 0.0251303065 0.0302242633"></polygon>
                    </g>
                    <g id="Group-71" transform="translate(189.787738, 0.000000)">
                        <mask id="mask-46" fill="white">
                            <use xlink:href="#path-45"></use>
                        </mask>
                        <g id="Clip-70"></g>
                        <polygon id="Fill-69" fill="#FFFFFF" mask="url(#mask-46)" points="4.5020182 0.0302242633 4.5020182 191.208696 0.97196627 191.208696 0.97196627 0.0302242633"></polygon>
                    </g>
                    <g id="Group-74" transform="translate(198.644499, 0.000000)">
                        <mask id="mask-48" fill="white">
                            <use xlink:href="#path-47"></use>
                        </mask>
                        <g id="Clip-73"></g>
                        <polygon id="Fill-72" fill="#FFFFFF" mask="url(#mask-48)" points="4.31615274 0.0302242633 4.31615274 191.208696 0.786100812 191.208696 0.786100812 0.0302242633"></polygon>
                    </g>
                    <g id="Group-77" transform="translate(207.501260, 0.000000)">
                        <mask id="mask-50" fill="white">
                            <use xlink:href="#path-49"></use>
                        </mask>
                        <g id="Clip-76"></g>
                        <polygon id="Fill-75" fill="#FFFFFF" mask="url(#mask-50)" points="4.13041381 0.0302242633 4.13041381 191.208696 0.600361879 191.208696 0.600361879 0.0302242633"></polygon>
                    </g>
                    <g id="Group-80" transform="translate(216.358022, 0.000000)">
                        <mask id="mask-52" fill="white">
                            <use xlink:href="#path-51"></use>
                        </mask>
                        <g id="Clip-79"></g>
                        <polygon id="Fill-78" fill="#FFFFFF" mask="url(#mask-52)" points="3.94454835 0.0302242633 3.94454835 191.208696 0.41449642 191.208696 0.41449642 0.0302242633"></polygon>
                    </g>
                    <g id="Group-83" transform="translate(225.214783, 0.000000)">
                        <mask id="mask-54" fill="white">
                            <use xlink:href="#path-53"></use>
                        </mask>
                        <g id="Clip-82"></g>
                        <polygon id="Fill-81" fill="#FFFFFF" mask="url(#mask-54)" points="3.75868289 0.0302242633 3.75868289 191.208696 0.228630962 191.208696 0.228630962 0.0302242633"></polygon>
                    </g>
                    <g id="Group-86" transform="translate(234.071544, 0.000000)">
                        <mask id="mask-56" fill="white">
                            <use xlink:href="#path-55"></use>
                        </mask>
                        <g id="Clip-85"></g>
                        <polygon id="Fill-84" fill="#FFFFFF" mask="url(#mask-56)" points="3.57281743 0.0302242633 3.57281743 191.208696 0.0427655037 191.208696 0.0427655037 0.0302242633"></polygon>
                    </g>
                </g>
                <g id="Group-143" transform="translate(0.000000, 6.402901)">
                    <polygon id="Fill-88" fill="#CFE3A5" points="0 208.051127 0 16.6904391 237.69902 16.6904391 237.69902 208.078966 118.83496 235.543108"></polygon>
                    <polygon id="Fill-90" fill="#FFFFFF" points="6.32625794 200.333101 6.32625794 23.6143032 231.372762 23.6143032 231.372762 200.359674 118.83496 226.362285"></polygon>
                    <polygon id="Fill-92" fill="#00593E" points="225.046757 195.674295 118.851661 220.226762 12.6527689 195.674295 12.6527689 30.5376612 225.046757 30.5376612"></polygon>
                    <polygon id="Fill-94" fill="#CFE3A5" points="118.898475 188.264139 120.814066 194.195048 127.04543 194.183659 121.997076 197.836856 123.932911 203.760172 118.898475 200.087994 113.864039 203.760172 115.801139 197.836856 110.752786 194.183659 116.985415 194.195048"></polygon>
                    <polygon id="Fill-96" fill="#CFE3A5" points="139.594575 188.092552 141.024309 192.521436 145.67917 192.513843 141.90872 195.243301 143.354903 199.667123 139.594575 196.923746 135.834247 199.667123 137.28043 195.243301 133.50998 192.513843 138.164841 192.521436"></polygon>
                    <polygon id="Fill-98" fill="#CFE3A5" points="98.2033877 188.092552 99.633122 192.521436 104.287983 192.513843 100.516268 195.243301 101.963715 199.667123 98.2033877 196.923746 94.44306 199.667123 95.8892425 195.243301 92.1187928 192.513843 96.7736534 192.521436"></polygon>
                    <path d="M179.730759,50.639986 C179.814266,50.639986 179.886385,50.6703555 179.947117,50.7310945 C180.00785,50.7918334 180.038216,50.863961 180.038216,50.9474771 L180.038216,52.6671495 C180.038216,52.7506656 180.00785,52.8227931 179.947117,52.8835321 C179.886385,52.9442711 179.814266,52.9746405 179.730759,52.9746405 L172.864239,52.9746405 C172.780732,52.9746405 172.708613,52.9442711 172.647881,52.8847975 C172.587149,52.8265893 172.556783,52.7544617 172.556783,52.672211 L172.556783,51.2967262 C172.556783,51.0132776 172.655473,50.8120798 172.852852,50.6918672 C174.143408,49.8934027 175.108795,49.2556434 175.750278,48.7785893 C176.391761,48.3015353 176.713134,47.9320398 176.713134,47.6701029 C176.713134,47.5815253 176.706808,47.5081323 176.696686,47.4524549 C176.684034,47.3967775 176.644811,47.3448963 176.576487,47.2955459 C176.508164,47.2474609 176.406944,47.2234184 176.275357,47.2234184 C176.141241,47.2234184 176.029899,47.2525224 175.9388,47.311996 C175.847702,47.3714696 175.78697,47.4296778 175.756604,47.4891514 C175.726238,47.548625 175.695872,47.6308757 175.665506,47.7371689 C175.63514,47.8447275 175.616161,47.9054665 175.60857,47.9206512 C175.578204,48.0003711 175.471923,48.0408638 175.289726,48.0408638 L172.978112,48.0408638 C172.902197,48.0408638 172.835138,48.0155559 172.778202,47.9624093 C172.721266,47.9105281 172.69343,47.8421967 172.69343,47.759946 C172.69343,46.9159273 173.024926,46.2427369 173.689183,45.7429057 C174.35344,45.2418091 175.244177,44.9912608 176.360129,44.9912608 C177.476081,44.9912608 178.318739,45.2076434 178.888102,45.6404087 C179.457465,46.0731739 179.742147,46.6881561 179.742147,47.4853552 C179.742147,47.8877509 179.609295,48.2534502 179.343592,48.5811876 C179.199354,48.7608738 179.060176,48.9190482 178.927325,49.0569763 C178.794473,49.1949044 178.60342,49.356875 178.3529,49.5441536 C177.753171,49.9832458 177.214174,50.3502104 176.735909,50.639986 L179.730759,50.639986 Z" id="Fill-103" fill="#CFE3A5"></path>
                    <path d="M184.308693,47.9002784 L184.308693,50.0539814 C184.308693,50.2539138 184.380812,50.4222114 184.525051,50.555078 C184.669289,50.6866791 184.843894,50.753745 185.048865,50.753745 C185.253836,50.753745 185.42844,50.6854137 185.572679,50.5500164 C185.716918,50.4120883 185.789037,50.2475869 185.789037,50.0539814 L185.789037,47.9002784 C185.789037,47.7003459 185.718183,47.5320483 185.57774,47.3991818 C185.437297,47.2675807 185.260162,47.2005147 185.048865,47.2005147 C184.836303,47.2005147 184.659167,47.268846 184.51999,47.4042434 C184.378282,47.5421715 184.308693,47.7066729 184.308693,47.9002784 M188.863598,47.9787329 L188.863598,49.998304 C188.863598,50.984047 188.511859,51.7268341 187.809644,52.2304615 C187.107429,52.7340889 186.185061,52.9859026 185.042539,52.9859026 C183.900016,52.9859026 182.980179,52.7340889 182.28176,52.2304615 C181.583341,51.7268341 181.234131,50.9764546 181.234131,49.9767923 L181.234131,48.0002446 C181.234131,47.015767 181.593463,46.2679183 182.315921,45.7579639 C183.037115,45.2467442 183.948096,44.9911343 185.048865,44.9911343 C186.149634,44.9911343 187.060615,45.2467442 187.781808,45.7579639 C188.503002,46.2679183 188.863598,47.0081746 188.863598,47.9787329" id="Fill-105" fill="#CFE3A5"></path>
                    <path d="M195.729233,45.310267 L195.729233,50.6401125 L197.539808,50.6401125 C197.623315,50.6401125 197.695434,50.670482 197.756166,50.731221 C197.816898,50.79196 197.847264,50.8640875 197.847264,50.9476036 L197.847264,52.6660106 C197.847264,52.7507921 197.816898,52.8229196 197.756166,52.8836586 C197.695434,52.9443976 197.623315,52.9747671 197.539808,52.9747671 L190.661901,52.9747671 C190.578394,52.9747671 190.506275,52.9443976 190.445543,52.8836586 C190.38481,52.8229196 190.354444,52.7507921 190.354444,52.6660106 L190.354444,50.9476036 C190.354444,50.8640875 190.38481,50.79196 190.445543,50.731221 C190.506275,50.670482 190.578394,50.6401125 190.661901,50.6401125 L192.768544,50.6401125 L192.768544,47.9068584 L191.618431,48.6698919 C191.550107,48.7141807 191.480518,48.7382232 191.407134,48.7382232 C191.335014,48.7382232 191.26163,48.6850766 191.185715,48.5787834 L190.263346,47.143825 C190.23298,47.083086 190.217797,47.0134892 190.217797,46.9325039 C190.217797,46.8540494 190.267142,46.7755949 190.365832,46.6996712 L192.893804,45.0483302 C192.946945,45.0179607 193.007677,45.0027759 193.076001,45.0027759 L195.421777,45.0027759 C195.505284,45.0027759 195.577403,45.0331454 195.638135,45.0938844 C195.698867,45.1546234 195.729233,45.2267509 195.729233,45.310267" id="Fill-107" fill="#CFE3A5"></path>
                    <path d="M199.521319,45.0025228 L206.09177,45.0025228 C206.182868,45.0025228 206.257518,45.0328923 206.314454,45.0936313 C206.371391,45.1543703 206.399226,45.2264978 206.399226,45.3100139 L206.399226,46.9841321 C206.399226,47.1967185 206.349882,47.390324 206.251192,47.5649486 L203.484087,52.7125772 C203.385397,52.8872017 203.229771,52.974514 203.017209,52.974514 L200.455074,52.974514 C200.386751,52.974514 200.328549,52.9492061 200.279204,52.8998557 C200.22986,52.8505053 200.204555,52.7998894 200.204555,52.7467428 C200.204555,52.6935962 200.212146,52.6518382 200.227329,52.6214687 L203.165243,47.3371774 L199.521319,47.3371774 C199.437812,47.3371774 199.365693,47.3068079 199.304961,47.2460689 C199.244229,47.1853299 199.213863,47.1132024 199.213863,47.0296863 L199.213863,45.3100139 C199.213863,45.2264978 199.244229,45.1543703 199.304961,45.0936313 C199.365693,45.0328923 199.437812,45.0025228 199.521319,45.0025228" id="Fill-109" fill="#CFE3A5"></path>
                    <path d="M40.0316746,50.7536185 L44.575193,50.7536185 C44.6586996,50.7536185 44.730819,50.783988 44.791551,50.844727 C44.8522831,50.905466 44.8826492,50.9775935 44.8826492,51.0611096 L44.8826492,52.6668964 C44.8826492,52.7504125 44.8522831,52.82254 44.791551,52.8845444 C44.730819,52.944018 44.6586996,52.9743875 44.575193,52.9743875 L37.378442,52.9743875 C37.2949354,52.9743875 37.222816,52.944018 37.162084,52.8845444 C37.1013519,52.82254 37.0709859,52.7504125 37.0709859,52.6668964 L37.0709859,45.3098874 C37.0709859,45.2263713 37.1013519,45.1542438 37.162084,45.0935048 C37.222816,45.0327658 37.2949354,45.0023963 37.378442,45.0023963 L44.4613204,45.0023963 C44.544827,45.0023963 44.6169463,45.0327658 44.6776784,45.0935048 C44.7384105,45.1542438 44.7687765,45.2263713 44.7687765,45.3098874 L44.7687765,46.9156742 C44.7687765,46.9991903 44.7384105,47.0713178 44.6776784,47.1320568 C44.6169463,47.1940612 44.544827,47.2231653 44.4613204,47.2231653 L40.0316746,47.2231653 L40.0316746,47.9406445 L43.8350208,47.9406445 C43.9185275,47.9406445 43.9906468,47.971014 44.0513789,48.0330183 C44.1121109,48.0924919 44.142477,48.1646195 44.142477,48.249401 L44.142477,49.7286482 C44.142477,49.8121643 44.1121109,49.8842918 44.0513789,49.9450308 C43.9906468,50.0057698 43.9185275,50.0374047 43.8350208,50.0374047 L40.0316746,50.0374047 L40.0316746,50.7536185 Z" id="Fill-111" fill="#CFE3A5"></path>
                    <path d="M53.8499933,48.7468279 C54.3776032,49.1239157 54.6407755,49.6895475 54.6407755,50.446254 C54.6407755,51.2004296 54.2586695,51.812881 53.4919271,52.2823427 C52.7239194,52.7518044 51.7079223,52.9859026 50.4401402,52.9859026 C49.1723581,52.9859026 48.1867272,52.7543352 47.4845125,52.2924659 C46.7822979,51.8305965 46.4318232,51.2599032 46.4318232,50.5829167 C46.4318232,50.4171499 46.5191256,50.3348992 46.6937303,50.3348992 L49.0268542,50.3348992 C49.1862759,50.3348992 49.3165968,50.3817188 49.4152865,50.4740927 C49.6278487,50.6689635 49.9960369,50.7651336 50.5198511,50.7651336 C51.2397792,50.7651336 51.6016412,50.6588404 51.6016412,50.446254 C51.6016412,50.3133874 51.4877686,50.209625 51.2600233,50.1337013 C51.0310127,50.0552468 50.5805832,49.9805884 49.9049388,49.9071955 C47.7565416,49.659178 46.6810778,48.8632443 46.6810778,47.5206597 C46.6810778,46.7664841 47.0264915,46.1552981 47.7185841,45.6896326 C48.4094114,45.223967 49.3330451,44.9911343 50.4907503,44.9911343 C51.6484555,44.9911343 52.5847417,45.2404172 53.2970783,45.7427792 C54.0106802,46.2426104 54.3687464,46.7715456 54.3687464,47.329585 C54.3687464,47.4042434 54.3434414,47.4649823 54.2940966,47.5092712 C54.2447518,47.5560908 54.1789587,47.5776025 54.0954521,47.5776025 L51.6471903,47.5776025 C51.5092778,47.5776025 51.3928747,47.5345791 51.2929198,47.4485322 C51.1107236,47.2916232 50.8386945,47.2119033 50.474302,47.2119033 C49.9656709,47.2119033 49.7113553,47.3144003 49.7113553,47.5193943 C49.7113553,47.6294837 49.8100449,47.716796 50.0061589,47.777535 C50.2048034,47.8408048 50.5995619,47.9053399 51.1904344,47.9711405 C52.435442,48.110334 53.3223834,48.3684747 53.8499933,48.7468279" id="Fill-113" fill="#CFE3A5"></path>
                    <path d="M56.315589,45.0025228 L64.1728014,45.0025228 C64.256308,45.0025228 64.3284273,45.0328923 64.3891594,45.0936313 C64.4498915,45.1543703 64.4802575,45.2264978 64.4802575,45.3100139 L64.4802575,47.1435719 C64.4802575,47.227088 64.4498915,47.2992155 64.3891594,47.3599545 C64.3284273,47.4206935 64.256308,47.451063 64.1728014,47.451063 L61.7245396,47.451063 L61.7245396,52.6670229 C61.7245396,52.750539 61.6941735,52.8226666 61.6334415,52.8846709 C61.5727094,52.9441445 61.50059,52.974514 61.4170834,52.974514 L59.071307,52.974514 C58.9878004,52.974514 58.9156811,52.9441445 58.854949,52.8846709 C58.7929516,52.8226666 58.7638509,52.750539 58.7638509,52.6670229 L58.7638509,47.451063 L56.315589,47.451063 C56.2320824,47.451063 56.1599631,47.4206935 56.099231,47.3599545 C56.0384989,47.2992155 56.0081329,47.227088 56.0081329,47.1435719 L56.0081329,45.3100139 C56.0081329,45.2264978 56.0384989,45.1543703 56.099231,45.0936313 C56.1599631,45.0328923 56.2320824,45.0025228 56.315589,45.0025228" id="Fill-115" fill="#CFE3A5"></path>
                    <path d="M34.4053538,115.558188 L36.3702895,115.558188 C36.6284009,115.558188 36.7574565,115.688524 36.7574565,115.946664 C36.7574565,116.092185 36.6929287,116.20607 36.563873,116.28579 L34.5508577,117.983951 C34.1143459,118.291442 33.7347705,118.444555 33.4108661,118.444555 L30.6943709,118.444555 C30.3717317,118.444555 29.9921563,118.291442 29.5543792,117.983951 L27.5413639,116.28579 C27.4123083,116.20607 27.3477805,116.092185 27.3477805,115.946664 C27.3477805,115.688524 27.4768361,115.558188 27.7362127,115.558188 L29.6998832,115.558188 C29.9921563,115.558188 30.3147954,115.615131 30.6703311,115.727751 L32.0532511,116.261748 L33.4349058,115.727751 C33.7904415,115.615131 34.1143459,115.558188 34.4053538,115.558188 M39.1462515,127.38837 C40.2697949,128.191896 40.8315666,129.399083 40.8315666,131.006135 C40.8315666,132.614453 40.0154794,133.919075 38.3833048,134.918738 C36.749865,135.9184 34.5837543,136.416966 31.8837074,136.416966 C29.1823953,136.416966 27.0846081,135.924727 25.5890807,134.938984 C24.0948186,133.954506 23.3470549,132.740992 23.3470549,131.298441 C23.3470549,130.946662 23.5317817,130.769506 23.9037656,130.769506 L28.8762044,130.769506 C29.2152918,130.769506 29.4898514,130.870738 29.6998832,131.068139 C30.1528432,131.481924 30.9372992,131.686918 32.0532511,131.686918 C33.5880013,131.686918 34.3572743,131.460412 34.3572743,131.008666 C34.3572743,130.726483 34.1143459,130.505039 33.6297546,130.341803 C33.143898,130.177301 32.1823068,130.016596 30.7424505,129.860952 C26.1673007,129.330752 23.8797258,127.635122 23.8797258,124.777859 C23.8797258,123.169541 24.6161023,121.868715 26.0875899,120.87791 C27.5578122,119.887106 29.5265437,119.389805 31.992519,119.389805 C34.4572291,119.389805 36.4500004,119.923802 37.9695675,120.99053 C39.4903999,122.057259 40.2495509,123.183461 40.2495509,124.370402 C40.2495509,124.531107 40.1976756,124.657646 40.0926597,124.755082 C39.9863786,124.851252 39.8459356,124.899337 39.6675352,124.899337 L34.4534334,124.899337 C34.1636908,124.899337 33.9119057,124.808228 33.7018739,124.624746 C33.3147069,124.288151 32.7326912,124.121119 31.9558267,124.121119 C30.8727714,124.121119 30.3299784,124.338767 30.3299784,124.775328 C30.3299784,125.010692 30.5400102,125.192909 30.961339,125.32704 C31.3814025,125.458642 32.2215296,125.59657 33.4829854,125.737029 C36.1349527,126.033131 38.0227081,126.583578 39.1462515,127.38837" id="Fill-117" fill="#FFFFFF"></path>
                    <path d="M53.7091708,137.145328 C54.0166269,137.145328 54.1697223,137.307298 54.1697223,137.631239 C54.1697223,137.74386 54.1304995,137.84003 54.0495234,137.921015 L51.7455003,139.860866 C51.5999964,139.973486 51.3722511,140.030429 51.0660602,140.030429 L47.8396686,140.030429 C47.5815573,140.030429 47.4525017,139.902624 47.4525017,139.644484 C47.4525017,139.514148 47.4929897,139.40912 47.5739658,139.3294 L48.9809256,137.605931 C49.2061404,137.330075 49.506005,137.176962 49.877989,137.145328 L53.7091708,137.145328 Z M61.5676484,135.543337 C61.6321762,135.642038 61.6638075,135.753393 61.6638075,135.883728 C61.6638075,136.012799 61.6119322,136.13048 61.5069163,136.235508 C61.4006352,136.340536 61.2753753,136.392417 61.1298713,136.392417 L54.8744675,136.392417 C54.5012183,136.392417 54.2102104,136.264612 54.0001786,136.005206 L49.7818298,130.790512 L49.7818298,135.738208 C49.7818298,135.915363 49.7160368,136.069741 49.5869811,136.198812 C49.4579254,136.327882 49.30483,136.392417 49.1264295,136.392417 L44.129951,136.392417 C43.9515505,136.392417 43.7984551,136.327882 43.6693994,136.198812 C43.5403438,136.069741 43.4758159,135.915363 43.4758159,135.738208 L43.4758159,120.070082 C43.4758159,119.891661 43.5403438,119.738548 43.6693994,119.609478 C43.7984551,119.479142 43.9515505,119.414607 44.129951,119.414607 L49.1264295,119.414607 C49.30483,119.414607 49.4579254,119.479142 49.5869811,119.609478 C49.7160368,119.738548 49.7818298,119.891661 49.7818298,120.070082 L49.7818298,124.629301 L53.6130116,119.827126 C53.8546747,119.552535 54.1545393,119.414607 54.510075,119.414607 L60.3542721,119.414607 C60.499776,119.414607 60.6250359,119.466488 60.7313171,119.571516 C60.836333,119.677809 60.8882083,119.799287 60.8882083,119.93595 C60.8882083,120.073878 60.8477202,120.19156 60.7667441,120.28773 L55.0187062,127.29802 L61.5676484,135.543337 Z" id="Fill-119" fill="#FFFFFF"></path>
                    <path d="M78.6409533,124.387484 L74.2505303,124.387484 L74.2505303,131.421818 L78.6409533,131.421818 C78.8180885,131.421818 78.9724492,131.485087 79.1002396,131.615423 C79.2305606,131.743228 79.2950884,131.898872 79.2950884,132.076027 L79.2950884,135.738081 C79.2950884,135.915237 79.2305606,136.069615 79.1002396,136.198685 C78.9724492,136.329021 78.8180885,136.392291 78.6409533,136.392291 L63.265616,136.392291 C63.0859503,136.392291 62.9328548,136.329021 62.8037992,136.198685 C62.6747435,136.069615 62.6102157,135.915237 62.6102157,135.738081 L62.6102157,132.076027 C62.6102157,131.898872 62.6747435,131.743228 62.8037992,131.615423 C62.9328548,131.485087 63.0859503,131.421818 63.265616,131.421818 L67.7015881,131.421818 L67.7015881,124.387484 L63.265616,124.387484 C63.0859503,124.387484 62.9328548,124.321684 62.8037992,124.193879 C62.6747435,124.063543 62.6102157,123.91043 62.6102157,123.73201 L62.6102157,120.069955 C62.6102157,119.891534 62.6747435,119.738422 62.8037992,119.609351 C62.9328548,119.479016 63.0859503,119.41448 63.265616,119.41448 L78.6409533,119.41448 C78.8180885,119.41448 78.9724492,119.479016 79.1002396,119.609351 C79.2305606,119.738422 79.2950884,119.891534 79.2950884,120.069955 L79.2950884,123.73201 C79.2950884,123.91043 79.2305606,124.063543 79.1002396,124.193879 C78.9724492,124.321684 78.8180885,124.387484 78.6409533,124.387484" id="Fill-121" fill="#FFFFFF"></path>
                    <path d="M88.8013031,123.926627 L88.8013031,126.496645 L91.8328459,126.496645 C92.1883816,126.496645 92.4642065,126.378964 92.65779,126.146131 C92.8513735,125.910767 92.9487978,125.61593 92.9487978,125.260354 C92.9487978,124.903513 92.8551692,124.592225 92.6704425,124.325227 C92.4831853,124.059494 92.2048299,123.926627 91.8328459,123.926627 L88.8013031,123.926627 Z M99.9823314,135.641658 C100.013963,135.706193 100.030411,135.794771 100.030411,135.908657 C100.030411,136.021277 99.9772704,136.131366 99.8722545,136.236394 C99.7672387,136.341422 99.6419787,136.393303 99.4964748,136.393303 L93.9926304,136.393303 C93.5067738,136.393303 93.1664211,136.19084 92.9728376,135.787179 L90.8383582,130.983738 L88.8013031,130.983738 L88.8013031,135.737828 C88.8013031,135.916249 88.7367753,136.070627 88.6077196,136.198432 C88.4773987,136.328768 88.3243033,136.393303 88.1459028,136.393303 L82.9090265,136.393303 C82.730626,136.393303 82.5762653,136.328768 82.4484749,136.198432 C82.318154,136.070627 82.2536262,135.916249 82.2536262,135.737828 L82.2536262,120.069702 C82.2536262,119.892547 82.318154,119.738168 82.4484749,119.609098 C82.5762653,119.478762 82.730626,119.415493 82.9090265,119.415493 L92.3427423,119.415493 C94.5581979,119.415493 96.3118366,119.940632 97.6049237,120.992175 C98.8980108,122.042454 99.5445544,123.473616 99.5445544,125.284397 C99.5445544,127.483654 98.6955706,129.075521 96.9988682,130.06253 L99.9823314,135.641658 Z" id="Fill-123" fill="#FFFFFF"></path>
                    <path d="M111.549894,129.141448 L109.827887,124.096317 L108.105879,129.141448 L111.549894,129.141448 Z M105.171761,136.392164 L100.587754,136.392164 C100.44225,136.392164 100.31699,136.340283 100.211975,136.235255 C100.106959,136.130227 100.053818,136.028996 100.053818,135.93156 C100.053818,135.83539 100.062675,135.761997 100.079123,135.713912 L105.365344,120.215349 C105.512113,119.681352 105.875241,119.414354 106.457256,119.414354 L113.199782,119.414354 C113.781798,119.414354 114.144925,119.681352 114.290429,120.215349 L119.577915,135.713912 C119.593098,135.761997 119.60069,135.83539 119.60069,135.93156 C119.60069,136.028996 119.548815,136.130227 119.443799,136.235255 C119.338783,136.340283 119.213523,136.392164 119.068019,136.392164 L114.484013,136.392164 C113.966525,136.392164 113.603397,136.118839 113.393366,135.568392 L112.78731,133.870231 L106.869728,133.870231 L106.262408,135.568392 C106.052376,136.118839 105.689249,136.392164 105.171761,136.392164 L105.171761,136.392164 Z" id="Fill-125" fill="#FFFFFF"></path>
                    <path d="M120.789647,119.414986 L137.523864,119.414986 C137.701,119.414986 137.854095,119.479522 137.984416,119.608592 C138.113472,119.738928 138.177999,119.892041 138.177999,120.070461 L138.177999,123.975472 C138.177999,124.152627 138.113472,124.30574 137.984416,124.436076 C137.854095,124.565146 137.701,124.629681 137.523864,124.629681 L132.308497,124.629681 L132.308497,135.737322 C132.308497,135.915743 132.245235,136.070121 132.114914,136.199191 C131.985858,136.328262 131.832763,136.392797 131.654362,136.392797 L126.659149,136.392797 C126.480748,136.392797 126.327653,136.328262 126.197332,136.199191 C126.068276,136.070121 126.003749,135.915743 126.003749,135.737322 L126.003749,124.629681 L120.789647,124.629681 C120.611246,124.629681 120.458151,124.565146 120.329095,124.436076 C120.198774,124.30574 120.134247,124.152627 120.134247,123.975472 L120.134247,120.070461 C120.134247,119.892041 120.198774,119.738928 120.329095,119.608592 C120.458151,119.479522 120.611246,119.414986 120.789647,119.414986" id="Fill-127" fill="#FFFFFF"></path>
                    <path d="M148.193984,131.421311 L156.463668,131.421311 C156.642069,131.421311 156.795164,131.485847 156.92422,131.614917 C157.054541,131.743987 157.119069,131.898365 157.119069,132.076786 L157.119069,135.737575 C157.119069,135.915996 157.054541,136.070374 156.92422,136.198179 C156.795164,136.328515 156.642069,136.39305 156.463668,136.39305 L142.301707,136.39305 C142.122042,136.39305 141.968946,136.328515 141.841156,136.198179 C141.710835,136.070374 141.646307,135.915996 141.646307,135.737575 L141.646307,120.069449 C141.646307,119.892294 141.710835,119.739181 141.841156,119.608845 C141.968946,119.478509 142.122042,119.41524 142.301707,119.41524 L147.538584,119.41524 C147.716984,119.41524 147.87008,119.478509 148.000401,119.608845 C148.129456,119.739181 148.193984,119.892294 148.193984,120.069449 L148.193984,131.421311 Z" id="Fill-129" fill="#FFFFFF"></path>
                    <path d="M165.486177,126.069321 L165.486177,129.737703 C165.486177,130.365339 165.707597,130.846189 166.1517,131.182784 C166.597068,131.520645 167.199328,131.686412 167.959744,131.686412 C168.718895,131.686412 169.321155,131.516849 169.766524,131.171396 C170.210627,130.828474 170.433311,130.342562 170.433311,129.714926 L170.433311,126.093364 C170.433311,125.464462 170.210627,124.981081 169.766524,124.635628 C169.321155,124.292706 168.718895,124.120612 167.959744,124.120612 C167.199328,124.120612 166.597068,124.28891 166.1517,124.62424 C165.707597,124.960835 165.486177,125.442951 165.486177,126.069321 M176.980988,126.461594 L176.980988,129.346696 C176.980988,130.970198 176.577373,132.326702 175.768877,133.414942 C174.959116,134.501917 173.900101,135.273808 172.590565,135.731881 C171.282295,136.188689 169.737423,136.417725 167.959744,136.417725 C166.180801,136.417725 164.637194,136.188689 163.327658,135.731881 C162.018123,135.273808 160.959107,134.501917 160.149346,133.414942 C159.342116,132.326702 158.937235,130.953748 158.937235,129.299876 L158.937235,126.508414 C158.937235,124.128205 159.773567,122.346528 161.447494,121.163383 C163.121422,119.981504 165.291329,119.390564 167.959744,119.390564 C170.626895,119.390564 172.796801,119.981504 174.471994,121.163383 C176.144657,122.346528 176.980988,124.111755 176.980988,126.461594" id="Fill-131" fill="#FFFFFF"></path>
                    <path d="M190.440355,119.414986 L194.950977,119.414986 C195.129377,119.414986 195.282473,119.479522 195.412794,119.608592 C195.541849,119.738928 195.606377,119.892041 195.606377,120.070461 L195.606377,135.737322 C195.606377,135.915743 195.541849,136.070121 195.412794,136.199191 C195.282473,136.328262 195.129377,136.392797 194.950977,136.392797 L191.046411,136.392797 C190.659244,136.392797 190.335339,136.223234 190.077228,135.884108 L184.789741,129.142081 L184.789741,135.737322 C184.789741,135.915743 184.725214,136.070121 184.596158,136.199191 C184.465837,136.328262 184.312742,136.392797 184.135606,136.392797 L179.623719,136.392797 C179.446584,136.392797 179.292223,136.328262 179.163168,136.199191 C179.032847,136.070121 178.969584,135.915743 178.969584,135.737322 L178.969584,120.070461 C178.969584,119.892041 179.032847,119.738928 179.163168,119.608592 C179.292223,119.479522 179.446584,119.414986 179.623719,119.414986 L183.553591,119.414986 C183.940758,119.414986 184.255805,119.576957 184.498734,119.899633 L189.784955,127.199699 L189.784955,120.070461 C189.784955,119.892041 189.849483,119.738928 189.979803,119.608592 C190.108859,119.479522 190.261955,119.414986 190.440355,119.414986" id="Fill-133" fill="#FFFFFF"></path>
                    <path d="M213.758436,127.387863 C214.881979,128.192655 215.443751,129.398577 215.443751,131.005629 C215.443751,132.615212 214.627664,133.918569 212.994224,134.918232 C211.360784,135.917894 209.195938,136.417725 206.495892,136.417725 C203.794579,136.417725 201.696792,135.924221 200.201265,134.939743 C198.707003,133.954 197.959239,132.740486 197.959239,131.299201 C197.959239,130.947421 198.143966,130.770265 198.51595,130.770265 L203.488389,130.770265 C203.827476,130.770265 204.102036,130.870232 204.312067,131.067633 C204.765027,131.481418 205.549483,131.686412 206.665435,131.686412 C208.200185,131.686412 208.969458,131.461171 208.969458,131.00816 C208.969458,130.727242 208.725265,130.504532 208.241939,130.341296 C207.756082,130.176795 206.794491,130.01609 205.354635,129.860446 C200.779485,129.330245 198.49191,127.634616 198.49191,124.777353 C198.49191,123.169035 199.228286,121.869474 200.699774,120.877404 C202.169996,119.886599 204.137463,119.390564 206.604703,119.390564 C209.069413,119.390564 211.062185,119.924561 212.581752,120.990024 C214.101319,122.056753 214.861735,123.18422 214.861735,124.369895 C214.861735,124.530601 214.80986,124.658406 214.704844,124.754576 C214.598563,124.850746 214.45812,124.898831 214.279719,124.898831 L209.065618,124.898831 C208.775875,124.898831 208.52409,124.807722 208.314058,124.62424 C207.926891,124.28891 207.344875,124.120612 206.568011,124.120612 C205.484956,124.120612 204.942163,124.339526 204.942163,124.776087 C204.942163,125.010185 205.152194,125.193668 205.573523,125.326534 C205.993587,125.459401 206.833714,125.596064 208.09517,125.736522 C210.747137,126.03389 212.634892,126.583072 213.758436,127.387863" id="Fill-135" fill="#FFFFFF"></path>
                    <path d="M118.849257,85.6633474 C95.3611265,85.6633474 76.253297,66.5520804 76.253297,43.0612797 C76.253297,19.5704791 95.3611265,0.459211999 118.849257,0.459211999 C142.337387,0.459211999 161.446482,19.5704791 161.446482,43.0612797 C161.446482,66.5520804 142.337387,85.6633474 118.849257,85.6633474" id="Fill-137" fill="#FFFFFF"></path>
                    <path d="M141.474106,15.9103228 L141.470311,15.9103228 C139.251059,13.910998 137.315224,12.8759046 137.315224,12.8759046 C137.315224,12.8759046 134.611382,12.2849649 132.471841,12.4924898 C131.96321,12.5456364 131.508985,12.7734076 131.111696,13.1087374 C118.031525,9.40492495 114.683669,8.90888994 96.2034045,22.1588454 C87.9425769,34.2661488 85.7106731,60.7597328 95.039373,69.2163704 C101.783164,75.3282303 109.957955,78.4714726 118.81092,78.4714726 C138.302121,78.4714726 154.155723,62.5692483 154.155723,43.1201206 C154.155723,32.6388503 149.451518,22.5422602 141.474106,15.9103228" id="Fill-139" fill="#00573D"></path>
                    <path d="M98.9178753,72.3426564 C89.3943266,65.8081544 83.5438032,54.6132011 83.5438032,43.034833 C83.5438032,23.5426819 99.3961404,7.65184613 118.929094,7.65184613 C125.686803,7.65184613 132.459695,9.73974857 138.136879,13.341064 C152.72776,22.9125149 156.737342,60.235353 118.889872,65.4209434 L118.929094,73.3942 C113.987022,72.9766195 105.724929,65.0134861 101.534416,56.3316081 C102.952763,49.2061664 112.339664,39.0121409 118.767142,39.0918608 L118.929094,47.2346804 C127.640352,44.298963 136.530009,35.5335689 138.464579,29.7494464 C137.711754,24.3310232 125.4211,11.6365763 118.889872,12.3097667 L119.213776,20.3007388 C93.8593994,20.2273458 80.3389209,52.6784115 98.9178753,72.3426564" id="Fill-141" fill="#CFE3A5"></path>
                </g>
            </g>
        </g>
    </g>
</svg>