<?xml version="1.0" encoding="UTF-8" standalone="no"?>
<svg width="70px" height="70px" viewBox="0 0 70 70" version="1.1" xmlns="http://www.w3.org/2000/svg" xmlns:xlink="http://www.w3.org/1999/xlink">
    <!-- Generator: sketchtool 43.1 (39012) - http://www.bohemiancoding.com/sketch -->
    <title>press-bottle</title>
    <desc>Created with sketchtool.</desc>
    <defs></defs>
    <g id="Desktop" stroke="none" stroke-width="1" fill="none" fill-rule="evenodd">
        <g id="01-index" transform="translate(-218.000000, -5860.000000)">
            <g id="disciplines" transform="translate(150.000000, 5161.000000)">
                <g id="Group-22" transform="translate(44.000000, 217.000000)">
                    <g id="press-bottle" transform="translate(24.000000, 482.000000)">
                        <path d="M34.7277544,24.968854 L34.7277544,16.8503309 L37.6727171,16.8503309 L37.6727171,24.968854 L40.8856496,24.968854 L36.2004644,29.6540391 L31.5152793,24.968854 L34.7277544,24.968854 Z" id="Combined-Shape" fill="#FFFFFF"></path>
                        <path d="M11.0123911,44.8338717 L15.0055911,44.8338717 L15.0055911,36.847968 L11.0123911,36.847968 C10.4610059,36.847968 10.0143393,37.2956272 10.0143393,37.8470124 L10.0143393,43.8358198 C10.0143393,44.387205 10.4610059,44.8338717 11.0123911,44.8338717 Z" id="Stroke-3" stroke="#FFFFFF" stroke-width="2"></path>
                        <path d="M15.2604393,36.8479183 L17.9910615,36.8479183 C20.2467281,36.8479183 20.6720541,35.7674813 22.9912467,33.6616961 C25.0732096,31.7713035 26.0836689,35.896022 27.9824985,35.896022 C30.0292244,35.896022 30.5071578,36.9496591 30.9771504,37.892622 C31.447143,36.9496591 31.9250763,35.896022 33.9718022,35.896022 C36.0185281,35.896022 36.4964615,36.9496591 36.9664541,37.892622 C37.436943,36.9496591 37.9148763,35.896022 39.9616022,35.896022 C42.0083281,35.896022 42.4862615,36.9491628 42.9562541,37.8921257 C43.4262467,36.9491628 43.90418,35.8955257 45.9509059,35.8955257 C45.9509059,35.8955257 52.3759578,31.8566665 52.9387578,31.8566665 C54.24898,31.8566665 55.9334096,33.4795554 55.9334096,34.8518146 L55.9334096,36.8484146 C55.9334096,37.3943406 54.9348615,38.8450146 54.9348615,38.8450146 L54.9348615,42.837222 C54.9348615,42.837222 55.9334096,44.2878961 55.9334096,44.833822 L55.9334096,46.830422 C55.9334096,48.2026813 54.24898,49.8250739 52.9387578,49.8250739 L45.9509059,49.8250739 C43.90418,49.8250739 43.4262467,48.7714368 42.9562541,47.8284739 C42.4862615,48.7714368 42.0083281,49.8250739 39.9616022,49.8250739 C37.9148763,49.8250739 37.436943,48.7714368 36.9664541,47.8284739 C36.4964615,48.7714368 36.0185281,49.8250739 33.9718022,49.8250739 C31.9250763,49.8250739 31.447143,48.7714368 30.9771504,47.8284739 C30.5071578,48.7714368 30.0292244,49.8250739 27.9824985,49.8250739 C26.0836689,49.8250739 25.0732096,49.9109331 22.9912467,48.0205406 C20.6720541,45.9147554 20.2467281,44.833822 17.9910615,44.833822 L15.2604393,44.833822" id="Stroke-5" stroke="#FFFFFF" stroke-width="2"></path>
                        <path d="M30.4444444,47.8286228 L30.4444444,44.8339709" id="Stroke-7" stroke="#FFFFFF" stroke-width="2"></path>
                        <path d="M36.4074074,47.8286228 L36.4074074,44.8339709" id="Stroke-9" stroke="#FFFFFF" stroke-width="2"></path>
                        <path d="M42.3703704,47.8286228 L42.3703704,44.8339709" id="Stroke-11" stroke="#FFFFFF" stroke-width="2"></path>
                        <path d="M42.3703704,40.8866287 L42.3703704,37.8919768" id="Stroke-13" stroke="#FFFFFF" stroke-width="2"></path>
                        <path d="M36.4074074,40.8866287 L36.4074074,37.8919768" id="Stroke-15" stroke="#FFFFFF" stroke-width="2"></path>
                        <path d="M30.4444444,40.8866287 L30.4444444,37.8919768" id="Stroke-17" stroke="#FFFFFF" stroke-width="2"></path>
                        <circle id="Oval-3" stroke="#A5F921" stroke-width="2" cx="35" cy="35" r="34"></circle>
                    </g>
                </g>
            </g>
        </g>
    </g>
</svg>