<?xml version="1.0" encoding="UTF-8" standalone="no"?>
<svg width="68px" height="112px" viewBox="0 0 68 112" version="1.1" xmlns="http://www.w3.org/2000/svg" xmlns:xlink="http://www.w3.org/1999/xlink">
    <!-- Generator: sketchtool 43.1 (39012) - http://www.bohemiancoding.com/sketch -->
    <title>stomp-down</title>
    <desc>Created with sketchtool.</desc>
    <defs>
        <polygon id="path-1" points="0 31.8948554 0 0.371285714 67.7025294 0.371285714 67.7025294 31.8948554 67.7025294 63.418425 0 63.418425 0 31.8948554"></polygon>
    </defs>
    <g id="Desktop" stroke="none" stroke-width="1" fill="none" fill-rule="evenodd">
        <g id="01-index" transform="translate(-150.000000, -2746.000000)">
            <g id="tips" transform="translate(150.000000, 2355.000000)">
                <g id="Group-2" transform="translate(0.000000, 388.000000)">
                    <g id="stomp-down" transform="translate(0.000000, 2.000000)">
                        <polygon id="Fill-1" fill="#A5F921" points="57.6117529 39.4573131 62.9301647 39.4573131 63.4266941 2.76459881 57.8092824 1.67764643"></polygon>
                        <polygon id="Fill-2" fill="#A5F921" points="29.5915294 92.4547167 43.723 92.4547167 43.723 75.6378952 29.5915294 75.6378952"></polygon>
                        <g id="Group-10" transform="translate(0.000000, 0.974490)">
                            <path d="M36.6576706,111.654762 C28.7091412,111.654762 14.1758471,89.3009405 14.1758471,89.3009405 L59.1394941,89.3009405 C59.1394941,89.3009405 44.6062,111.654762 36.6576706,111.654762" id="Fill-3" fill="#A5F921"></path>
                            <g id="Group-7">
                                <mask id="mask-2" fill="white">
                                    <use xlink:href="#path-1"></use>
                                </mask>
                                <g id="Clip-6"></g>
                                <path d="M2.37576471,63.3995917 L67.7025294,63.3995917 L67.7025294,3.50152024 C66.1452941,2.75087738 64.5136471,2.13072262 62.8278824,1.63971071 L62.8278824,37.6302107 L58.7690588,37.6302107 L58.7690588,0.754544048 C57.2456471,0.520472619 55.6951765,0.37115119 54.1054706,0.37115119 C48.9575294,0.37115119 44.114,1.63163929 39.8332941,3.82437738 L39.8332941,40.0099369 L0,58.3536036 L2.18364706,63.418425 C2.24723529,63.413044 2.30947059,63.3995917 2.37576471,63.3995917" id="Fill-5" fill="#00593E" mask="url(#mask-2)"></path>
                            </g>
                            <polygon id="Fill-8" fill="#00593E" points="5.33153529 70.4330345 67.7021235 70.4330345 67.7021235 67.0416893 3.09241765 67.0416893"></polygon>
                        </g>
                    </g>
                </g>
            </g>
        </g>
    </g>
</svg>