<?xml version="1.0" encoding="UTF-8" standalone="no"?>
<svg width="100px" height="24px" viewBox="0 0 100 24" version="1.1" xmlns="http://www.w3.org/2000/svg" xmlns:xlink="http://www.w3.org/1999/xlink">
    <!-- Generator: sketchtool 42 (36780) - http://www.bohemiancoding.com/sketch -->
    <title>three-bins</title>
    <desc>Created with sketchtool.</desc>
    <defs></defs>
    <g id="Desktop" stroke="none" stroke-width="1" fill="none" fill-rule="evenodd">
        <g id="01-index" transform="translate(-483.000000, -5647.000000)" fill-rule="nonzero" fill="#83F715">
            <g id="disciplines" transform="translate(60.000000, 5576.000000)">
                <g id="Group-21" transform="translate(285.000000, 0.000000)">
                    <g id="three-bins" transform="translate(138.000000, 71.000000)">
                        <g id="bin">
                            <g id="Layer_1">
                                <g id="Group">
                                    <path d="M7,3 L5,3 C5,1.3 6.3,0 8,0 L8,2 C7.4,2 7,2.4 7,3 Z" id="Shape"></path>
                                    <path d="M15,3 L13,3 C13,2.4 12.6,2 12,2 L12,0 C13.7,0 15,1.3 15,3 Z" id="Shape"></path>
                                    <polygon id="Shape" points="15 6 5 6 5 3 7 3 7 4 13 4 13 3 15 3"></polygon>
                                    <rect id="Rectangle-path" x="8" y="0" width="4" height="2"></rect>
                                    <path d="M19,6 L1,6 C0.4,6 0,5.6 0,5 C0,4.4 0.4,4 1,4 L19,4 C19.6,4 20,4.4 20,5 C20,5.6 19.6,6 19,6 Z" id="Shape"></path>
                                    <path d="M17,24 L3,24 C2.4,24 2,23.6 2,23 L2,9 C2,8.4 2.4,8 3,8 L17,8 C17.6,8 18,8.4 18,9 L18,23 C18,23.6 17.6,24 17,24 Z M4,22 L16,22 L16,10 L4,10 L4,22 Z" id="Shape"></path>
                                    <path d="M8,20 C7.4,20 7,19.6 7,19 L7,13 C7,12.4 7.4,12 8,12 C8.6,12 9,12.4 9,13 L9,19 C9,19.6 8.6,20 8,20 Z" id="Shape"></path>
                                    <path d="M12,20 C11.4,20 11,19.6 11,19 L11,13 C11,12.4 11.4,12 12,12 C12.6,12 13,12.4 13,13 L13,19 C13,19.6 12.6,20 12,20 Z" id="Shape"></path>
                                </g>
                            </g>
                        </g>
                        <g id="bin" transform="translate(40.000000, 0.000000)">
                            <g id="Layer_1">
                                <g id="Group">
                                    <path d="M7,3 L5,3 C5,1.3 6.3,0 8,0 L8,2 C7.4,2 7,2.4 7,3 Z" id="Shape"></path>
                                    <path d="M15,3 L13,3 C13,2.4 12.6,2 12,2 L12,0 C13.7,0 15,1.3 15,3 Z" id="Shape"></path>
                                    <polygon id="Shape" points="15 6 5 6 5 3 7 3 7 4 13 4 13 3 15 3"></polygon>
                                    <rect id="Rectangle-path" x="8" y="0" width="4" height="2"></rect>
                                    <path d="M19,6 L1,6 C0.4,6 0,5.6 0,5 C0,4.4 0.4,4 1,4 L19,4 C19.6,4 20,4.4 20,5 C20,5.6 19.6,6 19,6 Z" id="Shape"></path>
                                    <path d="M17,24 L3,24 C2.4,24 2,23.6 2,23 L2,9 C2,8.4 2.4,8 3,8 L17,8 C17.6,8 18,8.4 18,9 L18,23 C18,23.6 17.6,24 17,24 Z M4,22 L16,22 L16,10 L4,10 L4,22 Z" id="Shape"></path>
                                    <path d="M8,20 C7.4,20 7,19.6 7,19 L7,13 C7,12.4 7.4,12 8,12 C8.6,12 9,12.4 9,13 L9,19 C9,19.6 8.6,20 8,20 Z" id="Shape"></path>
                                    <path d="M12,20 C11.4,20 11,19.6 11,19 L11,13 C11,12.4 11.4,12 12,12 C12.6,12 13,12.4 13,13 L13,19 C13,19.6 12.6,20 12,20 Z" id="Shape"></path>
                                </g>
                            </g>
                        </g>
                        <g id="bin" transform="translate(80.000000, 0.000000)">
                            <g id="Layer_1">
                                <g id="Group">
                                    <path d="M7,3 L5,3 C5,1.3 6.3,0 8,0 L8,2 C7.4,2 7,2.4 7,3 Z" id="Shape"></path>
                                    <path d="M15,3 L13,3 C13,2.4 12.6,2 12,2 L12,0 C13.7,0 15,1.3 15,3 Z" id="Shape"></path>
                                    <polygon id="Shape" points="15 6 5 6 5 3 7 3 7 4 13 4 13 3 15 3"></polygon>
                                    <rect id="Rectangle-path" x="8" y="0" width="4" height="2"></rect>
                                    <path d="M19,6 L1,6 C0.4,6 0,5.6 0,5 C0,4.4 0.4,4 1,4 L19,4 C19.6,4 20,4.4 20,5 C20,5.6 19.6,6 19,6 Z" id="Shape"></path>
                                    <path d="M17,24 L3,24 C2.4,24 2,23.6 2,23 L2,9 C2,8.4 2.4,8 3,8 L17,8 C17.6,8 18,8.4 18,9 L18,23 C18,23.6 17.6,24 17,24 Z M4,22 L16,22 L16,10 L4,10 L4,22 Z" id="Shape"></path>
                                    <path d="M8,20 C7.4,20 7,19.6 7,19 L7,13 C7,12.4 7.4,12 8,12 C8.6,12 9,12.4 9,13 L9,19 C9,19.6 8.6,20 8,20 Z" id="Shape"></path>
                                    <path d="M12,20 C11.4,20 11,19.6 11,19 L11,13 C11,12.4 11.4,12 12,12 C12.6,12 13,12.4 13,13 L13,19 C13,19.6 12.6,20 12,20 Z" id="Shape"></path>
                                </g>
                            </g>
                        </g>
                    </g>
                </g>
            </g>
        </g>
    </g>
</svg>