<?xml version="1.0" encoding="UTF-8" standalone="no"?>
<svg width="55px" height="28px" viewBox="0 0 55 28" version="1.1" xmlns="http://www.w3.org/2000/svg" xmlns:xlink="http://www.w3.org/1999/xlink">
    <!-- Generator: sketchtool 43.1 (39012) - http://www.bohemiancoding.com/sketch -->
    <title>throw-arrow</title>
    <desc>Created with sketchtool.</desc>
    <defs></defs>
    <g id="Desktop" stroke="none" stroke-width="1" fill="none" fill-rule="evenodd">
        <g id="01-index" transform="translate(-409.000000, -5557.000000)" fill="#689E72">
            <g id="disciplines" transform="translate(150.000000, 5161.000000)">
                <g id="Group-22" transform="translate(44.000000, 217.000000)">
                    <path d="M244.513782,179 C232.574279,179 222.592571,187.53815 220.350615,198.829061 L215.601856,198.829061 C215.05242,198.829061 214.791438,199.505554 215.198364,199.874707 L222.875016,206.839238 C223.102517,207.045276 223.44849,207.046993 223.677708,206.84353 L231.517903,199.878999 C231.931267,199.511993 231.671573,198.829061 231.119132,198.829061 L226.187085,198.829061 C228.320013,190.702559 235.727527,184.690526 244.513782,184.690526 C254.959935,184.690526 263.458595,193.189186 263.458595,203.635339 L269.149121,203.635339 C269.149121,190.051391 258.09773,179 244.513782,179" id="throw-arrow"></path>
                </g>
            </g>
        </g>
    </g>
</svg>