<?xml version="1.0" encoding="UTF-8" standalone="no"?>
<svg width="20px" height="16px" viewBox="0 0 20 16" version="1.1" xmlns="http://www.w3.org/2000/svg" xmlns:xlink="http://www.w3.org/1999/xlink">
    <!-- Generator: sketchtool 43.1 (39012) - http://www.bohemiancoding.com/sketch -->
    <title>twitter</title>
    <desc>Created with sketchtool.</desc>
    <defs></defs>
    <g id="Desktop" stroke="none" stroke-width="1" fill="none" fill-rule="evenodd">
        <g id="01-index" transform="translate(-1401.000000, -20.000000)" fill-rule="nonzero" fill="#01573E">
            <path d="M1418.41361,23.9242826 C1418.42204,24.095087 1418.42521,24.268 1418.42521,24.4388043 C1418.42521,29.7 1414.42185,35.7646087 1407.10151,35.7646087 C1404.85259,35.7646087 1402.76182,35.1056413 1401,33.9753804 C1401.31209,34.0122826 1401.62839,34.0312609 1401.94891,34.0312609 C1403.81511,34.0312609 1405.53053,33.3944348 1406.8917,32.3284891 C1405.15097,32.2958043 1403.68015,31.1465652 1403.17407,29.5650435 C1403.41657,29.6103804 1403.66645,29.6346304 1403.92265,29.6346304 C1404.2864,29.6346304 1404.63855,29.5871848 1404.97173,29.4965109 C1403.15087,29.1295978 1401.77916,27.5217174 1401.77916,25.5922609 L1401.77916,25.5427065 C1402.31583,25.841087 1402.93051,26.0203261 1403.5821,26.041413 C1402.51404,25.3265652 1401.81079,24.1098478 1401.81079,22.7275978 C1401.81079,21.9990435 1402.0069,21.3147717 1402.35062,20.7264457 C1404.31276,23.1356304 1407.24701,24.7192609 1410.5545,24.8858478 C1410.48702,24.5937935 1410.45223,24.2911957 1410.45223,23.9780543 C1410.45223,21.7807935 1412.23302,20 1414.43134,20 C1415.57636,20 1416.61067,20.481837 1417.33712,21.2557283 C1418.2428,21.0764891 1419.09472,20.7454239 1419.86439,20.2899457 C1419.56707,21.2188261 1418.93551,21.9990435 1418.11417,22.4914239 C1418.9197,22.3944239 1419.68515,22.1825 1420.4,21.8651413 C1419.8665,22.664337 1419.19172,23.3644239 1418.41361,23.9242826 Z" id="twitter"></path>
        </g>
    </g>
</svg>