<?xml version="1.0" encoding="UTF-8" standalone="no"?>
<svg width="65px" height="65px" viewBox="0 0 65 65" version="1.1" xmlns="http://www.w3.org/2000/svg" xmlns:xlink="http://www.w3.org/1999/xlink">
    <!-- Generator: sketchtool 43.1 (39012) - http://www.bohemiancoding.com/sketch -->
    <title>zalais-logo-sm</title>
    <desc>Created with sketchtool.</desc>
    <defs></defs>
    <g id="Desktop" stroke="none" stroke-width="1" fill="none" fill-rule="evenodd">
        <g id="01-index" transform="translate(-152.000000, -3071.000000)">
            <g id="tips" transform="translate(150.000000, 2355.000000)">
                <g id="zalais-logo-sm" transform="translate(2.000000, 716.000000)">
                    <g id="Group-50">
                        <path d="M52.6332857,7.78540816 L52.6306327,7.78540816 C50.6169592,5.97204082 48.8619592,5.03418367 48.8619592,5.03418367 C48.8619592,5.03418367 46.4105306,4.49693878 44.4698163,4.68663265 C44.0081837,4.73438776 43.5969592,4.94132653 43.2348163,5.24510204 C31.3729796,1.88632653 28.3378776,1.43663265 11.5784898,13.4510204 C4.0862449,24.4293878 2.06195918,48.4541837 10.5212449,56.1228571 C16.6378776,61.6637755 24.0518571,64.5144898 32.0800204,64.5144898 C49.7573673,64.5144898 64.1329796,50.095102 64.1329796,32.4588776 C64.1329796,22.9556122 59.8681837,13.799898 52.6332857,7.78540816" id="Fill-48" fill="#00573D"></path>
                        <path d="M14.039602,58.9572551 C5.40256122,53.0316429 0.0977653061,42.8810306 0.0977653061,32.3815408 C0.0977653061,14.7068469 14.4733776,0.296744898 32.1878673,0.296744898 C38.3164388,0.296744898 44.4582755,2.18970408 49.6065408,5.45562245 C62.8386837,14.1351122 66.4747041,47.9788878 32.152051,52.6814388 L32.1878673,59.9110306 C27.7055204,59.5316429 20.2132755,52.3113367 16.4127653,44.4383776 C17.6995,37.9781735 26.2118469,28.7335816 32.0406224,28.8065408 L32.1878673,36.1900102 C40.0873571,33.5276633 48.1500102,25.5790918 49.9036837,20.3339898 C49.2205204,15.4218469 38.0750102,3.91021429 32.152051,4.52041837 L32.4465408,11.7659286 C9.45245918,11.699602 -2.8099898,41.1260306 14.039602,58.9572551" id="Fill-49" fill="#CFE3A5"></path>
                    </g>
                </g>
            </g>
        </g>
    </g>
</svg>