<?xml version="1.0" encoding="UTF-8" standalone="no"?>
<svg width="22px" height="29px" viewBox="0 0 22 29" version="1.1" xmlns="http://www.w3.org/2000/svg" xmlns:xlink="http://www.w3.org/1999/xlink">
    <!-- Generator: sketchtool 43.1 (39012) - http://www.bohemiancoding.com/sketch -->
    <title>location</title>
    <desc>Created with sketchtool.</desc>
    <defs></defs>
    <g id="Desktop" stroke="none" stroke-width="1" fill="none" fill-rule="evenodd">
        <g id="01-index" transform="translate(-374.000000, -4162.000000)" stroke="#83F715" stroke-width="2" fill-rule="nonzero">
            <g id="warmup" transform="translate(60.000000, 3313.000000)">
                <g id="Group-12" transform="translate(315.000000, 850.000000)">
                    <path d="M10,0 C15.5225,0 20,4.4775 20,10 C20,14.125 11.6366667,26.6758333 10,26.6666667 C8.3375,26.6758333 0,14.1816667 0,10 C0,4.4775 4.4775,0 10,0 Z M6.66666667,9.16666667 C6.66666667,11.008 8.15933333,12.5 10,12.5 C11.8406667,12.5 13.3333333,11.008 13.3333333,9.16666667 C13.3333333,7.32533333 11.8406667,5.83333333 10,5.83333333 C8.15933333,5.83333333 6.66666667,7.32533333 6.66666667,9.16666667 Z" id="location"></path>
                </g>
            </g>
        </g>
    </g>
</svg>