<?xml version="1.0" encoding="UTF-8" standalone="no"?>
<svg width="70px" height="70px" viewBox="0 0 70 70" version="1.1" xmlns="http://www.w3.org/2000/svg" xmlns:xlink="http://www.w3.org/1999/xlink">
    <!-- Generator: sketchtool 43.1 (39012) - http://www.bohemiancoding.com/sketch -->
    <title>water-tap</title>
    <desc>Created with sketchtool.</desc>
    <defs></defs>
    <g id="Desktop" stroke="none" stroke-width="1" fill="none" fill-rule="evenodd">
        <g id="01-index" transform="translate(-1005.000000, -5769.000000)" stroke-width="2">
            <g id="disciplines" transform="translate(150.000000, 5161.000000)">
                <g id="Group-22" transform="translate(829.000000, 217.000000)">
                    <g id="water-tap" transform="translate(26.000000, 391.000000)">
                        <path d="M37.5972222,20.1111111 L37.5972222,20.1111111 C35.1044444,20.1111111 33.0833333,22.1322222 33.0833333,24.625 L33.0833333,25.25 L42.1111111,25.25 L42.1111111,24.625 C42.1111111,22.1322222 40.09,20.1111111 37.5972222,20.1111111 Z" id="Stroke-1" stroke="#FFFFFF"></path>
                        <path d="M55.7222222,27.3252222 C55.7222222,26.1791111 54.7933333,25.2502222 53.6472222,25.2502222 L26.9783333,25.2502222 L24.8888889,25.2502222 C19.9794444,25.2502222 16,29.2296667 16,34.1391111 L16,34.1391111 L16,38.3891111 C16,39.998 17.3044444,41.3024444 18.9133333,41.3024444 L24.065,41.3024444 C25.6738889,41.3024444 26.9783333,39.998 26.9783333,38.3891111 L26.9783333,36.3868889 C26.9783333,35.1452222 27.985,34.1391111 29.2266667,34.1391111 L53.6472222,34.1391111 C54.7933333,34.1391111 55.7222222,33.2096667 55.7222222,32.0635556 L55.7222222,27.3252222 Z" id="Stroke-3" stroke="#FFFFFF"></path>
                        <path d="M37.6357778,14.0386111 L37.6357778,20.1108333" id="Stroke-5" stroke="#FFFFFF"></path>
                        <path d="M33.9574444,16.2186111 L41.8574444,16.2186111" id="Stroke-7" stroke="#FFFFFF"></path>
                        <path d="M46.2951667,16.2395556 C46.2951667,17.4667778 45.3001667,18.4617778 44.0729444,18.4617778 C42.8457222,18.4617778 41.8507222,17.4667778 41.8507222,16.2395556 C41.8507222,15.0123333 42.8457222,14.0173333 44.0729444,14.0173333 C45.3001667,14.0173333 46.2951667,15.0123333 46.2951667,16.2395556 Z" id="Stroke-9" stroke="#FFFFFF"></path>
                        <path d="M33.9861111,16.2222222 C33.9861111,17.4494444 32.9911111,18.4444444 31.7638889,18.4444444 C30.5366667,18.4444444 29.5416667,17.4494444 29.5416667,16.2222222 C29.5416667,14.995 30.5366667,14 31.7638889,14 C32.9911111,14 33.9861111,14.995 33.9861111,16.2222222 Z" id="Stroke-11" stroke="#FFFFFF"></path>
                        <path d="M24.1944444,52.6111111 C24.1944444,54.8355556 22.3911111,56.6388889 20.1666667,56.6388889 C17.9422222,56.6388889 16.1388889,54.8355556 16.1388889,52.6111111 C16.1388889,50.3866667 20.1666667,45.8055556 20.1666667,45.8055556 C20.1666667,45.8055556 24.1944444,50.3866667 24.1944444,52.6111111 Z" id="Stroke-13" stroke="#FFFFFF"></path>
                        <circle id="Oval-3" stroke="#A5F921" cx="35" cy="35" r="34"></circle>
                    </g>
                </g>
            </g>
        </g>
    </g>
</svg>