<?xml version="1.0" encoding="UTF-8"?>
<svg width="51px" height="74px" viewBox="0 0 51 74" version="1.1" xmlns="http://www.w3.org/2000/svg" xmlns:xlink="http://www.w3.org/1999/xlink">
    <!-- Generator: Sketch 42 (36781) - http://www.bohemiancoding.com/sketch -->
    <title>bulb</title>
    <desc>Created with Sketch.</desc>
    <defs>
        <polygon id="path-1" points="0 57.6278209 0 0.0749139535 50.2213605 0.0749139535 50.2213605 57.6278209 2.33120171e-15 57.6278209"></polygon>
    </defs>
    <g id="Desktop" stroke="none" stroke-width="1" fill="none" fill-rule="evenodd">
        <g id="01-index" transform="translate(-844.000000, -3415.000000)">
            <g id="tips" transform="translate(150.000000, 3094.000000)">
                <g id="Group-2" transform="translate(694.000000, 312.000000)">
                    <g id="bulb" transform="translate(0.000000, 9.000000)">
                        <polygon id="Fill-1" fill="#A5F921" points="10.683907 32.9894837 40.6090465 32.9894837 40.6090465 19.4519488 10.683907 19.4519488"></polygon>
                        <polygon id="Fill-2" fill="#A5F921" points="21.7283721 55.2551349 28.8529535 55.2551349 28.8529535 13.9309023 21.7283721 13.9309023"></polygon>
                        <polygon id="Fill-3" fill="#00593E" points="13.133093 66.0801814 37.534814 66.0801814 37.534814 61.2541581 13.133093 61.2541581"></polygon>
                        <polygon id="Fill-4" fill="#00593E" points="13.1342791 73.8321814 37.536 73.8321814 37.536 69.0061581 13.1342791 69.0061581"></polygon>
                        <g id="Group-12" transform="translate(0.000000, 0.111251)">
                            <g id="Group-7">
                                <mask id="mask-2" fill="white">
                                    <use xlink:href="#path-1"></use>
                                </mask>
                                <g id="Clip-6"></g>
                                <path d="M42.866686,7.42958837 C38.123686,2.68658837 31.8174767,0.0749139535 25.1103837,0.0749139535 C18.4032907,0.0749139535 12.0970814,2.68658837 7.35526744,7.42958837 C2.61226744,12.1725884 -0.000593023256,18.4776116 -0.000593023256,25.1858907 C-0.000593023256,29.8197744 1.27440698,34.3504721 3.68682558,38.2857744 C5.93794186,41.9589605 9.10468605,45.0035419 12.8561512,47.1052163 L12.9818721,57.6278209 L16.1889419,57.5898674 L34.3069884,57.6278209 L37.5140581,57.5898674 L37.3883372,47.0933558 C41.1291279,44.9916814 44.2875698,41.9506581 46.5339419,38.2857744 C48.9463605,34.349286 50.2213605,29.8197744 50.2213605,25.1858907 C50.2213605,18.4787977 47.609686,12.1725884 42.866686,7.42958837" id="Fill-5" fill="#00593E" mask="url(#mask-2)"></path>
                            </g>
                            <path d="M33.3108279,29.2527256 C31.8852,29.2527256 30.5817349,28.6656326 29.642386,27.5993767 L29.2118512,27.1119116 L28.7801302,27.5993767 C28.1289907,28.3347256 27.2868977,28.8518419 26.3451767,29.0949814 L25.9134558,29.2076558 L25.9134558,53.4219814 L24.3087349,53.4219814 L24.3087349,29.2076558 L23.877014,29.0949814 C22.9317349,28.8518419 22.0908279,28.3335395 21.4420605,27.5981907 L21.0115256,27.1119116 L20.5798047,27.5970047 C19.646386,28.6490279 18.3085256,29.2527256 16.9113628,29.2527256 C14.2807116,29.2527256 12.1268512,27.1700279 12.0129907,24.5666558 L13.6200837,24.5666558 C13.7315721,26.2840512 15.1655023,27.6480047 16.9113628,27.6480047 C18.6572233,27.6480047 20.0911535,26.2840512 20.2014558,24.5666558 L21.8204093,24.5666558 C21.9318977,26.2840512 23.3646419,27.6480047 25.1105023,27.6480047 C26.8563628,27.6480047 28.289107,26.2840512 28.4005953,24.5666558 L30.0207349,24.5666558 C30.1322233,26.2840512 31.5649674,27.6480047 33.3108279,27.6480047 C35.0566884,27.6480047 36.4894326,26.2840512 36.6009209,24.5666558 L38.208014,24.5666558 C38.0953395,27.1700279 35.9414791,29.2527256 33.3108279,29.2527256" id="Fill-8" fill="#A5F921"></path>
                            <path d="M33.3108279,29.2527256 C31.8852,29.2527256 30.5817349,28.6656326 29.642386,27.5993767 L29.2118512,27.1119116 L28.7801302,27.5993767 C28.1289907,28.3347256 27.2868977,28.8518419 26.3451767,29.0949814 L25.9134558,29.2076558 L25.9134558,53.4219814 L24.3087349,53.4219814 L24.3087349,29.2076558 L23.877014,29.0949814 C22.9317349,28.8518419 22.0908279,28.3335395 21.4420605,27.5981907 L21.0115256,27.1119116 L20.5798047,27.5970047 C19.646386,28.6490279 18.3085256,29.2527256 16.9113628,29.2527256 C14.2807116,29.2527256 12.1268512,27.1700279 12.0129907,24.5666558 L13.6200837,24.5666558 C13.7315721,26.2840512 15.1655023,27.6480047 16.9113628,27.6480047 C18.6572233,27.6480047 20.0911535,26.2840512 20.2014558,24.5666558 L21.8204093,24.5666558 C21.9318977,26.2840512 23.3646419,27.6480047 25.1105023,27.6480047 C26.8563628,27.6480047 28.289107,26.2840512 28.4005953,24.5666558 L30.0207349,24.5666558 C30.1322233,26.2840512 31.5649674,27.6480047 33.3108279,27.6480047 C35.0566884,27.6480047 36.4894326,26.2840512 36.6009209,24.5666558 L38.208014,24.5666558 C38.0953395,27.1700279 35.9414791,29.2527256 33.3108279,29.2527256 Z" id="Stroke-10" stroke="#A5F921"></path>
                        </g>
                    </g>
                </g>
            </g>
        </g>
    </g>
</svg>