<?xml version="1.0" encoding="UTF-8"?>
<svg width="54px" height="92px" viewBox="0 0 54 92" version="1.1" xmlns="http://www.w3.org/2000/svg" xmlns:xlink="http://www.w3.org/1999/xlink">
    <!-- Generator: Sketch 42 (36781) - http://www.bohemiancoding.com/sketch -->
    <title>leaf-hand</title>
    <desc>Created with Sketch.</desc>
    <defs>
        <polygon id="path-1" points="0 0.520854545 0 92.0454545 53.1402955 92.0454545 53.1402955 0.520854545"></polygon>
    </defs>
    <g id="Desktop" stroke="none" stroke-width="1" fill="none" fill-rule="evenodd">
        <g id="01-index" transform="translate(-157.000000, -3409.000000)">
            <g id="tips" transform="translate(150.000000, 3094.000000)">
                <g id="Group-2" transform="translate(7.000000, 312.000000)">
                    <g id="leaf-hand" transform="translate(0.000000, 2.000000)">
                        <g id="Group-3" transform="translate(0.000000, 0.706786)">
                            <mask id="mask-2" fill="white">
                                <use xlink:href="#path-1"></use>
                            </mask>
                            <g id="Clip-2"></g>
                            <path d="M48.5196136,31.6150364 C45.9681136,31.6150364 43.8989318,33.6842182 43.8989318,36.2357182 L43.8989318,48.2298545 L41.7438409,48.2298545 L41.7438409,8.1864 C41.7438409,5.6349 39.6758864,3.56571818 37.1231591,3.56571818 C34.5716591,3.56571818 32.5024773,5.6349 32.5024773,8.1864 L32.5024773,36.6333545 C31.9857955,36.4247182 31.4531591,36.2492182 30.9107045,36.0994909 L30.9107045,5.14153636 C30.9107045,2.58880909 28.8415227,0.520854545 26.2887955,0.520854545 C23.7372955,0.520854545 21.6681136,2.58880909 21.6681136,5.14153636 L21.6681136,35.5472182 L20.0763409,35.5472182 L20.0763409,9.66526364 C20.0763409,7.11376364 18.0071591,5.04458182 15.4556591,5.04458182 C12.9029318,5.04458182 10.83375,7.11376364 10.83375,9.66526364 L10.83375,36.0994909 C10.2912955,36.2492182 9.75865909,36.4247182 9.24197727,36.6333545 L9.24197727,20.2664455 C9.24197727,17.7149455 7.17279545,15.6457636 4.62129545,15.6457636 C2.06856818,15.6457636 -0.000613636364,17.7149455 -0.000613636364,20.2664455 L-0.000613636364,50.3383091 L-0.000613636364,53.4285818 L-0.000613636364,77.2548545 C-0.000613636364,85.4235818 6.62175,92.0459455 14.7917045,92.0459455 L21.1440682,92.0459455 L26.95275,92.0459455 L38.3492045,92.0459455 C46.5179318,92.0459455 53.1402955,85.4235818 53.1402955,77.2548545 L53.1402955,70.1599909 L53.1402955,63.1399909 L53.1402955,36.2357182 C53.1402955,33.6842182 51.0711136,31.6150364 48.5196136,31.6150364" id="Fill-1" fill="#00593E" mask="url(#mask-2)"></path>
                        </g>
                        <path d="M26.0108182,42.7279909 L14.6843182,58.9083545 C11.4553636,63.3498545 12.6544091,67.6391727 14.6646818,69.9636273 C17.2665,72.9753545 21.438,73.6233545 25.3075909,71.6179909 L25.3075909,68.2785818 L17.7218182,62.6331273 L18.5551364,61.5064909 L25.3075909,66.5309455 L25.3075909,54.1465364 L26.7140455,54.1465364 L26.7140455,66.5309455 L33.4652727,61.5064909 L34.2998182,62.6331273 L34.2175909,62.6957182 L26.7140455,68.2785818 L26.7140455,71.6179909 C30.564,73.6110818 34.7207727,72.9851727 37.3225909,70.0139455 C39.9685909,66.9911727 39.9735,62.6319 37.3373182,58.9083545 L26.0108182,42.7279909 Z" id="Fill-4" fill="#00593E"></path>
                        <path d="M27.7347682,71.6484273 L35.8347682,65.6237455 L33.7066773,62.7494727 L27.7347682,67.1934273 L27.7347682,55.7417455 L24.1572682,55.7417455 L24.1572682,67.1934273 L18.1841318,62.7494727 L16.0572682,65.6237455 L24.1572682,71.6484273 L24.1572682,73.8072 C20.88045,75.2431091 17.4477682,74.6037 15.2889955,72.1062 C12.9547227,69.4037455 12.9854045,65.5439727 15.3785864,62.2536545 L25.9454045,47.1545182 L36.5171318,62.2585636 C38.8845409,65.6004273 38.9054045,69.4835182 36.5699045,72.1516091 C34.4160409,74.6147455 30.9980864,75.2357455 27.7347682,73.8072 L27.7347682,71.6484273 Z M39.4368136,60.1992 L25.9454045,40.9236545 L12.4552227,60.1992 C9.18699545,64.8665182 9.20663182,70.4248364 12.5043136,74.3619273 C15.3405409,77.7479727 19.7992227,78.9531545 24.1572682,77.6178818 L24.1572682,84.5495182 L27.7347682,84.5495182 L27.7347682,77.6178818 C32.08545,78.9519273 36.5330864,77.7541091 39.3656318,74.3913818 C42.6645409,70.4727 42.6939955,64.9045636 39.4368136,60.1992 L39.4368136,60.1992 Z" id="Fill-6" fill="#A5F921"></path>
                        <path d="M28.0415864,73.6038409 C31.1514955,74.8900227 34.3154045,74.2641136 36.3391773,71.94825 C38.5764955,69.3918409 38.5494955,65.65725 36.2667682,62.4344318 L25.9454045,47.6899773 L15.62895,62.4295227 C13.3253591,65.5995682 13.2836318,69.3169773 15.5197227,71.9052955 C17.5496318,74.2518409 20.7270409,74.8986136 23.8492227,73.6038409 L23.8492227,71.8022045 L15.6277227,65.6867045 L18.1215409,62.3202955 L23.8492227,66.5826136 L23.8492227,55.4340682 L28.0415864,55.4340682 L28.0415864,66.5826136 L33.7692682,62.3202955 L36.2643136,65.6867045 L28.0415864,71.8022045 L28.0415864,73.6038409 Z M31.22145,74.87775 C30.0457227,74.87775 28.8221318,74.6175682 27.6120409,74.0873864 L27.42795,74.0063864 L27.42795,71.4929318 L35.4052227,65.5590682 L33.6428591,63.1806136 L27.42795,67.8049773 L27.42795,56.0477045 L24.4628591,56.0477045 L24.4628591,67.8049773 L18.24795,63.1806136 L16.4855864,65.5590682 L24.4628591,71.4929318 L24.4628591,74.0063864 L24.2799955,74.0873864 C20.83995,75.5957045 17.3066318,74.9121136 15.0558136,72.3053864 C12.6258136,69.4937045 12.6552682,65.4768409 15.12945,62.0723864 L25.9454045,46.6210227 L36.7687227,62.0809773 C39.2195864,65.5431136 39.2330864,69.5759318 36.8006318,72.35325 C35.3499955,74.0125227 33.3654955,74.87775 31.22145,74.87775 L31.22145,74.87775 Z M24.4628591,84.2418409 L27.42795,84.2418409 L27.42795,77.2034318 L27.8243591,77.3237045 C32.0744045,78.63075 36.4066773,77.4280227 39.1312227,74.1929318 C42.3380864,70.3834773 42.3601773,64.9589318 39.1852227,60.3750682 L25.9454045,41.4591136 L12.7055864,60.3762955 C9.51958636,64.9257955 9.53308636,70.3380682 12.7387227,74.1647045 C15.46695,77.4194318 19.8065864,78.6295227 24.06645,77.3237045 L24.4628591,77.2034318 L24.4628591,84.2418409 Z M28.0415864,84.8554773 L23.8492227,84.8554773 L23.8492227,78.0257045 C19.4801318,79.2173864 15.0717682,77.9054318 12.2686773,74.5574318 C8.87895,70.5123409 8.85317727,64.8079773 12.2036318,60.0240682 L25.9454045,40.3901591 L39.6896318,60.0252955 C43.0265864,64.8435682 42.9922227,70.5614318 39.6000409,74.5893409 C36.7994045,77.91525 32.4008591,79.2075682 28.0415864,78.0269318 L28.0415864,84.8554773 Z" id="Fill-8" fill="#00593E"></path>
                    </g>
                </g>
            </g>
        </g>
    </g>
</svg>