<?xml version="1.0" encoding="UTF-8"?>
<svg width="51px" height="107px" viewBox="0 0 51 107" version="1.1" xmlns="http://www.w3.org/2000/svg" xmlns:xlink="http://www.w3.org/1999/xlink">
    <!-- Generator: Sketch 42 (36781) - http://www.bohemiancoding.com/sketch -->
    <title>leaf-pot</title>
    <desc>Created with Sketch.</desc>
    <defs>
        <polygon id="path-1" points="0 0.563134884 0 41.5113907 50.618686 41.5113907 50.618686 0.563134884 1.2859142e-19 0.563134884"></polygon>
    </defs>
    <g id="Desktop" stroke="none" stroke-width="1" fill="none" fill-rule="evenodd">
        <g id="01-index" transform="translate(-842.000000, -3096.000000)">
            <g id="tips" transform="translate(150.000000, 3094.000000)">
                <g id="Group-2" transform="translate(692.000000, 0.000000)">
                    <g id="leaf-pot" transform="translate(0.000000, 2.000000)">
                        <polygon id="Fill-1" fill="#A5F921" points="21.3405349 51.1109698 27.6775814 51.1109698 27.6775814 17.8933651 21.3405349 17.8933651"></polygon>
                        <polygon id="Fill-2" fill="#A5F921" points="24.5084651 45.3195047 40.7893256 45.3195047 40.7893256 31.1142256 24.5084651 31.1142256"></polygon>
                        <polygon id="Fill-3" fill="#A5F921" points="10.4123023 43.3530395 28.0049302 43.3530395 28.0049302 32.2077605 10.4123023 32.2077605"></polygon>
                        <g id="Group-9" transform="translate(0.000000, 0.038784)">
                            <g id="Group-6" transform="translate(0.000000, 65.418605)">
                                <mask id="mask-2" fill="white">
                                    <use xlink:href="#path-1"></use>
                                </mask>
                                <g id="Clip-5"></g>
                                <path d="M16.4830814,30.2866465 C16.4807093,30.2427628 16.473593,30.2000651 16.4700349,30.1561814 L16.4830814,30.1561814 L16.4830814,30.2866465 Z M50.5190581,3.86983256 C49.6283372,2.02315814 38.6953605,0.563134884 25.3037093,0.563134884 C11.5882674,0.563134884 0.448918605,2.09432093 0.0385465116,4.00385581 L-0.000593023256,4.00385581 L-0.000593023256,30.1561814 L0.0468488372,30.1561814 C0.0349883721,30.3127395 -0.000593023256,30.4633674 -0.000593023256,30.6234837 L-0.000593023256,35.5384605 C-0.000593023256,38.8380419 2.67394186,41.5113907 5.97233721,41.5113907 L10.5445465,41.5113907 C13.7848256,41.5113907 16.4083605,38.9258093 16.499686,35.7068791 C16.5910116,38.9258093 19.2145465,41.5113907 22.4560116,41.5113907 L27.8952209,41.5113907 C31.1936163,41.5113907 33.8681512,38.8380419 33.8681512,35.5384605 L33.8681512,30.1561814 L33.8788256,30.1561814 L33.8788256,7.44813488 C33.8800116,7.44813488 33.8811977,7.44694884 33.8835698,7.44694884 L33.8835698,6.43525116 L37.4417093,6.43525116 L37.4417093,37.2155302 C37.4417093,39.4974837 39.218407,41.4936 41.5003605,41.5113907 L41.5478023,41.5113907 L44.6457558,41.5113907 C47.9453372,41.5113907 50.618686,38.8380419 50.618686,35.5384605 L50.618686,30.1561814 L50.618686,28.0106233 L50.618686,3.86983256 L50.5190581,3.86983256 Z" id="Fill-4" fill="#00593E" mask="url(#mask-2)"></path>
                            </g>
                            <path d="M26.6816581,44.2437605 L26.6567512,44.2081791 L26.6567512,48.8325744 L23.0986116,48.8325744 L23.0986116,44.0219698 L12.3909837,36.5249698 L14.4309837,33.6096674 L23.0986116,39.6786674 L23.0986116,18.1519233 L26.6567512,18.1519233 L26.6567512,39.9170628 L35.6647744,33.6096674 L37.7059605,36.5249698 L26.6816581,44.2437605 Z M44.758193,28.5345744 L24.8883558,0.147737209 L5.02326279,28.5298302 C0.312286047,35.0068302 0.309913953,42.7113884 5.01733256,48.157714 C9.39858837,53.2292488 16.2634256,54.5303419 22.8021,51.651807 L22.8021,63.4672023 L26.9307279,63.4672023 L26.9307279,51.5972488 C29.2352163,52.620807 31.5776581,53.1663884 33.843007,53.1663884 C37.9882395,53.1663884 41.8606814,51.4881326 44.6965186,48.2478535 C49.4051233,42.8667605 49.4288442,35.128993 44.758193,28.5345744 L44.758193,28.5345744 Z" id="Fill-7" fill="#00593E"></path>
                        </g>
                    </g>
                </g>
            </g>
        </g>
    </g>
</svg>