<?xml version="1.0" encoding="UTF-8"?>
<svg width="281px" height="252px" viewBox="0 0 281 252" version="1.1" xmlns="http://www.w3.org/2000/svg" xmlns:xlink="http://www.w3.org/1999/xlink">
    <!-- Generator: Sketch 42 (36781) - http://www.bohemiancoding.com/sketch -->
    <title>skiratlons-logo</title>
    <desc>Created with Sketch.</desc>
    <defs>
        <filter x="-50%" y="-50%" width="200%" height="200%" filterUnits="objectBoundingBox" id="filter-1">
            <feOffset dx="5" dy="5" in="SourceAlpha" result="shadowOffsetOuter1"></feOffset>
            <feGaussianBlur stdDeviation="5" in="shadowOffsetOuter1" result="shadowBlurOuter1"></feGaussianBlur>
            <feColorMatrix values="0 0 0 0 0   0 0 0 0 0   0 0 0 0 0  0 0 0 0.2 0" type="matrix" in="shadowBlurOuter1" result="shadowMatrixOuter1"></feColorMatrix>
            <feMerge>
                <feMergeNode in="shadowMatrixOuter1"></feMergeNode>
                <feMergeNode in="SourceGraphic"></feMergeNode>
            </feMerge>
        </filter>
    </defs>
    <g id="Desktop" stroke="none" stroke-width="1" fill="none" fill-rule="evenodd">
        <g id="01-index" transform="translate(-585.000000, -6783.000000)">
            <g id="disciplines" transform="translate(60.000000, 5576.000000)">
                <g id="skiratlons-logo" filter="url(#filter-1)" transform="translate(530.000000, 1212.000000)">
                    <polygon id="Fill-1" fill="#83F715" points="0 74.1766721 0 201.740898 130.405091 231.753441 260.842214 201.771587 260.842214 74.1766721"></polygon>
                    <path d="M130.420514,106.828695 C100.818368,106.828695 76.734,82.8677626 76.734,53.4147015 C76.734,23.9616404 100.818368,-0.000472136594 130.420514,-0.000472136594 C160.023845,-0.000472136594 184.107027,23.9616404 184.107027,53.4147015 C184.107027,82.8677626 160.023845,106.828695 130.420514,106.828695" id="Fill-2" fill="#83F715"></path>
                    <polygon id="Fill-5" fill="#FFFFFF" points="14.0738318 189.684418 18.0920455 189.684418 18.0920455 146.004701 14.0738318 146.004701"></polygon>
                    <polygon id="Fill-7" fill="#FFFFFF" points="27.5248227 193.714104 31.5430364 193.714104 31.5430364 150.034387 27.5248227 150.034387"></polygon>
                    <polygon id="Fill-8" fill="#FFFFFF" points="40.9746273 197.74497 44.9928409 197.74497 44.9928409 154.065253 40.9746273 154.065253"></polygon>
                    <polygon id="Fill-9" fill="#FFFFFF" points="54.4244318 201.775836 58.4426455 201.775836 58.4426455 158.096119 54.4244318 158.096119"></polygon>
                    <polygon id="Fill-10" fill="#FFFFFF" points="67.8754227 205.805522 71.8936364 205.805522 71.8936364 162.125805 67.8754227 162.125805"></polygon>
                    <polygon id="Fill-11" fill="#FFFFFF" points="81.3252273 209.836388 85.3434409 209.836388 85.3434409 166.156671 81.3252273 166.156671"></polygon>
                    <polygon id="Fill-12" fill="#FFFFFF" points="94.7750318 213.866074 98.7932455 213.866074 98.7932455 170.186357 94.7750318 170.186357"></polygon>
                    <polygon id="Fill-13" fill="#FFFFFF" points="108.226023 217.89694 112.244236 217.89694 112.244236 174.217223 108.226023 174.217223"></polygon>
                    <polygon id="Fill-14" fill="#FFFFFF" points="121.675827 221.926626 125.694041 221.926626 125.694041 178.246909 121.675827 178.246909"></polygon>
                    <polygon id="Fill-15" fill="#FFFFFF" points="242.728814 189.684418 246.747027 189.684418 246.747027 146.004701 242.728814 146.004701"></polygon>
                    <polygon id="Fill-16" fill="#FFFFFF" points="229.277823 193.714104 233.296036 193.714104 233.296036 150.034387 229.277823 150.034387"></polygon>
                    <polygon id="Fill-17" fill="#FFFFFF" points="215.828018 197.74497 219.846232 197.74497 219.846232 154.065253 215.828018 154.065253"></polygon>
                    <polygon id="Fill-18" fill="#FFFFFF" points="202.377027 201.775836 206.395241 201.775836 206.395241 158.096119 202.377027 158.096119"></polygon>
                    <polygon id="Fill-19" fill="#FFFFFF" points="188.927223 205.805522 192.945436 205.805522 192.945436 162.125805 188.927223 162.125805"></polygon>
                    <polygon id="Fill-20" fill="#FFFFFF" points="175.477418 209.836388 179.495632 209.836388 179.495632 166.156671 175.477418 166.156671"></polygon>
                    <polygon id="Fill-21" fill="#FFFFFF" points="162.026427 213.866074 166.044641 213.866074 166.044641 170.186357 162.026427 170.186357"></polygon>
                    <polygon id="Fill-22" fill="#FFFFFF" points="148.576623 217.89694 152.594836 217.89694 152.594836 174.217223 148.576623 174.217223"></polygon>
                    <polygon id="Fill-23" fill="#FFFFFF" points="135.126818 221.926626 139.145032 221.926626 139.145032 178.246909 135.126818 178.246909"></polygon>
                    <path d="M195.035216,66.4125039 C195.126566,66.4125039 195.206052,66.4455534 195.272489,66.5116526 C195.338925,66.578932 195.372143,66.6568346 195.372143,66.7477209 L195.372143,68.6256442 C195.372143,68.7165305 195.338925,68.7956133 195.272489,68.8617125 C195.206052,68.9278116 195.126566,68.9608611 195.035216,68.9608611 L187.499434,68.9608611 C187.408084,68.9608611 187.328598,68.9289919 187.262161,68.8628928 C187.195725,68.797974 187.162507,68.7212518 187.162507,68.6315459 L187.162507,67.1289712 C187.162507,66.8197217 187.271652,66.6001782 187.48757,66.4691603 C188.904089,65.5980683 189.963511,64.9016668 190.668211,64.3811362 C191.371725,63.8594252 191.724075,63.4569288 191.724075,63.1712862 C191.724075,63.0733178 191.718143,62.9942349 191.705093,62.9328572 C191.69323,62.8714794 191.649334,62.814823 191.574593,62.7617077 C191.498666,62.7097726 191.388334,62.6826248 191.242411,62.6826248 C191.096489,62.6826248 190.974293,62.714494 190.874639,62.7794128 C190.773798,62.8443316 190.707361,62.90807 190.674143,62.9718084 C190.640925,63.0367272 190.607707,63.1276135 190.574489,63.243287 C190.540084,63.3601408 190.519916,63.4274203 190.511611,63.4427647 C190.478393,63.5312903 190.36213,63.5761433 190.161634,63.5761433 L187.625189,63.5761433 C187.542143,63.5761433 187.468589,63.5466347 187.406898,63.488798 C187.34402,63.4321416 187.313175,63.3577801 187.313175,63.2668938 C187.313175,62.3462275 187.677389,61.6132354 188.405816,61.0655569 C189.134243,60.5190588 190.111807,60.2452196 191.336134,60.2452196 C192.561648,60.2452196 193.485825,60.4824683 194.111039,60.9534245 C194.735066,61.4267414 195.048266,62.0983557 195.048266,62.9694478 C195.048266,63.4085348 194.902343,63.8074902 194.610498,64.1651337 C194.451525,64.3610704 194.29967,64.5334002 194.153748,64.6844839 C194.007825,64.8355677 193.797839,65.0114385 193.523789,65.2156376 C192.865357,65.6960366 192.273361,66.094992 191.748989,66.4125039 L195.035216,66.4125039 Z" id="Fill-24" fill="#FFFFFF"></path>
                    <path d="M200.058635,63.4218727 L200.058635,65.7731129 C200.058635,65.9926564 200.136935,66.174429 200.295908,66.319611 C200.453695,66.464793 200.645885,66.5367938 200.871295,66.5367938 C201.095517,66.5367938 201.287708,66.4624323 201.445495,66.3137093 C201.603281,66.1649863 201.682767,65.984394 201.682767,65.7731129 L201.682767,63.4218727 C201.682767,63.2023291 201.605654,63.0205565 201.451426,62.8753745 C201.297199,62.7301925 201.103822,62.6581917 200.871295,62.6581917 C200.637581,62.6581917 200.444204,62.7325532 200.289976,62.8812763 C200.135749,63.0299993 200.058635,63.2105915 200.058635,63.4218727 M205.056785,63.5068572 L205.056785,65.7129155 C205.056785,66.7882066 204.671217,67.6002815 203.901267,68.1491403 C203.130131,68.6991794 202.118163,68.974199 200.864176,68.974199 C199.611376,68.974199 198.600595,68.6991794 197.834204,68.1491403 C197.067813,67.6002815 196.684617,66.7799442 196.684617,65.6881283 L196.684617,63.5304641 C196.684617,62.4563533 197.079676,61.639557 197.872167,61.0824358 C198.663472,60.5241343 199.663576,60.2455737 200.871295,60.2455737 C202.079013,60.2455737 203.077931,60.5241343 203.869235,61.0824358 C204.66054,61.639557 205.056785,62.4480909 205.056785,63.5068572" id="Fill-25" fill="#FFFFFF"></path>
                    <path d="M212.591974,60.5937745 L212.591974,66.412858 L214.579133,66.412858 C214.670483,66.412858 214.74997,66.4459075 214.816406,66.5120067 C214.882842,66.5781058 214.91606,66.6571887 214.91606,66.748075 L214.91606,68.6259983 C214.91606,68.7168846 214.882842,68.7947871 214.816406,68.8608862 C214.74997,68.9281657 214.670483,68.9612152 214.579133,68.9612152 L207.031488,68.9612152 C206.938951,68.9612152 206.860651,68.9281657 206.794215,68.8608862 C206.727779,68.7947871 206.693374,68.7168846 206.693374,68.6259983 L206.693374,66.748075 C206.693374,66.6571887 206.727779,66.5781058 206.794215,66.5120067 C206.860651,66.4459075 206.938951,66.412858 207.031488,66.412858 L209.342524,66.412858 L209.342524,63.4289547 L208.08142,64.2610954 C208.005492,64.3106698 207.928379,64.335457 207.850079,64.335457 C207.770592,64.335457 207.68992,64.2788006 207.605688,64.1619468 L206.59372,62.5956336 C206.560501,62.5295345 206.543892,62.4528123 206.543892,62.365467 C206.543892,62.2781218 206.598465,62.1931372 206.706424,62.1105133 L209.480142,60.3081318 C209.538274,60.2750823 209.60471,60.2585575 209.680638,60.2585575 L212.255047,60.2585575 C212.346397,60.2585575 212.424697,60.291607 212.49232,60.3577062 C212.558756,60.4238053 212.591974,60.5028882 212.591974,60.5937745" id="Fill-26" fill="#FFFFFF"></path>
                    <path d="M216.752314,60.2583214 L223.963032,60.2583214 C224.062687,60.2583214 224.14336,60.291371 224.206237,60.3574701 C224.269114,60.4247496 224.29996,60.5026521 224.29996,60.5935384 L224.29996,62.4218873 C224.29996,62.6532343 224.245387,62.8645154 224.137428,63.0557307 L221.101523,68.6753365 C220.992378,68.8653715 220.821541,68.9609792 220.589014,68.9609792 L217.777332,68.9609792 C217.702591,68.9609792 217.637341,68.9338313 217.583955,68.880716 C217.529382,68.8264202 217.502096,68.7697639 217.502096,68.7131075 C217.502096,68.6540904 217.5104,68.6092374 217.52701,68.5750075 L220.751546,62.8066787 L216.752314,62.8066787 C216.660964,62.8066787 216.581478,62.7736291 216.515041,62.70753 C216.448605,62.6414309 216.415387,62.562348 216.415387,62.4714617 L216.415387,60.5935384 C216.415387,60.5026521 216.448605,60.4247496 216.515041,60.3574701 C216.581478,60.291371 216.660964,60.2583214 216.752314,60.2583214" id="Fill-27" fill="#FFFFFF"></path>
                    <path d="M44.1978586,66.5370299 L49.184145,66.5370299 C49.275495,66.5370299 49.3549814,66.5700795 49.4214177,66.6361786 C49.4878541,66.7022777 49.5210723,66.7813606 49.5210723,66.8722469 L49.5210723,68.6262343 C49.5210723,68.7171206 49.4878541,68.7950232 49.4214177,68.8611223 C49.3549814,68.9284018 49.275495,68.9614513 49.184145,68.9614513 L41.2865223,68.9614513 C41.1939859,68.9614513 41.1156859,68.9284018 41.0492495,68.8611223 C40.9828132,68.7950232 40.9484086,68.7171206 40.9484086,68.6262343 L40.9484086,60.5940105 C40.9484086,60.5031242 40.9828132,60.4240413 41.0492495,60.3579422 C41.1156859,60.2918431 41.1939859,60.2587935 41.2865223,60.2587935 L49.0583905,60.2587935 C49.1497405,60.2587935 49.2292268,60.2918431 49.2956632,60.3579422 C49.3632859,60.4240413 49.3965041,60.5031242 49.3965041,60.5940105 L49.3965041,62.3468176 C49.3965041,62.4377039 49.3632859,62.5167868 49.2956632,62.5828859 C49.2292268,62.6501654 49.1497405,62.6820346 49.0583905,62.6820346 L44.1978586,62.6820346 L44.1978586,63.4657814 L48.3714859,63.4657814 C48.4628359,63.4657814 48.5423223,63.4988309 48.6087586,63.56493 C48.675195,63.6322095 48.7084132,63.710112 48.7084132,63.8021787 L48.7084132,65.4180662 C48.7084132,65.5089525 48.675195,65.5880353 48.6087586,65.6541345 C48.5423223,65.7202336 48.4628359,65.7532832 48.3714859,65.7532832 L44.1978586,65.7532832 L44.1978586,66.5370299 Z" id="Fill-28" fill="#FFFFFF"></path>
                    <path d="M59.3616027,64.3451358 C59.9405482,64.7570749 60.2300209,65.3755739 60.2300209,66.1994522 C60.2300209,67.0245109 59.8088618,67.6925842 58.96773,68.2060328 C58.1265982,68.7171206 57.01023,68.9732547 55.6198118,68.9732547 C54.2282073,68.9732547 53.14743,68.721842 52.3762936,68.2154755 C51.6051573,67.7114697 51.2207755,67.0894297 51.2207755,66.3493556 C51.2207755,66.1687634 51.3168709,66.0790574 51.5078755,66.0790574 L54.0704209,66.0790574 C54.2448164,66.0790574 54.3859936,66.1298121 54.4939527,66.2313215 C54.7276664,66.4437829 55.1322164,66.5488333 55.7064164,66.5488333 C56.4977209,66.5488333 56.8939664,66.4331599 56.8939664,66.2006326 C56.8939664,66.0566309 56.7682118,65.9433181 56.5190755,65.8583335 C56.2687527,65.7745293 55.7740391,65.6930857 55.0325618,65.6128225 C52.6740709,65.3401636 51.4960118,64.4714323 51.4960118,63.0078089 C51.4960118,62.1827502 51.8744618,61.5170376 52.6325482,61.0083104 C53.3906345,60.5007635 54.4049755,60.2458098 55.6755709,60.2458098 C56.9461664,60.2458098 57.9723709,60.519649 58.7553709,61.0661471 C59.5383709,61.6126452 59.9298709,62.1898322 59.9298709,62.7977081 C59.9298709,62.880332 59.9037709,62.9464311 59.8491982,62.9948251 C59.7946255,63.0443994 59.7222573,63.0691866 59.6309073,63.0691866 L56.9437936,63.0691866 C56.7931255,63.0691866 56.6649982,63.021973 56.5570391,62.928726 C56.3565436,62.7563961 56.0563936,62.6702312 55.6565891,62.6702312 C55.0989982,62.6702312 54.8190164,62.7823636 54.8190164,63.0066285 C54.8190164,63.1270234 54.9281618,63.2202703 55.14408,63.2887301 C55.3611845,63.3571899 55.7942073,63.4268301 56.4443345,63.4988309 C57.8098391,63.651095 58.7826573,63.9331966 59.3616027,64.3451358" id="Fill-29" fill="#FFFFFF"></path>
                    <path d="M62.0668677,60.2583214 L70.6893586,60.2583214 C70.7807086,60.2583214 70.860195,60.291371 70.9266314,60.3574701 C70.9930677,60.4247496 71.0262859,60.5026521 71.0262859,60.5935384 L71.0262859,62.5953975 C71.0262859,62.6874642 70.9930677,62.7653667 70.9266314,62.8314658 C70.860195,62.897565 70.7807086,62.9317949 70.6893586,62.9317949 L68.002245,62.9317949 L68.002245,68.6257622 C68.002245,68.7166485 67.9690268,68.794551 67.9025905,68.8618305 C67.8349677,68.9279296 67.7566677,68.9609792 67.6653177,68.9609792 L65.0909086,68.9609792 C64.9995586,68.9609792 64.9200723,68.9279296 64.8536359,68.8618305 C64.7860132,68.794551 64.7539814,68.7166485 64.7539814,68.6257622 L64.7539814,62.9317949 L62.0668677,62.9317949 C61.9743314,62.9317949 61.8960314,62.897565 61.829595,62.8314658 C61.7631586,62.7653667 61.7287541,62.6874642 61.7287541,62.5953975 L61.7287541,60.5935384 C61.7287541,60.5026521 61.7631586,60.4247496 61.829595,60.3574701 C61.8960314,60.291371 61.9743314,60.2583214 62.0668677,60.2583214" id="Fill-30" fill="#FFFFFF"></path>
                    <polygon id="Fill-31" fill="#F9F7E8" points="6.94200682 152.044272 6.94200682 81.0833223 253.900207 81.0833223 253.900207 152.073781 130.405684 180.459813"></polygon>
                    <polygon id="Fill-32" fill="#01573E" points="246.957844 146.566897 130.423717 173.370092 13.8836577 146.566897 13.8836577 87.9900905 246.957844 87.9900905"></polygon>
                    <path d="M37.7544805,110.019984 L39.9101032,110.019984 C40.1936441,110.019984 40.3360077,110.161625 40.3360077,110.443727 C40.3360077,110.603073 40.2648259,110.725828 40.1236486,110.814354 L37.9146395,112.66749 C37.4353486,113.002707 37.0177486,113.170315 36.6630259,113.170315 L33.6828805,113.170315 C33.3281577,113.170315 32.9105577,113.002707 32.4324532,112.66749 L30.2222577,110.814354 C30.0810805,110.725828 30.0098986,110.603073 30.0098986,110.443727 C30.0098986,110.161625 30.1522623,110.019984 30.4358032,110.019984 L32.5914259,110.019984 C32.9105577,110.019984 33.2652805,110.082542 33.6555941,110.205298 L35.1729532,110.787206 L36.6903123,110.205298 C37.0806259,110.082542 37.4353486,110.019984 37.7544805,110.019984 M42.9578714,122.9341 C44.1905032,123.812274 44.8074123,125.128355 44.8074123,126.884703 C44.8074123,128.639871 43.9105214,130.063363 42.1191123,131.155179 C40.3265168,132.245814 37.9502305,132.791132 34.9866941,132.791132 C32.0231577,132.791132 29.7216123,132.252896 28.0808714,131.177605 C26.4389441,130.102314 25.6191668,128.777971 25.6191668,127.203395 C25.6191668,126.818604 25.822035,126.626208 26.2313305,126.626208 L31.6862305,126.626208 C32.0587486,126.626208 32.3612714,126.7348 32.5914259,126.951983 C33.0873259,127.402873 33.9486259,127.627138 35.1729532,127.627138 C36.8587759,127.627138 37.7010941,127.380447 37.7010941,126.887064 C37.7010941,126.578995 37.4353486,126.337025 36.9026714,126.157613 C36.3699941,125.979381 35.3141305,125.80351 33.7362668,125.633541 C28.7143895,125.053994 26.2040441,123.204398 26.2040441,120.084756 C26.2040441,118.328408 27.0107714,116.909637 28.6265986,115.827264 C30.2412395,114.744891 32.4004214,114.203114 35.1065168,114.203114 C37.8114259,114.203114 39.9990805,114.786203 41.6659214,115.95002 C43.3339486,117.113836 44.1679623,118.343752 44.1679623,119.639767 C44.1679623,119.814458 44.1098305,119.954918 43.9947532,120.059969 C43.8796759,120.165019 43.7242623,120.216954 43.5296986,120.216954 L37.8078668,120.216954 C37.488735,120.216954 37.2123123,120.117805 36.9833441,119.917147 C36.5574395,119.550061 35.9179895,119.365928 35.0661805,119.365928 C33.8774441,119.365928 33.2830759,119.605537 33.2830759,120.082395 C33.2830759,120.338529 33.5132305,120.539187 33.9747259,120.683189 C34.4362214,120.828371 35.3592123,120.978274 36.7425123,121.131719 C39.6526623,121.455132 41.7240532,122.055926 42.9578714,122.9341" id="Fill-33" fill="#FFFFFF"></path>
                    <path d="M58.9381895,133.585384 C59.2751168,133.585384 59.4435805,133.762435 59.4435805,134.115357 C59.4435805,134.239293 59.399685,134.344343 59.3107077,134.432869 L56.7825668,136.551582 C56.6224077,136.674337 56.3744577,136.735715 56.0375305,136.735715 L52.4974214,136.735715 C52.2138805,136.735715 52.0715168,136.595255 52.0715168,136.313153 C52.0715168,136.171512 52.1165986,136.057019 52.2055759,135.969674 L53.7478486,134.088209 C53.996985,133.788402 54.3244214,133.620794 54.7337168,133.585384 L58.9381895,133.585384 Z M67.5606805,131.838478 C67.6318623,131.943529 67.6674532,132.067465 67.6674532,132.207925 C67.6674532,132.350747 67.6093214,132.478223 67.4942441,132.592717 C67.3791668,132.70721 67.2415486,132.765046 67.0813895,132.765046 L60.2159032,132.765046 C59.8066077,132.765046 59.4874759,132.623405 59.2573214,132.341304 L54.6269441,126.648517 L54.6269441,132.049759 C54.6269441,132.244516 54.5557623,132.412124 54.414585,132.552585 C54.2722214,132.694226 54.1037577,132.765046 53.9080077,132.765046 L48.4258214,132.765046 C48.2312577,132.765046 48.0627941,132.694226 47.9204305,132.552585 C47.7780668,132.412124 47.7080714,132.244516 47.7080714,132.049759 L47.7080714,114.945431 C47.7080714,114.750675 47.7780668,114.583066 47.9204305,114.441425 C48.0627941,114.300965 48.2312577,114.230144 48.4258214,114.230144 L53.9080077,114.230144 C54.1037577,114.230144 54.2722214,114.300965 54.414585,114.441425 C54.5557623,114.583066 54.6269441,114.750675 54.6269441,114.945431 L54.6269441,119.922931 L58.8314168,114.679854 C59.0983486,114.380047 59.425785,114.230144 59.8160986,114.230144 L66.2295805,114.230144 C66.3897395,114.230144 66.5273577,114.2868 66.642435,114.402474 C66.7575123,114.516967 66.8156441,114.650346 66.8156441,114.799069 C66.8156441,114.948972 66.7717486,115.077629 66.6827714,115.18386 L60.3748759,122.836014 L67.5606805,131.838478 Z" id="Fill-34" fill="#FFFFFF"></path>
                    <path d="M86.2963282,119.65818 L81.4785055,119.65818 L81.4785055,127.336302 L86.2963282,127.336302 C86.4920782,127.336302 86.6593555,127.407122 86.8017191,127.548763 C86.9440827,127.690404 87.0140782,127.858013 87.0140782,128.051589 L87.0140782,132.050586 C87.0140782,132.244162 86.9440827,132.41177 86.8017191,132.552231 C86.6593555,132.693872 86.4920782,132.764692 86.2963282,132.764692 L69.4238645,132.764692 C69.2281145,132.764692 69.0596509,132.693872 68.9184736,132.552231 C68.7749236,132.41177 68.7049282,132.244162 68.7049282,132.050586 L68.7049282,128.051589 C68.7049282,127.858013 68.7749236,127.690404 68.9184736,127.548763 C69.0596509,127.407122 69.2281145,127.336302 69.4238645,127.336302 L74.2938873,127.336302 L74.2938873,119.65818 L69.4238645,119.65818 C69.2281145,119.65818 69.0596509,119.58736 68.9184736,119.445719 C68.7749236,119.305258 68.7049282,119.13765 68.7049282,118.942894 L68.7049282,114.945077 C68.7049282,114.750321 68.7749236,114.583892 68.9184736,114.442251 C69.0596509,114.30061 69.2281145,114.22979 69.4238645,114.22979 L86.2963282,114.22979 C86.4920782,114.22979 86.6593555,114.30061 86.8017191,114.442251 C86.9440827,114.583892 87.0140782,114.750321 87.0140782,114.945077 L87.0140782,118.942894 C87.0140782,119.13765 86.9440827,119.305258 86.8017191,119.445719 C86.6593555,119.58736 86.4920782,119.65818 86.2963282,119.65818" id="Fill-35" fill="#FFFFFF"></path>
                    <path d="M97.44696,119.155001 L97.44696,121.961853 L100.773524,121.961853 C101.163837,121.961853 101.465174,121.834376 101.678719,121.578242 C101.891078,121.322108 101.997851,120.999875 101.997851,120.611542 C101.997851,120.22321 101.895824,119.883272 101.691769,119.591727 C101.487715,119.301363 101.181633,119.155001 100.773524,119.155001 L97.44696,119.155001 Z M109.715146,131.944001 C109.750737,132.014821 109.768533,132.111609 109.768533,132.235545 C109.768533,132.359481 109.710401,132.478696 109.59651,132.592008 C109.480246,132.707682 109.342628,132.764338 109.183655,132.764338 L103.142692,132.764338 C102.610015,132.764338 102.237496,132.543614 102.023951,132.102167 L99.6820691,126.86027 L97.44696,126.86027 L97.44696,132.050232 C97.44696,132.243808 97.3757782,132.411416 97.2346009,132.553057 C97.0922373,132.694698 96.9237736,132.764338 96.72921,132.764338 L90.9800918,132.764338 C90.7843418,132.764338 90.6158782,132.694698 90.4747009,132.553057 C90.3323373,132.411416 90.2611555,132.243808 90.2611555,132.050232 L90.2611555,114.944723 C90.2611555,114.751147 90.3323373,114.583538 90.4747009,114.441897 C90.6158782,114.300256 90.7843418,114.230616 90.9800918,114.230616 L101.332301,114.230616 C103.76316,114.230616 105.687442,114.803082 107.107519,115.951554 C108.52641,117.098846 109.237042,118.661618 109.237042,120.63751 C109.237042,123.038324 108.30456,124.776967 106.441969,125.853439 L109.715146,131.944001 Z" id="Fill-36" fill="#FFFFFF"></path>
                    <path d="M122.40983,124.847434 L120.519953,119.33996 L118.630076,124.847434 L122.40983,124.847434 Z M115.410285,132.765164 L110.380103,132.765164 C110.22113,132.765164 110.083512,132.707328 109.968435,132.592835 C109.853358,132.478341 109.795226,132.367389 109.795226,132.261159 C109.795226,132.154928 109.804717,132.077025 109.821326,132.02391 L115.62383,115.103715 C115.782803,114.520626 116.182608,114.230262 116.820871,114.230262 L124.219035,114.230262 C124.858485,114.230262 125.257103,114.520626 125.417262,115.103715 L131.21858,132.02391 C131.236376,132.077025 131.245867,132.154928 131.245867,132.261159 C131.245867,132.367389 131.187735,132.478341 131.072658,132.592835 C130.95758,132.707328 130.819962,132.765164 130.659803,132.765164 L125.629621,132.765164 C125.061353,132.765164 124.662735,132.465358 124.43258,131.864564 L123.76703,130.011428 L117.272876,130.011428 L116.608512,131.864564 C116.377171,132.465358 115.978553,132.765164 115.410285,132.765164 L115.410285,132.765164 Z" id="Fill-37" fill="#FFFFFF"></path>
                    <path d="M132.549443,114.230144 L150.913166,114.230144 C151.10773,114.230144 151.276193,114.300965 151.418557,114.441425 C151.559734,114.583066 151.630916,114.750675 151.630916,114.944251 L151.630916,119.207644 C151.630916,119.4024 151.559734,119.570009 151.418557,119.71165 C151.276193,119.852111 151.10773,119.922931 150.913166,119.922931 L145.191334,119.922931 L145.191334,132.049759 C145.191334,132.244516 145.120152,132.412124 144.977789,132.552585 C144.835425,132.694226 144.666961,132.765046 144.472398,132.765046 L138.990211,132.765046 C138.794461,132.765046 138.625998,132.694226 138.483634,132.552585 C138.342457,132.412124 138.271275,132.244516 138.271275,132.049759 L138.271275,119.922931 L132.549443,119.922931 C132.353693,119.922931 132.18523,119.852111 132.044052,119.71165 C131.901689,119.570009 131.831693,119.4024 131.831693,119.207644 L131.831693,114.944251 C131.831693,114.750675 131.901689,114.583066 132.044052,114.441425 C132.18523,114.300965 132.353693,114.230144 132.549443,114.230144" id="Fill-38" fill="#FFFFFF"></path>
                    <path d="M162.622219,127.336656 L171.696715,127.336656 C171.892465,127.336656 172.060928,127.407476 172.203292,127.547937 C172.344469,127.689578 172.415651,127.857187 172.415651,128.050763 L172.415651,132.049759 C172.415651,132.244516 172.344469,132.412124 172.203292,132.552585 C172.060928,132.694226 171.892465,132.765046 171.696715,132.765046 L156.155351,132.765046 C155.959601,132.765046 155.791137,132.694226 155.64996,132.552585 C155.507596,132.412124 155.436415,132.244516 155.436415,132.049759 L155.436415,114.944251 C155.436415,114.750675 155.507596,114.583066 155.64996,114.441425 C155.791137,114.300965 155.959601,114.230144 156.155351,114.230144 L161.904469,114.230144 C162.099033,114.230144 162.267496,114.300965 162.40986,114.441425 C162.551037,114.583066 162.622219,114.750675 162.622219,114.944251 L162.622219,127.336656 Z" id="Fill-39" fill="#FFFFFF"></path>
                    <path d="M181.597038,121.49432 L181.597038,125.500399 C181.597038,126.184997 181.841429,126.710249 182.329024,127.077335 C182.81662,127.444421 183.477424,127.627374 184.311438,127.627374 C185.145451,127.627374 185.806256,127.44088 186.293851,127.064351 C186.782633,126.689003 187.025838,126.159029 187.025838,125.475611 L187.025838,121.519107 C187.025838,120.835689 186.782633,120.305716 186.293851,119.930367 C185.806256,119.553838 185.145451,119.366164 184.311438,119.366164 C183.477424,119.366164 182.81662,119.550297 182.329024,119.917383 C181.841429,120.28447 181.597038,120.809722 181.597038,121.49432 M194.211642,121.922784 L194.211642,125.071935 C194.211642,126.844808 193.767942,128.326136 192.881729,129.512379 C191.994329,130.699803 190.831692,131.543747 189.395006,132.043032 C187.957133,132.541136 186.263006,132.791368 184.311438,132.791368 C182.35987,132.791368 180.665742,132.541136 179.22787,132.043032 C177.791183,131.543747 176.629733,130.699803 175.742333,129.512379 C174.854933,128.326136 174.411233,126.828283 174.411233,125.02 L174.411233,121.973538 C174.411233,119.375607 175.329479,117.430404 177.16597,116.13911 C179.00246,114.848997 181.384679,114.20335 184.311438,114.20335 C187.239383,114.20335 189.621601,114.848997 191.458092,116.13911 C193.293397,117.430404 194.211642,119.357902 194.211642,121.922784" id="Fill-40" fill="#FFFFFF"></path>
                    <path d="M208.98187,114.230144 L213.931379,114.230144 C214.127129,114.230144 214.295592,114.300965 214.437956,114.441425 C214.579133,114.583066 214.650315,114.750675 214.650315,114.944251 L214.650315,132.049759 C214.650315,132.244516 214.579133,132.412124 214.437956,132.552585 C214.295592,132.694226 214.127129,132.765046 213.931379,132.765046 L209.64742,132.765046 C209.221515,132.765046 208.865606,132.578552 208.583251,132.207925 L202.780747,124.847316 L202.780747,132.049759 C202.780747,132.244516 202.709565,132.412124 202.568388,132.552585 C202.426024,132.694226 202.25756,132.765046 202.06181,132.765046 L197.112301,132.765046 C196.916551,132.765046 196.748088,132.694226 196.60691,132.552585 C196.464547,132.412124 196.393365,132.244516 196.393365,132.049759 L196.393365,114.944251 C196.393365,114.750675 196.464547,114.583066 196.60691,114.441425 C196.748088,114.300965 196.916551,114.230144 197.112301,114.230144 L201.423547,114.230144 C201.849451,114.230144 202.19587,114.406015 202.461615,114.758937 L208.26412,122.729783 L208.26412,114.944251 C208.26412,114.750675 208.334115,114.583066 208.476479,114.441425 C208.617656,114.300965 208.78612,114.230144 208.98187,114.230144" id="Fill-41" fill="#FFFFFF"></path>
                    <path d="M234.570428,122.9341 C235.80306,123.812274 236.419969,125.128355 236.419969,126.884703 C236.419969,128.639871 235.524265,130.064543 233.731669,131.155179 C231.94026,132.245814 229.562787,132.791132 226.599251,132.791132 C223.636901,132.791132 221.334169,132.254077 219.693428,131.177605 C218.052687,130.102314 217.231724,128.777971 217.231724,127.203395 C217.231724,126.818604 217.435778,126.626208 217.843887,126.626208 L223.299974,126.626208 C223.671305,126.626208 223.973828,126.7348 224.203983,126.951983 C224.701069,127.402873 225.561183,127.628318 226.78551,127.628318 C228.471333,127.628318 229.313651,127.381627 229.313651,126.887064 C229.313651,126.578995 229.047905,126.337025 228.515228,126.157613 C227.983737,125.979381 226.927874,125.80351 225.348824,125.633541 C220.328133,125.053994 217.816601,123.204398 217.816601,120.084756 C217.816601,118.328408 218.624515,116.909637 220.239155,115.827264 C221.853796,114.744891 224.014165,114.204295 226.719074,114.204295 C229.425169,114.204295 231.611637,114.786203 233.279665,115.95002 C234.946505,117.113836 235.781705,118.343752 235.781705,119.639767 C235.781705,119.814458 235.723574,119.954918 235.608496,120.059969 C235.492233,120.165019 235.336819,120.216954 235.142255,120.216954 L229.420424,120.216954 C229.101292,120.216954 228.826055,120.117805 228.595901,119.917147 C228.169996,119.550061 227.530546,119.367108 226.679924,119.367108 C225.490001,119.367108 224.896819,119.605537 224.896819,120.082395 C224.896819,120.338529 225.126974,120.539187 225.588469,120.683189 C226.048778,120.828371 226.971769,120.978274 228.356255,121.131719 C231.265219,121.455132 233.33661,122.055926 234.570428,122.9341" id="Fill-42" fill="#FFFFFF"></path>
                    <polygon id="Fill-43" fill="#FFFFFF" points="130.41992 146.004465 132.52097 152.478638 139.360357 152.466834 133.820039 156.455208 135.944816 162.921119 130.41992 158.912679 124.895025 162.921119 127.020989 156.455208 121.48067 152.466834 128.320057 152.478638"></polygon>
                    <polygon id="Fill-44" fill="#FFFFFF" points="153.130954 145.817145 154.699327 150.653004 159.808995 150.643561 155.669772 153.622743 157.257127 158.4527 153.130954 155.458174 149.004781 158.4527 150.592136 153.622743 146.4541 150.643561 151.562581 150.653004"></polygon>
                    <polygon id="Fill-45" fill="#FFFFFF" points="107.709836 145.817145 109.278209 150.653004 114.387877 150.643561 110.248654 153.622743 111.836009 158.4527 107.709836 155.458174 103.583663 158.4527 105.171018 153.622743 101.032981 150.643561 106.141463 150.653004"></polygon>
                    <path d="M130.420514,99.9214544 C104.645577,99.9214544 83.6766,79.0577383 83.6766,53.4148195 C83.6766,27.7707204 104.645577,6.90700427 130.420514,6.90700427 C156.19545,6.90700427 177.164427,27.7707204 177.164427,53.4148195 C177.164427,79.0577383 156.19545,99.9214544 130.420514,99.9214544" id="Fill-46" fill="#F9F7E8"></path>
                    <path d="M155.248139,23.7743202 L155.24458,23.7743202 C152.808975,21.5918688 150.684198,20.462282 150.684198,20.462282 C150.684198,20.462282 147.718289,19.8166352 145.369289,20.0432607 C144.810511,20.1010975 144.313425,20.3501495 143.876843,20.714875 C129.52303,16.6722055 125.848861,16.1304287 105.570348,30.5955136 C96.5041568,43.8129776 94.0555023,72.734885 104.291448,81.9663358 C111.691984,88.6388062 120.663266,92.0700589 130.378398,92.0700589 C151.767348,92.0700589 169.164184,74.7107767 169.164184,53.4776137 C169.164184,42.0365636 164.002316,31.0145349 155.248139,23.7743202" id="Fill-47" fill="#01573E"></path>
                    <path d="M108.548476,85.3795292 C98.0977991,78.2455453 91.6783855,66.0254699 91.6783855,53.3851929 C91.6783855,32.1059966 109.074035,14.7585178 130.508067,14.7585178 C137.924026,14.7585178 145.355408,17.0377572 151.58619,20.9694747 C167.597354,31.4178575 171.997576,72.1632456 130.465358,77.8229831 L130.508067,86.5280015 C125.084013,86.0712094 116.019008,77.3779943 111.420663,67.9010325 C112.977172,60.1225821 123.277181,48.9931423 130.330113,49.0816679 L130.508067,57.9696393 C140.067785,54.7650121 149.823254,45.1959837 151.945658,38.8823371 C151.118763,32.9676459 137.632181,19.1092565 130.465358,19.8434289 L130.820081,28.5673328 C102.997481,28.4858893 88.1608173,63.9114783 108.548476,85.3795292" id="Fill-48" fill="#CFE3A5"></path>
                </g>
            </g>
        </g>
    </g>
</svg>