<?xml version="1.0" encoding="UTF-8"?>
<svg width="530px" height="958px" viewBox="0 0 530 958" version="1.1" xmlns="http://www.w3.org/2000/svg" xmlns:xlink="http://www.w3.org/1999/xlink">
    <!-- Generator: Sketch 42 (36781) - http://www.bohemiancoding.com/sketch -->
    <title>spinner-graph</title>
    <desc>Created with Sketch.</desc>
    <defs></defs>
    <g id="Desktop" stroke="none" stroke-width="1" fill="none" fill-rule="evenodd">
        <g id="01-index" transform="translate(-222.000000, -303.000000)">
            <g id="intro" transform="translate(60.000000, 56.000000)">
                <g id="spinner-graph" transform="translate(427.000000, 726.000000) scale(1, -1) rotate(-270.000000) translate(-427.000000, -726.000000) translate(-52.000000, 461.000000)">
                    <path d="M269.682395,414.131256 C261.914691,414.131256 253.997,413.50862 246.099044,412.223939 C163.875052,399.408655 107.807856,323.139591 120.785606,241.976128 C133.830455,160.757496 211.00623,105.342823 293.238116,118.229039 C375.458162,131.099493 431.52141,207.340972 418.523925,288.53202 C417.817412,292.839248 416.949071,297.083424 415.930744,301.27243 L432.137143,305.260457 C449.460545,236.766471 420.828976,165.005612 360.870034,126.508532 C300.926881,88.0942075 222.898553,91.4911246 166.566909,134.894425 C110.231317,178.352896 88.0570471,252.363917 111.328584,319.072748 C134.611962,385.824927 198.198201,430.587783 269.682395,430.587783 L957.035156,430.587783 L957.035156,414.131256 L269.682395,414.131256 Z" id="Fill-1" fill="#83F715"></path>
                    <path d="M268.760086,447.222431 C244.730725,447.230312 220.286927,442.568418 196.794358,432.692926 C103.120106,393.439224 59.4267687,286.672779 99.1888896,194.159988 C138.954957,101.694486 247.071298,58.5394525 340.741603,97.7576879 C398.174462,121.847426 436.831422,171.370694 448.936884,227.411945 L465.281428,224.015028 C443.363714,122.012937 345.280658,54.2164617 240.78372,68.6986779 C136.255207,83.2242422 60.9226833,175.106515 68.2641113,279.059271 C75.6410622,383.063258 163.209299,463.678957 268.760086,463.678957 L957.035156,463.678957 L957.035156,447.222431 L268.760086,447.222431 Z" id="Fill-4" fill="#C7D492"></path>
                    <path d="M268.760086,480.303753 C174.039878,480.351042 86.8702893,418.855808 59.4583448,324.471166 C26.335085,210.371007 93.1736551,91.3133973 208.710364,58.5658554 C324.30233,25.8498395 444.867522,91.8178119 478.00657,205.988905 C485.217747,230.80768 487.688572,255.882603 485.963731,280.23637 L502.624036,281.367362 C509.326049,186.521654 456.629595,97.1969208 369.681038,56.2447601 C282.728535,15.3044217 179.297288,31.0358521 108.862997,95.9004176 C38.385289,160.757102 15.3308372,261.616378 50.6210022,350.117496 C85.8953793,438.606793 172.445289,496.768161 268.760086,496.768161 L957.035156,496.768161 L957.035156,480.303753 L268.760086,480.303753 Z" id="Fill-7" fill="#749B70"></path>
                    <path d="M268.760086,513.407144 C132.016124,513.383499 19.9764612,405.135337 17.5845766,269.546327 C15.153222,132.574118 125.6575,19.6246539 264.347336,17.2286846 C395.69969,14.9351744 505.229058,112.626097 518.565986,239.281451 L535.234185,237.57117 C520.113211,95.7754962 394.01432,-8.66197128 250.071021,1.28839493 C106.084306,11.2229982 -4.06474173,132.006651 0.979529709,274.46831 C6.01196014,416.961495 124.422088,529.867611 268.760086,529.867611 L957.035156,529.867611 L957.035156,513.407144 L268.760086,513.407144 Z" id="Fill-10" fill="#4B7E5F"></path>
                </g>
            </g>
        </g>
    </g>
</svg>